<svg width="25" height="24" viewBox="0 0 25 24" fill="none" xmlns="http://www.w3.org/2000/svg">
<path d="M7.20001 9.5C7.20001 10.8807 6.08072 12 4.70001 12C3.3193 12 2.20001 10.8807 2.20001 9.5C2.20001 8.11929 3.3193 7 4.70001 7C6.08072 7 7.20001 8.11929 7.20001 9.5ZM7.20001 9.5V2C7.53334 2.5 7.80001 4.6 10.2 5" stroke="#18181B" stroke-width="1.5" stroke-linecap="round" stroke-linejoin="round"/>
<path d="M10.7 22C12.0807 22 13.2 20.8807 13.2 19.5C13.2 18.1193 12.0807 17 10.7 17C9.3193 17 8.20001 18.1193 8.20001 19.5C8.20001 20.8807 9.3193 22 10.7 22Z" stroke="#18181B" stroke-width="1.5"/>
<path d="M20.2 20C21.3046 20 22.2 19.1046 22.2 18C22.2 16.8954 21.3046 16 20.2 16C19.0954 16 18.2 16.8954 18.2 18C18.2 19.1046 19.0954 20 20.2 20Z" stroke="#18181B" stroke-width="1.5"/>
<path d="M13.2 19.5V11C13.2 10.09 13.2 9.635 13.4466 9.35246C13.6932 9.06991 14.1938 9.00161 15.1949 8.86502C18.2085 8.45383 20.4013 7.19795 21.5696 6.42935C21.8498 6.24507 21.9898 6.15293 22.0949 6.20959C22.2 6.26625 22.2 6.43177 22.2 6.76281V17.9259" stroke="#18181B" stroke-width="1.5" stroke-linecap="round" stroke-linejoin="round"/>
<path d="M13.2 13C18 13 21.2 10.6667 22.2 10" stroke="#18181B" stroke-width="1.5" stroke-linecap="round" stroke-linejoin="round"/>
</svg>
