<svg width="25" height="24" viewBox="0 0 25 24" fill="none" xmlns="http://www.w3.org/2000/svg">
<path d="M4.66064 5.88417C4.66064 7.39595 5.88618 8.62149 7.39796 8.62149C8.90974 8.62149 10.1353 7.39595 10.1353 5.88417C10.1353 4.37239 8.90974 3.14685 7.39796 3.14685C5.88618 3.14685 4.66064 4.37239 4.66064 5.88417Z" stroke="#18181B" stroke-width="1.5" stroke-linecap="round" stroke-linejoin="round"/>
<path d="M10.8584 17.7791L9.4361 14.368C8.9239 13.1396 8.66779 12.5253 8.35397 12.2764C7.78993 11.8289 6.99222 11.828 6.42717 12.2742C6.1128 12.5225 5.85533 13.1361 5.34038 14.3634L3.90913 17.7746C3.56418 18.5967 3.39171 19.0077 3.40033 19.341C3.41574 19.937 3.77111 20.4715 4.3147 20.7163C4.6187 20.8532 5.06448 20.8532 5.95603 20.8532H8.80959C9.69927 20.8532 10.1441 20.8532 10.4478 20.7166C10.9909 20.4723 11.3463 19.939 11.3628 19.3437C11.372 19.0109 11.2008 18.6003 10.8584 17.7791Z" stroke="#18181B" stroke-width="1.5" stroke-linecap="round" stroke-linejoin="round"/>
<path d="M14.6978 5.88405C14.6978 7.39582 15.9233 8.62136 17.4351 8.62136C18.9469 8.62136 20.1724 7.39582 20.1724 5.88405C20.1724 4.37227 18.9469 3.14673 17.4351 3.14673C15.9233 3.14673 14.6978 4.37227 14.6978 5.88405Z" stroke="#18181B" stroke-width="1.5" stroke-linecap="round" stroke-linejoin="round"/>
<path d="M20.8955 15.0142L19.4732 18.4253C18.961 19.6537 18.7049 20.2679 18.3911 20.5169C17.827 20.9644 17.0293 20.9653 16.4643 20.5191C16.1499 20.2708 15.8924 19.6572 15.3775 18.4299L13.9462 15.0187C13.6013 14.1966 13.4288 13.7855 13.4374 13.4523C13.4528 12.8563 13.8082 12.3218 14.3518 12.077C14.6558 11.9401 15.1016 11.9401 15.9931 11.9401H18.8467C19.7364 11.9401 20.1812 11.9401 20.4849 12.0767C21.028 12.3209 21.3834 12.8543 21.3999 13.4495C21.4091 13.7824 21.2379 14.193 20.8955 15.0142Z" stroke="#18181B" stroke-width="1.5" stroke-linecap="round" stroke-linejoin="round"/>
</svg>
