<svg width="20" height="20" viewBox="0 0 20 20" fill="none" xmlns="http://www.w3.org/2000/svg">
    <path
        d="M5.00016 15C3.96289 15.33 3.3335 15.9867 3.3335 16.4614C3.3335 17.4953 6.31826 18.3333 10.0002 18.3333C13.6821 18.3333 16.6668 17.4953 16.6668 16.4614C16.6668 15.9867 16.0374 15.33 15.0002 15"
        stroke="#18181B" stroke-width="1.5" stroke-linecap="round" stroke-linejoin="round" />
    <path
        d="M12.0832 7.50033C12.0832 8.65091 11.1504 9.58366 9.99984 9.58366C8.84925 9.58366 7.9165 8.65091 7.9165 7.50033C7.9165 6.34973 8.84925 5.41699 9.99984 5.41699C11.1504 5.41699 12.0832 6.34973 12.0832 7.50033Z"
        stroke="#18181B" stroke-width="1.5" stroke-linecap="round" stroke-linejoin="round" />
    <path
        d="M15.8332 7.66699C15.8332 11.6511 11.5814 14.1775 10.3377 14.8312C10.1236 14.9438 9.87609 14.9438 9.662 14.8312C8.41825 14.1775 4.1665 11.6511 4.1665 7.66699C4.1665 4.35328 6.77818 1.66699 9.99984 1.66699C13.2215 1.66699 15.8332 4.35328 15.8332 7.66699Z"
        stroke="#18181B" stroke-width="1.5" stroke-linecap="round" stroke-linejoin="round" />
</svg>
    