<svg width="20" height="20" viewBox="0 0 20 20" fill="none" xmlns="http://www.w3.org/2000/svg">
    <g clip-path="url(#clip0_742_2260)">
        <path
            d="M8.33329 5.00033C8.33329 3.15938 6.84091 1.66699 4.99996 1.66699C3.15901 1.66699 1.66663 3.15938 1.66663 5.00033C1.66663 6.84128 3.15901 8.33366 4.99996 8.33366C6.84091 8.33366 8.33329 6.84128 8.33329 5.00033Z"
            stroke="#18181B" stroke-width="1.5" />
        <path
            d="M8.33329 15.0003C8.33329 13.1594 6.84091 11.667 4.99996 11.667C3.15901 11.667 1.66663 13.1594 1.66663 15.0003C1.66663 16.8412 3.15901 18.3337 4.99996 18.3337C6.84091 18.3337 8.33329 16.8412 8.33329 15.0003Z"
            stroke="#18181B" stroke-width="1.5" />
        <path
            d="M18.3333 5.00033C18.3333 3.15938 16.8409 1.66699 15 1.66699C13.159 1.66699 11.6666 3.15938 11.6666 5.00033C11.6666 6.84128 13.159 8.33366 15 8.33366C16.8409 8.33366 18.3333 6.84128 18.3333 5.00033Z"
            stroke="#18181B" stroke-width="1.5" />
        <path
            d="M18.3333 15.0003C18.3333 13.1594 16.8409 11.667 15 11.667C13.159 11.667 11.6666 13.1594 11.6666 15.0003C11.6666 16.8412 13.159 18.3337 15 18.3337C16.8409 18.3337 18.3333 16.8412 18.3333 15.0003Z"
            stroke="#18181B" stroke-width="1.5" />
    </g>
    <defs>
        <clipPath id="clip0_742_2260">
            <rect width="20" height="20" fill="white" />
        </clipPath>
    </defs>
</svg>
    