<svg width="20" height="20" viewBox="0 0 20 20" fill="none" xmlns="http://www.w3.org/2000/svg">
    <path d="M1.6665 7.91634V4.99967C1.6665 4.0792 2.4127 3.33301 3.33317 3.33301H16.6665C17.587 3.33301 18.3332 4.0792 18.3332 4.99967V7.91634C17.1826 7.91634 16.2498 8.84909 16.2498 9.99967C16.2498 11.1503 17.1826 12.083 18.3332 12.083V14.9997C18.3332 15.9202 17.587 16.6663 16.6665 16.6663H3.33317C2.4127 16.6663 1.6665 15.9202 1.6665 14.9997V12.083C2.8171 12.083 3.74984 11.1503 3.74984 9.99967C3.74984 8.84909 2.8171 7.91634 1.6665 7.91634Z" stroke="#18181B" stroke-width="1.5" stroke-linecap="round" stroke-linejoin="round"/>
    <path d="M7.5 3.33301V16.6663" stroke="#18181B" stroke-width="1.5" stroke-linejoin="round"/>
    </svg>
    