<svg width="20" height="21" viewBox="0 0 20 21" fill="none" xmlns="http://www.w3.org/2000/svg">
    <path
      d="M1.66667 7.64284C1.66667 5.84701 1.66667 4.9491 2.15483 4.3912C2.64298 3.83331 3.42866 3.83331 5.00001 3.83331H15C16.5713 3.83331 17.357 3.83331 17.8452 4.3912C18.3333 4.9491 18.3333 5.84701 18.3333 7.64284V13.3571C18.3333 15.153 18.3333 16.0509 17.8452 16.6087C17.357 17.1666 16.5713 17.1666 15 17.1666H5.00001C3.42866 17.1666 2.64298 17.1666 2.15483 16.6087C1.66667 16.0509 1.66667 15.153 1.66667 13.3571V7.64284Z"
      stroke="#00A63E" stroke-width="1.5" stroke-linejoin="round" />
    <path
      d="M9.99999 12.1666C10.9205 12.1666 11.6667 11.4205 11.6667 10.5C11.6667 9.57951 10.9205 8.83331 9.99999 8.83331C9.07952 8.83331 8.33333 9.57951 8.33333 10.5C8.33333 11.4205 9.07952 12.1666 9.99999 12.1666Z"
      stroke="#00A63E" stroke-width="1.5" stroke-linejoin="round" />
    <path d="M10 8.83335V4.66669M10 12.1667V16.3334" stroke="#00A63E" stroke-width="1.5" stroke-linecap="round"
      stroke-linejoin="round" />
    <path
      d="M18.3333 8H16.25C15.7898 8 15.4167 8.3731 15.4167 8.83333V12.1667C15.4167 12.6269 15.7898 13 16.25 13H18.3333"
      stroke="#00A63E" stroke-width="1.5" stroke-linecap="round" stroke-linejoin="round" />
    <path
      d="M1.66667 8H3.75001C4.21024 8 4.58334 8.3731 4.58334 8.83333V12.1667C4.58334 12.6269 4.21024 13 3.75001 13H1.66667"
      stroke="#00A63E" stroke-width="1.5" stroke-linecap="round" stroke-linejoin="round" />
  </svg>