<svg width="16" height="17" viewBox="0 0 16 17" fill="none" xmlns="http://www.w3.org/2000/svg">
    <path d="M9.07847 14.7443C8.7894 15.015 8.40293 15.1663 8.00073 15.1663C7.59853 15.1663 7.21213 15.015 6.923 14.7443C4.27535 12.2503 0.727174 9.46427 2.45751 5.41945C3.39309 3.23245 5.63889 1.83301 8.00073 1.83301C10.3626 1.83301 12.6084 3.23245 13.544 5.41945C15.2721 9.45921 11.7327 12.2589 9.07847 14.7443Z" stroke="#52525C" stroke-width="1.25"/>
    <path d="M10.3334 7.83333C10.3334 9.122 9.28875 10.1667 8.00008 10.1667C6.71141 10.1667 5.66675 9.122 5.66675 7.83333C5.66675 6.54467 6.71141 5.5 8.00008 5.5C9.28875 5.5 10.3334 6.54467 10.3334 7.83333Z" stroke="#52525C" stroke-width="1.25"/>
    </svg>
    