<svg width="20" height="20" viewBox="0 0 20 20" fill="none" xmlns="http://www.w3.org/2000/svg">
    <path d="M1.66797 5L7.42882 8.26414C9.55264 9.4675 10.45 9.4675 12.5738 8.26414L18.3346 5"
        stroke="#18181B" stroke-width="1.5" stroke-linejoin="round" />
    <path
        d="M1.68111 11.2295C1.73559 13.7842 1.76283 15.0614 2.70544 16.0077C3.64804 16.9538 4.95991 16.9868 7.58366 17.0527C9.20072 17.0933 10.8019 17.0933 12.419 17.0527C15.0427 16.9868 16.3546 16.9538 17.2972 16.0077C18.2398 15.0614 18.2671 13.7842 18.3215 11.2295C18.3391 10.4081 18.3391 9.59159 18.3215 8.77017C18.2671 6.21555 18.2398 4.93825 17.2972 3.99205C16.3546 3.04586 15.0427 3.0129 12.419 2.94698C10.8019 2.90635 9.20072 2.90635 7.58365 2.94697C4.95991 3.01289 3.64804 3.04585 2.70543 3.99205C1.76282 4.93824 1.73559 6.21555 1.6811 8.77017C1.66359 9.59159 1.66359 10.4081 1.68111 11.2295Z"
        stroke="#18181B" stroke-width="1.5" stroke-linejoin="round" />
</svg>
    