<svg width="350" height="210" viewBox="0 0 350 210" fill="none" xmlns="http://www.w3.org/2000/svg">
<path d="M62.6147 159.058V137.705H6.90367V122.292L59.8853 46.6731H81.7202V120.847H96.9725V137.705H81.7202V159.058H62.6147ZM27.6147 120.847H63.7385V67.8658L27.6147 120.847Z" fill="#18181B"/>
<path d="M175.247 160.985C165.079 160.985 156.356 158.577 149.078 153.76C141.799 148.837 136.18 142.04 132.22 133.37C128.367 124.594 126.44 114.425 126.44 102.866C126.44 91.3062 128.367 81.1915 132.22 72.5218C136.18 63.745 141.799 56.9484 149.078 52.1319C156.356 47.2083 165.079 44.7465 175.247 44.7465C185.309 44.7465 193.925 47.2083 201.096 52.1319C208.374 56.9484 213.94 63.745 217.793 72.5218C221.753 81.1915 223.734 91.3062 223.734 102.866C223.734 114.425 221.753 124.594 217.793 133.37C213.94 142.04 208.374 148.837 201.096 153.76C193.925 158.577 185.309 160.985 175.247 160.985ZM175.087 143.646C180.76 143.646 185.79 142.04 190.179 138.829C194.567 135.511 197.938 130.802 200.293 124.701C202.755 118.6 203.986 111.321 203.986 102.866C203.986 94.4101 202.755 87.1319 200.293 81.0309C197.938 74.93 194.567 70.2741 190.179 67.0631C185.79 63.745 180.76 62.086 175.087 62.086C169.414 62.086 164.383 63.745 159.995 67.0631C155.607 70.2741 152.182 74.93 149.72 81.0309C147.365 87.1319 146.188 94.4101 146.188 102.866C146.188 111.321 147.365 118.6 149.72 124.701C152.182 130.802 155.607 135.511 159.995 138.829C164.383 142.04 169.414 143.646 175.087 143.646Z" fill="#F4F4F5"/>
<path d="M310.724 159.058V137.705H255.013V122.292L307.995 46.6731H329.83V120.847H345.082V137.705H329.83V159.058H310.724ZM275.724 120.847H311.848V67.8658L275.724 120.847Z" fill="#18181B"/>
<path d="M130.321 47.7091C134.433 47.4116 138.565 47.5701 142.642 48.1837C145.171 48.5629 147.671 49.1183 150.122 49.8458L151.17 50.1681V50.1691C151.528 50.2832 151.887 50.4019 152.246 50.5265H152.245C154.149 51.1843 156.075 51.9747 157.991 52.756C159.677 53.4431 161.358 54.1243 163.05 54.7247L163.775 54.9767L163.777 54.9777C167.367 56.207 170.918 56.9846 174.45 56.6173L174.736 56.587L177.147 56.3038C179.801 55.9983 183.081 55.6964 186.07 56.0245C189.283 56.3767 192.482 57.488 194.13 60.421H194.129C194.653 61.3492 194.811 62.3482 194.891 63.2374C194.977 64.2021 194.972 64.9263 195.109 65.713C195.537 68.1644 197.327 70.1359 199.74 71.5343L200.201 71.7892C201.287 72.3673 202.434 72.8234 203.621 73.1476H203.624C205.661 73.71 207.759 74.0126 209.948 74.3917C212.107 74.7657 214.328 75.2118 216.452 76.0704H216.453C217.564 76.5201 218.843 77.171 219.708 78.3195C220.714 79.6549 220.885 81.2126 220.83 82.6495C220.802 83.37 220.716 84.0979 220.63 84.7833C220.542 85.4809 220.456 86.1295 220.414 86.756C220.331 88.1226 220.472 89.4931 220.831 90.8116L220.998 91.3732L221.001 91.38C222.187 95.1482 224.996 98.5625 228.322 101.036C233.043 104.541 238.592 106.526 244.118 109.241C245.451 109.896 246.905 110.712 248.101 111.768C249.302 112.828 250.3 114.18 250.609 115.908C251.123 118.776 249.608 121.04 247.951 122.949C247.142 123.882 246.149 124.889 245.346 125.776C244.5 126.711 243.754 127.626 243.216 128.582C242.064 130.627 241.827 132.96 241.989 135.508C242.135 137.796 242.575 140.031 242.91 142.386L243.047 143.403V143.404C243.221 144.813 243.348 146.534 242.667 148.102V148.104C241.873 149.923 240.19 151.075 238.771 151.907L238.77 151.908C234.509 154.396 229.751 155.908 224.836 156.335H224.835C222.639 156.524 220.431 156.493 218.3 156.489C216.417 156.486 214.584 156.502 212.778 156.693L212.006 156.785C207.673 157.37 203.471 159.052 199.01 160.381C194.633 161.685 190.089 162.61 185.484 161.364C181.883 160.39 178.812 158.184 175.917 156.173C172.962 154.12 170.176 152.258 166.959 151.588C163.949 150.962 160.813 151.437 157.452 151.869C154.168 152.292 150.674 152.67 147.311 151.577C140.998 149.526 137.421 143.03 135.882 136.993C135.112 133.974 134.685 130.863 134.205 127.871C133.751 125.042 133.246 122.294 132.364 119.666L132.183 119.143C129.293 111.063 122.78 104.729 115.594 99.6036L114.896 99.1115C111.974 97.0716 108.701 94.8993 105.882 92.4318L105.881 92.4308C102.151 89.1577 99.0459 85.2405 98.5283 80.129V80.1281C98.3906 78.7755 98.4573 77.4271 98.5342 76.1544C98.6126 74.8564 98.7008 73.6471 98.6416 72.4542V72.4454C98.6198 71.9089 98.558 71.3744 98.458 70.8468V70.8458C98.0577 68.8377 97.0158 67.0089 95.9023 64.9845C94.8195 63.0158 93.6705 60.8625 93.3828 58.4181V58.4171C93.2476 57.2605 93.3099 55.9885 93.7988 54.8077V54.8068C94.6812 52.6797 96.7237 51.3815 98.6738 50.7472L98.6748 50.7462C100.832 50.0483 103.038 50.0008 105.168 50.1173C106.231 50.1755 107.304 50.2769 108.342 50.3654C109.389 50.4547 110.411 50.5316 111.42 50.549H112.145C115.522 50.4974 118.804 49.6329 122.306 48.8829C122.904 48.7528 123.504 48.6307 124.104 48.5167H124.105C126.16 48.1287 128.236 47.8594 130.321 47.7091Z" fill="#615FFF" stroke="#F4F4F5" stroke-width="2.00688"/>
<g clip-path="url(#clip0_512_4949)">
<path d="M94.3798 58.2998C94.9031 62.7465 98.5733 66.2676 99.4441 70.6595C99.5532 71.2353 99.62 71.8183 99.6439 72.4039C99.7691 74.9262 99.2697 77.5005 99.5271 80.027C100.007 84.765 102.886 88.4676 106.543 91.6763C109.308 94.0974 112.518 96.2272 115.471 98.2881C122.989 103.539 130.04 110.17 133.127 118.804C135.185 124.562 135.343 130.819 136.854 136.744C138.365 142.67 141.806 148.733 147.621 150.622C153.863 152.651 160.74 149.269 167.164 150.605C174.057 152.04 178.945 158.555 185.747 160.395C194.389 162.733 203.001 156.988 211.872 155.79C216.131 155.215 220.467 155.703 224.749 155.335C229.516 154.92 234.132 153.454 238.264 151.041C239.67 150.215 241.093 149.201 241.747 147.702C242.309 146.406 242.224 144.929 242.051 143.526C241.404 138.321 239.766 132.663 242.342 128.089C244.718 123.868 250.476 120.85 249.622 116.085C249.108 113.217 246.289 111.426 243.675 110.141C238.285 107.492 232.542 105.419 227.724 101.842C224.278 99.2784 221.309 95.7025 220.043 91.6806C219.524 90.0726 219.311 88.3816 219.413 86.695C219.59 84.0363 220.51 81.0512 218.907 78.9227C218.212 77.9999 217.147 77.433 216.076 76.9997C212.039 75.3679 207.554 75.2736 203.357 74.1145C201.917 73.7216 200.534 73.1467 199.24 72.4039C196.68 70.9212 194.619 68.7365 194.121 65.885C193.83 64.2138 194.089 62.3892 193.255 60.9121C191.848 58.4081 189.067 57.3615 185.961 57.021C182.116 56.599 177.762 57.2588 174.847 57.5837L174.556 57.6147C170.813 58.0044 167.1 57.1758 163.453 55.9266C159.514 54.5888 155.663 52.7684 151.917 51.4742C151.566 51.3523 151.215 51.2355 150.865 51.1239C148.13 50.2525 145.331 49.601 142.492 49.1756C138.489 48.5731 134.432 48.4164 130.394 48.7086C128.346 48.8561 126.309 49.121 124.292 49.502C123.699 49.6145 123.107 49.735 122.516 49.8635C119.081 50.5992 115.664 51.4981 112.16 51.5516C111.908 51.5516 111.655 51.5516 111.403 51.5516C107.223 51.4799 102.95 50.4178 98.9841 51.7007C97.1806 52.2873 95.4517 53.4409 94.7258 55.1909C94.3221 56.1657 94.2574 57.2532 94.3798 58.2998Z" fill="#615FFF"/>
<path opacity="0.2" d="M99.5013 72.4039H103.112C103.166 71.4703 103.493 70.5729 104.051 69.8228C104.61 69.0727 105.376 68.5028 106.255 68.1837C105.599 67.8224 105.082 67.2531 104.784 66.5655C104.487 65.8779 104.427 65.1109 104.614 64.3854C104.8 63.6599 105.223 63.0171 105.815 62.558C106.407 62.099 107.134 61.8499 107.883 61.8499C108.633 61.8499 109.36 62.099 109.952 62.558C110.544 63.0171 110.967 63.6599 111.153 64.3854C111.34 65.1109 111.28 65.8779 110.983 66.5655C110.685 67.2531 110.168 67.8224 109.512 68.1837C110.391 68.5028 111.157 69.0727 111.716 69.8228C112.274 70.5729 112.601 71.4703 112.654 72.4039H112.685C112.765 71.496 113.102 70.6296 113.657 69.9068C114.213 69.1841 114.963 68.635 115.82 68.3243C115.321 68.0498 114.9 67.6536 114.595 67.1726C114.291 66.6916 114.113 66.1414 114.078 65.5732C114.043 65.005 114.153 64.4372 114.396 63.9226C114.64 63.4081 115.009 62.9634 115.471 62.63C115.932 62.2966 116.47 62.0853 117.035 62.0158C117.6 61.9462 118.174 62.0207 118.702 62.2322C119.231 62.4437 119.697 62.7854 120.058 63.2256C120.419 63.6658 120.663 64.1901 120.767 64.7498C121.181 64.4122 121.648 64.1463 122.15 63.9634C121.494 63.6021 120.976 63.0329 120.679 62.3452C120.382 61.6576 120.322 60.8907 120.508 60.1652C120.695 59.4397 121.117 58.7968 121.709 58.3378C122.301 57.8787 123.029 57.6296 123.778 57.6296C124.527 57.6296 125.255 57.8787 125.847 58.3378C126.439 58.7968 126.862 59.4397 127.048 60.1652C127.235 60.8907 127.175 61.6576 126.877 62.3452C126.58 63.0329 126.063 63.6021 125.407 63.9634C126.331 64.2984 127.13 64.9104 127.695 65.7159C128.259 66.5215 128.562 67.4814 128.561 68.465V72.4039H130.108V69.3091C130.107 68.3255 130.409 67.3655 130.974 66.56C131.538 65.7544 132.337 65.1425 133.262 64.8075C132.606 64.4462 132.088 63.8769 131.791 63.1893C131.494 62.5017 131.434 61.7347 131.62 61.0092C131.807 60.2837 132.229 59.6409 132.821 59.1818C133.413 58.7228 134.141 58.4737 134.89 58.4737C135.639 58.4737 136.367 58.7228 136.959 59.1818C137.551 59.6409 137.974 60.2837 138.16 61.0092C138.347 61.7347 138.287 62.5017 137.989 63.1893C137.692 63.8769 137.175 64.4462 136.519 64.8075C137.13 65.0302 137.69 65.375 138.164 65.821C138.638 66.2669 139.016 66.8047 139.276 67.4015C139.842 66.5971 140.641 65.9862 141.566 65.6515C140.91 65.2902 140.392 64.721 140.095 64.0333C139.798 63.3457 139.738 62.5788 139.924 61.8533C140.111 61.1278 140.533 60.4849 141.125 60.0259C141.717 59.5668 142.445 59.3177 143.194 59.3177C143.943 59.3177 144.671 59.5668 145.263 60.0259C145.855 60.4849 146.278 61.1278 146.464 61.8533C146.651 62.5788 146.591 63.3457 146.293 64.0333C145.996 64.721 145.479 65.2902 144.823 65.6515C145.842 66.0225 146.706 66.7282 147.273 67.6533V67.0583C147.272 66.0747 147.575 65.1147 148.139 64.3092C148.703 63.5036 149.502 62.8917 150.427 62.5567C149.771 62.1954 149.253 61.6261 148.956 60.9385C148.659 60.2509 148.599 59.4839 148.786 58.7584C148.972 58.0329 149.395 57.3901 149.987 56.931C150.579 56.472 151.306 56.2229 152.055 56.2229C152.805 56.2229 153.532 56.472 154.124 56.931C154.716 57.3901 155.139 58.0329 155.325 58.7584C155.512 59.4839 155.452 60.2509 155.155 60.9385C154.857 61.6261 154.34 62.1954 153.684 62.5567C154.609 62.8917 155.408 63.5036 155.972 64.3092C156.536 65.1147 156.839 66.0747 156.838 67.0583V72.4039H158.526C158.789 71.8214 159.166 71.2973 159.634 70.8624C160.102 70.4276 160.653 70.0908 161.253 69.8718C160.597 69.5105 160.08 68.9412 159.783 68.2536C159.485 67.566 159.425 66.799 159.612 66.0735C159.798 65.348 160.221 64.7052 160.813 64.2461C161.405 63.7871 162.133 63.538 162.882 63.538C163.631 63.538 164.359 63.7871 164.951 64.2461C165.543 64.7052 165.965 65.348 166.152 66.0735C166.338 66.799 166.278 67.566 165.981 68.2536C165.684 68.9412 165.166 69.5105 164.51 69.8718C164.844 69.9929 165.163 70.151 165.461 70.343C165.58 69.4786 165.933 68.6632 166.482 67.985C167.031 67.3069 167.755 66.7918 168.576 66.4956C167.919 66.1343 167.402 65.565 167.105 64.8774C166.808 64.1898 166.748 63.4228 166.934 62.6973C167.121 61.9718 167.543 61.329 168.135 60.8699C168.727 60.4109 169.455 60.1618 170.204 60.1618C170.953 60.1618 171.681 60.4109 172.273 60.8699C172.865 61.329 173.287 61.9718 173.474 62.6973C173.66 63.4228 173.6 64.1898 173.303 64.8774C173.006 65.565 172.488 66.1343 171.832 66.4956C172.537 66.7529 173.171 67.1722 173.684 67.7195C174.198 68.2668 174.575 68.9269 174.786 69.6467C175.314 69.051 175.983 68.5965 176.731 68.3243C176.074 67.9631 175.557 67.3938 175.26 66.7062C174.963 66.0186 174.902 65.2516 175.089 64.5261C175.275 63.8006 175.698 63.1577 176.29 62.6987C176.882 62.2397 177.61 61.9905 178.359 61.9905C179.108 61.9905 179.836 62.2397 180.428 62.6987C181.02 63.1577 181.442 63.8006 181.629 64.5261C181.815 65.2516 181.755 66.0186 181.458 66.7062C181.161 67.3938 180.643 67.9631 179.987 68.3243C180.503 68.5127 180.983 68.7887 181.405 69.1403C181.662 68.5313 182.042 67.9821 182.522 67.527C183.001 67.0719 183.569 66.7207 184.191 66.4956C183.534 66.1343 183.017 65.565 182.72 64.8774C182.423 64.1898 182.362 63.4228 182.549 62.6973C182.735 61.9718 183.158 61.329 183.75 60.8699C184.342 60.4109 185.07 60.1618 185.819 60.1618C186.568 60.1618 187.296 60.4109 187.888 60.8699C188.48 61.329 188.902 61.9718 189.089 62.6973C189.275 63.4228 189.215 64.1898 188.918 64.8774C188.621 65.565 188.103 66.1343 187.447 66.4956C188.372 66.8306 189.171 67.4425 189.735 68.2481C190.3 69.0536 190.602 70.0136 190.601 70.9972V72.4039H199.098C200.391 73.1462 201.774 73.7206 203.213 74.1131C207.41 75.2723 211.895 75.3665 215.932 76.9984C217.003 77.4316 218.068 77.9986 218.763 78.9214C220.367 81.0498 219.447 84.0349 219.269 86.6937C219.166 88.3791 219.378 90.069 219.895 91.6764H106.4C102.743 88.4746 99.8643 84.765 99.3846 80.0271C99.1342 77.502 99.6265 74.9276 99.5013 72.4039Z" fill="black"/>
<path d="M233.999 59.3943V113.975L231.185 112.146V59.3943H229.497L228.794 110.317L226.121 108.348L227.95 58.6909" stroke="#E0E0E0" stroke-width="0.140675" stroke-miterlimit="10"/>
<path d="M237.518 63.3332L226.123 63.9662" stroke="#E0E0E0" stroke-width="0.140675" stroke-miterlimit="10"/>
<path d="M236.814 66.1467L226.123 66.5687" stroke="#E0E0E0" stroke-width="0.140675" stroke-miterlimit="10"/>
<path d="M236.814 69.5229L226.123 69.8042" stroke="#E0E0E0" stroke-width="0.140675" stroke-miterlimit="10"/>
<path d="M236.814 72.6177L226.123 73.0398" stroke="#E0E0E0" stroke-width="0.140675" stroke-miterlimit="10"/>
<path d="M236.816 76.1346H225.703" stroke="#E0E0E0" stroke-width="0.140675" stroke-miterlimit="10"/>
<path d="M236.815 79.6515L225.42 79.2295" stroke="#E0E0E0" stroke-width="0.140675" stroke-miterlimit="10"/>
<path d="M236.815 82.887L225.42 82.3243" stroke="#E0E0E0" stroke-width="0.140675" stroke-miterlimit="10"/>
<path d="M236.815 86.4039L225.42 85.5599" stroke="#E0E0E0" stroke-width="0.140675" stroke-miterlimit="10"/>
<path d="M237.096 89.4988L224.998 88.3734" stroke="#E0E0E0" stroke-width="0.140675" stroke-miterlimit="10"/>
<path d="M237.096 93.0156L224.998 91.1869" stroke="#E0E0E0" stroke-width="0.140675" stroke-miterlimit="10"/>
<path d="M237.096 97.0952L224.576 94.8444" stroke="#E0E0E0" stroke-width="0.140675" stroke-miterlimit="10"/>
<path d="M237.096 101.737L224.576 98.0799" stroke="#E0E0E0" stroke-width="0.140675" stroke-miterlimit="10"/>
<path d="M237.376 106.52L224.152 101.315" stroke="#E0E0E0" stroke-width="0.140675" stroke-miterlimit="10"/>
<path d="M237.376 110.881L224.152 104.41" stroke="#E0E0E0" stroke-width="0.140675" stroke-miterlimit="10"/>
<path d="M223.027 59.2536L220.776 107.222H217.822L219.651 59.2536H216.415L214.305 107.222H211.07L212.898 59.2536H208.959L207.553 107.222H204.036L205.583 59.6756H201.926L201.082 107.222H197.846L198.831 59.2536H195.595L194.892 107.222H191.797L192.5 59.2536H188.843V107.222H185.185V59.2536H181.809L182.372 107.222H179.418L178.574 59.2536H175.197L176.323 107.222H173.369L171.962 59.2536H169.008L170.133 107.222H167.46L165.35 59.2536H162.537L164.787 107.222H161.974L158.879 59.2536H155.503L159.442 107.222H156.769L152.971 59.2536H150.298L154.237 107.222H151.283L147.484 58.6909H144.812L149.173 107.222H146.359L141.857 58.6909" stroke="#E0E0E0" stroke-width="0.140675" stroke-miterlimit="10"/>
<path d="M135.528 59.3943L139.748 108.066L137.638 109.755L134.403 59.3943H132.152L134.403 111.583L131.167 113.693L129.902 58.6909" stroke="#E0E0E0" stroke-width="0.140675" stroke-miterlimit="10"/>
<path d="M126.807 64.8806H139.749" stroke="#E0E0E0" stroke-width="0.140675" stroke-miterlimit="10"/>
<path d="M126.807 68.3975H139.749" stroke="#E0E0E0" stroke-width="0.140675" stroke-miterlimit="10"/>
<path d="M126.807 72.3364L139.749 71.9144" stroke="#E0E0E0" stroke-width="0.140675" stroke-miterlimit="10"/>
<path d="M126.807 75.7126L140.311 75.0092" stroke="#E0E0E0" stroke-width="0.140675" stroke-miterlimit="10"/>
<path d="M126.807 79.5108L140.311 78.9481" stroke="#E0E0E0" stroke-width="0.140675" stroke-miterlimit="10"/>
<path d="M126.807 83.5904L140.874 82.887" stroke="#E0E0E0" stroke-width="0.140675" stroke-miterlimit="10"/>
<path d="M126.807 87.5293L140.874 86.1226" stroke="#E0E0E0" stroke-width="0.140675" stroke-miterlimit="10"/>
<path d="M126.807 92.0309L140.874 88.6547" stroke="#E0E0E0" stroke-width="0.140675" stroke-miterlimit="10"/>
<path d="M126.807 95.9698L141.437 91.0462" stroke="#E0E0E0" stroke-width="0.140675" stroke-miterlimit="10"/>
<path d="M126.807 100.049L141.437 94.4224" stroke="#E0E0E0" stroke-width="0.140675" stroke-miterlimit="10"/>
<path d="M126.385 103.988L140.949 97.876" stroke="#E0E0E0" stroke-width="0.140675" stroke-miterlimit="10"/>
<path d="M126.385 108.49L141.437 100.893" stroke="#E0E0E0" stroke-width="0.140675" stroke-miterlimit="10"/>
<path d="M126.385 112.569L141.859 103.988" stroke="#E0E0E0" stroke-width="0.140675" stroke-miterlimit="10"/>
<path d="M226.125 63.3332L139.75 64.0366" stroke="#E0E0E0" stroke-width="0.140675" stroke-miterlimit="10"/>
<path d="M226.052 65.8654L139.678 66.5687" stroke="#E0E0E0" stroke-width="0.140675" stroke-miterlimit="10"/>
<path d="M225.984 68.3975L139.609 69.1009" stroke="#E0E0E0" stroke-width="0.140675" stroke-miterlimit="10"/>
<path d="M225.914 70.9297L139.539 71.633" stroke="#E0E0E0" stroke-width="0.140675" stroke-miterlimit="10"/>
<path d="M225.843 73.4618L139.469 74.1652" stroke="#E0E0E0" stroke-width="0.140675" stroke-miterlimit="10"/>
<path d="M225.773 75.994L140.523 76.6973" stroke="#E0E0E0" stroke-width="0.140675" stroke-miterlimit="10"/>
<path d="M225.702 78.5261L140.453 79.2295" stroke="#E0E0E0" stroke-width="0.140675" stroke-miterlimit="10"/>
<path d="M225.632 81.0583L140.383 81.7616" stroke="#E0E0E0" stroke-width="0.140675" stroke-miterlimit="10"/>
<path d="M225.562 83.5904L140.312 84.2938" stroke="#E0E0E0" stroke-width="0.140675" stroke-miterlimit="10"/>
<path d="M225.491 86.1226L141.086 86.8259" stroke="#E0E0E0" stroke-width="0.140675" stroke-miterlimit="10"/>
<path d="M225.421 88.6547L141.016 89.3581" stroke="#E0E0E0" stroke-width="0.140675" stroke-miterlimit="10"/>
<path d="M225.35 91.1869L140.945 91.8902" stroke="#E0E0E0" stroke-width="0.140675" stroke-miterlimit="10"/>
<path d="M225.28 93.719L141.438 94.4224" stroke="#E0E0E0" stroke-width="0.140675" stroke-miterlimit="10"/>
<path d="M225.208 96.2512L141.365 96.9546" stroke="#E0E0E0" stroke-width="0.140675" stroke-miterlimit="10"/>
<path d="M225.139 98.7833L141.719 99.4867" stroke="#E0E0E0" stroke-width="0.140675" stroke-miterlimit="10"/>
<path d="M225.069 101.315L141.648 102.019" stroke="#E0E0E0" stroke-width="0.140675" stroke-miterlimit="10"/>
<path d="M224.998 103.848L141.578 104.551" stroke="#E0E0E0" stroke-width="0.140675" stroke-miterlimit="10"/>
<path d="M237.376 116.366L224.574 107.222H141.435L126.807 116.366" stroke="#E0E0E0" stroke-width="0.422025" stroke-miterlimit="10"/>
<path d="M238.172 106.473C238.172 106.473 238.497 96.8702 243.691 91.4471C245.885 89.1855 247.285 86.2731 247.683 83.1473C247.86 81.6625 247.901 80.1647 247.805 78.6724" stroke="#535461" stroke-width="0.28135" stroke-miterlimit="10"/>
<path d="M251.056 75.2357C250.7 76.3077 247.729 78.7723 247.729 78.7723C247.729 78.7723 246.818 75.0191 247.174 73.9471C247.351 73.4393 247.72 73.0213 248.202 72.7834C248.684 72.5456 249.24 72.5071 249.75 72.6762C250.261 72.8454 250.684 73.2086 250.928 73.6873C251.173 74.166 251.219 74.7218 251.057 75.2343L251.056 75.2357Z" fill="#615FFF"/>
<path d="M252.296 82.2385C251.415 82.9419 247.58 83.3991 247.58 83.3991C247.58 83.3991 248.856 79.7542 249.737 79.048C249.945 78.8731 250.187 78.7417 250.447 78.6614C250.707 78.5811 250.981 78.5536 251.252 78.5804C251.523 78.6072 251.786 78.6879 252.025 78.8177C252.264 78.9474 252.475 79.1237 252.646 79.3361C252.816 79.5485 252.942 79.7928 253.017 80.0547C253.092 80.3165 253.114 80.5906 253.081 80.861C253.048 81.1313 252.962 81.3924 252.827 81.629C252.692 81.8655 252.512 82.0727 252.296 82.2385Z" fill="#615FFF"/>
<path d="M248.789 92.3404C247.672 92.505 244.133 90.9618 244.133 90.9618C244.133 90.9618 247.074 88.4592 248.191 88.289C248.722 88.223 249.257 88.3672 249.682 88.6906C250.107 89.0141 250.389 89.4911 250.467 90.0197C250.545 90.5483 250.413 91.0865 250.1 91.5191C249.786 91.9518 249.316 92.2445 248.789 92.3348V92.3404Z" fill="#615FFF"/>
<path d="M244.416 99.3854C243.343 99.7371 239.594 98.8129 239.594 98.8129C239.594 98.8129 242.07 95.8502 243.143 95.4971C243.4 95.4074 243.672 95.3698 243.943 95.3865C244.215 95.4032 244.48 95.4739 244.724 95.5944C244.968 95.7149 245.185 95.8828 245.363 96.0884C245.542 96.2939 245.677 96.5329 245.762 96.7914C245.846 97.0498 245.878 97.3226 245.856 97.5937C245.834 97.8648 245.759 98.1288 245.633 98.3702C245.508 98.6116 245.336 98.8256 245.127 98.9997C244.918 99.1738 244.676 99.3044 244.416 99.384V99.3854Z" fill="#615FFF"/>
<path d="M243.434 82.2512C243.956 83.2528 247.281 85.2152 247.281 85.2152C247.281 85.2152 247.584 81.3663 247.063 80.3633C246.939 80.125 246.77 79.9134 246.564 79.7407C246.358 79.568 246.121 79.4375 245.864 79.3566C245.608 79.2757 245.339 79.2461 245.071 79.2694C244.803 79.2928 244.543 79.3686 244.305 79.4925C244.066 79.6165 243.855 79.7862 243.682 79.9919C243.509 80.1976 243.379 80.4353 243.298 80.6915C243.217 80.9477 243.188 81.2173 243.211 81.4849C243.234 81.7525 243.31 82.0129 243.434 82.2512Z" fill="#615FFF"/>
<path d="M238.425 90.5595C239.223 91.3599 242.983 92.2363 242.983 92.2363C242.983 92.2363 242.12 88.4732 241.323 87.6728C240.938 87.2986 240.421 87.0907 239.885 87.0939C239.348 87.0972 238.834 87.3113 238.453 87.6902C238.073 88.069 237.857 88.5822 237.852 89.119C237.846 89.6558 238.052 90.1731 238.425 90.5595Z" fill="#615FFF"/>
<path d="M234.664 99.2996C235.314 100.222 238.873 101.722 238.873 101.722C238.873 101.722 238.659 97.8661 238.007 96.939C237.854 96.7168 237.658 96.5271 237.43 96.3811C237.203 96.235 236.949 96.1354 236.683 96.0881C236.417 96.0408 236.144 96.0466 235.881 96.1053C235.617 96.1639 235.367 96.2742 235.147 96.4299C234.926 96.5855 234.738 96.7834 234.594 97.012C234.45 97.2406 234.353 97.4955 234.308 97.7619C234.263 98.0284 234.271 98.3011 234.332 98.5643C234.393 98.8274 234.506 99.0759 234.664 99.2953V99.2996Z" fill="#615FFF"/>
<path d="M240.281 115.054C240.281 115.054 240.606 105.451 245.8 100.028C247.994 97.7667 249.395 94.8543 249.792 91.7285C249.97 90.2437 250.011 88.7458 249.915 87.2536" stroke="#535461" stroke-width="0.28135" stroke-miterlimit="10"/>
<path d="M253.167 83.8169C252.811 84.8888 249.84 87.3535 249.84 87.3535C249.84 87.3535 248.93 83.6002 249.286 82.5283C249.462 82.0205 249.831 81.6024 250.313 81.3646C250.795 81.1268 251.351 81.0883 251.862 81.2574C252.372 81.4266 252.795 81.7898 253.04 82.2685C253.284 82.7472 253.33 83.3029 253.168 83.8155L253.167 83.8169Z" fill="#615FFF"/>
<path d="M254.405 90.8197C253.524 91.5231 249.689 91.9803 249.689 91.9803C249.689 91.9803 250.965 88.3354 251.846 87.6292C252.055 87.4543 252.296 87.3229 252.556 87.2426C252.817 87.1623 253.09 87.1348 253.361 87.1616C253.632 87.1884 253.895 87.2691 254.134 87.3989C254.374 87.5286 254.585 87.7049 254.755 87.9173C254.926 88.1297 255.052 88.374 255.127 88.6359C255.201 88.8977 255.223 89.1719 255.19 89.4422C255.158 89.7125 255.071 89.9736 254.937 90.2102C254.802 90.4467 254.621 90.6539 254.405 90.8197Z" fill="#615FFF"/>
<path d="M250.899 100.922C249.782 101.086 246.242 99.543 246.242 99.543C246.242 99.543 249.184 97.0404 250.301 96.8701C250.831 96.8042 251.366 96.9484 251.791 97.2718C252.217 97.5953 252.498 98.0723 252.577 98.6009C252.655 99.1295 252.523 99.6677 252.209 100.1C251.896 100.533 251.425 100.826 250.899 100.916V100.922Z" fill="#615FFF"/>
<path d="M246.525 107.967C245.452 108.318 241.703 107.394 241.703 107.394C241.703 107.394 244.179 104.431 245.252 104.078C245.509 103.989 245.781 103.951 246.053 103.968C246.324 103.984 246.59 104.055 246.833 104.176C247.077 104.296 247.295 104.464 247.473 104.67C247.651 104.875 247.786 105.114 247.871 105.373C247.956 105.631 247.988 105.904 247.966 106.175C247.944 106.446 247.868 106.71 247.743 106.951C247.617 107.193 247.445 107.407 247.236 107.581C247.027 107.755 246.786 107.886 246.525 107.965V107.967Z" fill="#615FFF"/>
<path d="M245.545 90.8324C246.067 91.834 249.393 93.7964 249.393 93.7964C249.393 93.7964 249.695 89.9475 249.175 88.9445C248.924 88.4632 248.493 88.1011 247.976 87.9378C247.458 87.7745 246.897 87.8234 246.416 88.0737C245.935 88.3241 245.573 88.7553 245.409 89.2727C245.246 89.79 245.295 90.3511 245.545 90.8324Z" fill="#615FFF"/>
<path d="M240.536 99.1406C241.334 99.9411 245.094 100.817 245.094 100.817C245.094 100.817 244.232 97.0544 243.434 96.254C243.049 95.8798 242.533 95.6718 241.996 95.6751C241.459 95.6783 240.945 95.8925 240.565 96.2713C240.184 96.6502 239.968 97.1634 239.963 97.7001C239.958 98.2369 240.164 98.7543 240.536 99.1406Z" fill="#615FFF"/>
<path d="M236.775 107.881C237.425 108.804 240.984 110.303 240.984 110.303C240.984 110.303 240.77 106.447 240.119 105.52C239.965 105.298 239.769 105.108 239.542 104.962C239.314 104.816 239.06 104.717 238.794 104.669C238.528 104.622 238.256 104.628 237.992 104.686C237.728 104.745 237.479 104.855 237.258 105.011C237.037 105.167 236.849 105.365 236.705 105.593C236.561 105.822 236.464 106.077 236.419 106.343C236.374 106.61 236.382 106.882 236.444 107.145C236.505 107.409 236.617 107.657 236.775 107.877V107.881Z" fill="#615FFF"/>
<path d="M124.766 63.7313C124.835 61.0092 126.72 58.6177 129.38 58.0339L129.456 58.0185C129.564 57.997 129.673 57.9867 129.783 57.9875H235.064C235.841 57.9812 236.607 58.1764 237.287 58.5541C237.967 58.9317 238.537 59.4791 238.942 60.1427L238.969 60.1891C239.124 60.4606 239.207 60.767 239.211 61.0796L240.189 116.365H236.812L235.687 62.3456C235.687 62.3456 235.687 60.7982 234.28 60.6575C234.065 60.6364 231.454 60.621 227.189 60.6111L224.716 107.363H223.309L226.059 60.6097C207.307 60.5731 161.409 60.6195 140.107 60.6449L142.839 107.082H141.432L138.979 60.6463L130.87 60.6561C130.275 60.6565 129.691 60.8125 129.176 61.1087C128.66 61.4048 128.231 61.8308 127.931 62.3442L126.806 116.363H123.43L124.766 63.7313Z" fill="#E0E0E0"/>
<path d="M123.409 117.504C123.409 117.504 122.953 110.068 126.564 105.499C128.092 103.592 128.959 101.242 129.036 98.8002C129.063 97.64 128.984 96.4797 128.8 95.334" stroke="#535461" stroke-width="0.28135" stroke-miterlimit="10"/>
<path d="M131.061 92.4445C130.865 93.2984 128.752 95.4198 128.752 95.4198C128.752 95.4198 127.767 92.5894 127.969 91.7369C128.015 91.5337 128.1 91.3415 128.221 91.1715C128.341 91.0014 128.494 90.8567 128.67 90.7457C128.847 90.6347 129.043 90.5594 129.249 90.5243C129.454 90.4892 129.664 90.495 129.868 90.5411C130.071 90.5873 130.263 90.6731 130.433 90.7935C130.603 90.914 130.748 91.0667 130.859 91.2431C130.97 91.4194 131.045 91.6159 131.08 91.8213C131.115 92.0267 131.11 92.237 131.063 92.4403L131.061 92.4445Z" fill="#615FFF"/>
<path d="M132.533 97.7592C131.905 98.3697 128.979 99.0028 128.979 99.0028C128.979 99.0028 129.695 96.095 130.323 95.4859C130.473 95.3408 130.649 95.2265 130.843 95.1496C131.036 95.0727 131.243 95.0347 131.451 95.0377C131.659 95.0407 131.865 95.0847 132.056 95.1671C132.248 95.2496 132.421 95.3689 132.566 95.5183C132.711 95.6676 132.825 95.8441 132.902 96.0376C132.979 96.2311 133.017 96.4379 133.014 96.6461C133.011 96.8544 132.967 97.06 132.885 97.2512C132.802 97.4424 132.683 97.6155 132.533 97.7606V97.7592Z" fill="#615FFF"/>
<path d="M130.571 105.814C129.726 106.024 126.875 105.093 126.875 105.093C126.875 105.093 128.958 102.944 129.811 102.735C130.219 102.634 130.651 102.7 131.011 102.917C131.371 103.135 131.63 103.486 131.73 103.895C131.831 104.303 131.766 104.735 131.548 105.095C131.33 105.455 130.979 105.714 130.571 105.814Z" fill="#615FFF"/>
<path d="M127.712 111.575C126.908 111.925 123.947 111.488 123.947 111.488C123.947 111.488 125.635 109.017 126.443 108.674C126.634 108.586 126.842 108.537 127.053 108.53C127.263 108.523 127.474 108.558 127.671 108.633C127.868 108.708 128.048 108.822 128.2 108.967C128.353 109.113 128.475 109.288 128.559 109.481C128.644 109.674 128.688 109.883 128.691 110.094C128.694 110.305 128.654 110.514 128.575 110.71C128.496 110.905 128.379 111.083 128.23 111.232C128.081 111.382 127.904 111.5 127.709 111.581L127.712 111.575Z" fill="#615FFF"/>
<path d="M125.694 98.4288C126.17 99.1645 128.882 100.433 128.882 100.433C128.882 100.433 128.833 97.4399 128.356 96.7041C128.127 96.3512 127.768 96.1036 127.356 96.0157C126.945 95.9278 126.516 96.007 126.163 96.2357C125.81 96.4644 125.562 96.8239 125.474 97.2352C125.387 97.6465 125.466 98.0759 125.694 98.4288Z" fill="#615FFF"/>
<path d="M122.437 105.202C123.111 105.765 126.079 106.162 126.079 106.162C126.079 106.162 125.137 103.32 124.461 102.76C124.301 102.627 124.116 102.527 123.917 102.466C123.718 102.404 123.509 102.383 123.302 102.402C123.094 102.422 122.893 102.482 122.709 102.579C122.524 102.676 122.361 102.809 122.228 102.969C122.095 103.129 121.995 103.314 121.934 103.513C121.872 103.712 121.851 103.922 121.87 104.129C121.89 104.336 121.95 104.538 122.047 104.722C122.144 104.906 122.277 105.069 122.437 105.202Z" fill="#615FFF"/>
<path d="M120.176 112.226C120.746 112.892 123.603 113.788 123.603 113.788C123.603 113.788 123.155 110.834 122.583 110.163C122.31 109.843 121.92 109.646 121.501 109.613C121.081 109.581 120.666 109.717 120.347 109.991C120.027 110.265 119.83 110.654 119.798 111.074C119.765 111.493 119.901 111.908 120.175 112.228L120.176 112.226Z" fill="#615FFF"/>
<path opacity="0.5" d="M131.061 92.4445C130.865 93.2984 128.752 95.4198 128.752 95.4198C128.752 95.4198 127.767 92.5894 127.969 91.7369C128.015 91.5337 128.1 91.3415 128.221 91.1715C128.341 91.0014 128.494 90.8567 128.67 90.7457C128.847 90.6347 129.043 90.5594 129.249 90.5243C129.454 90.4892 129.664 90.495 129.868 90.5411C130.071 90.5873 130.263 90.6731 130.433 90.7935C130.603 90.914 130.748 91.0667 130.859 91.2431C130.97 91.4194 131.045 91.6159 131.08 91.8213C131.115 92.0267 131.11 92.237 131.063 92.4403L131.061 92.4445Z" fill="white"/>
<path opacity="0.5" d="M132.533 97.7592C131.905 98.3697 128.979 99.0028 128.979 99.0028C128.979 99.0028 129.695 96.095 130.323 95.4859C130.473 95.3408 130.649 95.2265 130.843 95.1496C131.036 95.0727 131.243 95.0347 131.451 95.0377C131.659 95.0407 131.865 95.0847 132.056 95.1671C132.248 95.2496 132.421 95.3689 132.566 95.5183C132.711 95.6676 132.825 95.8441 132.902 96.0376C132.979 96.2311 133.017 96.4379 133.014 96.6461C133.011 96.8544 132.967 97.06 132.885 97.2512C132.802 97.4424 132.683 97.6155 132.533 97.7606V97.7592Z" fill="white"/>
<path opacity="0.5" d="M130.571 105.814C129.726 106.024 126.875 105.093 126.875 105.093C126.875 105.093 128.958 102.944 129.811 102.735C130.219 102.634 130.651 102.7 131.011 102.917C131.371 103.135 131.63 103.486 131.73 103.895C131.831 104.303 131.766 104.735 131.548 105.095C131.33 105.455 130.979 105.714 130.571 105.814Z" fill="white"/>
<path opacity="0.5" d="M127.712 111.575C126.908 111.925 123.947 111.488 123.947 111.488C123.947 111.488 125.635 109.017 126.443 108.674C126.634 108.586 126.842 108.537 127.053 108.53C127.263 108.523 127.474 108.558 127.671 108.633C127.868 108.708 128.048 108.822 128.2 108.967C128.353 109.113 128.475 109.288 128.559 109.481C128.644 109.674 128.688 109.883 128.691 110.094C128.694 110.305 128.654 110.514 128.575 110.71C128.496 110.905 128.379 111.083 128.23 111.232C128.081 111.382 127.904 111.5 127.709 111.581L127.712 111.575Z" fill="white"/>
<path opacity="0.5" d="M125.694 98.4288C126.17 99.1645 128.882 100.433 128.882 100.433C128.882 100.433 128.833 97.4399 128.356 96.7041C128.127 96.3512 127.768 96.1036 127.356 96.0157C126.945 95.9278 126.516 96.007 126.163 96.2357C125.81 96.4644 125.562 96.8239 125.474 97.2352C125.387 97.6465 125.466 98.0759 125.694 98.4288Z" fill="white"/>
<path opacity="0.5" d="M122.437 105.202C123.111 105.765 126.079 106.162 126.079 106.162C126.079 106.162 125.137 103.32 124.461 102.76C124.301 102.627 124.116 102.527 123.917 102.466C123.718 102.404 123.509 102.383 123.302 102.402C123.094 102.422 122.893 102.482 122.709 102.579C122.524 102.676 122.361 102.809 122.228 102.969C122.095 103.129 121.995 103.314 121.934 103.513C121.872 103.712 121.851 103.922 121.87 104.129C121.89 104.336 121.95 104.538 122.047 104.722C122.144 104.906 122.277 105.069 122.437 105.202Z" fill="white"/>
<path opacity="0.5" d="M120.176 112.226C120.746 112.892 123.603 113.788 123.603 113.788C123.603 113.788 123.155 110.834 122.583 110.163C122.31 109.843 121.92 109.646 121.501 109.613C121.081 109.581 120.666 109.717 120.347 109.991C120.027 110.265 119.83 110.654 119.798 111.074C119.765 111.493 119.901 111.908 120.175 112.228L120.176 112.226Z" fill="white"/>
<g opacity="0.1">
<path d="M147.947 88.9123C147.93 88.8911 147.922 88.877 147.922 88.877L147.947 88.9123Z" fill="url(#paint0_linear_512_4949)"/>
</g>
<path d="M171.207 90.8324C171.181 91.7285 171.736 92.0647 171.736 92.0647L176.927 96.6619C178.93 97.3878 179.178 101.196 179.178 101.196C179.375 101.548 179.459 102.158 179.459 102.884C179.435 105.135 178.8 108.272 178.8 108.272L178.818 108.301L178.8 108.393L178.818 108.422L178.8 108.514C178.899 108.674 179.007 108.83 179.122 108.979C178.559 110.132 177.511 111.986 177.058 112.381C176.432 112.925 175.18 116.975 175.18 116.975L175.221 116.966L175.18 117.096H175.207C174.903 117.683 174.593 118.44 174.527 119.187C174.483 119.677 174.381 120.16 174.225 120.626C174.04 121.168 174.024 121.753 174.178 122.304C174.302 122.745 174.384 123.197 174.423 123.653C174.502 124.533 174.718 125.394 175.063 126.207C175.636 127.567 176.394 129.425 176.433 129.799C176.455 130.002 176.504 130.3 176.56 130.608L176.528 130.617L175.181 133.669C175.181 133.669 174.806 134.513 174.056 134.513C173.983 134.513 173.911 134.528 173.844 134.557C173.777 134.587 173.717 134.63 173.668 134.685C173.62 134.739 173.583 134.803 173.561 134.873C173.539 134.943 173.531 135.016 173.54 135.089C173.53 135.174 173.541 135.26 173.572 135.339V135.348C173.572 135.362 173.585 135.376 173.59 135.39L173.603 135.414C173.61 135.428 173.619 135.44 173.628 135.454L173.645 135.478L173.676 135.516L173.697 135.54L173.734 135.577L173.759 135.601L173.801 135.635L173.832 135.657L173.882 135.688L173.918 135.711L173.973 135.739L174.015 135.76L174.076 135.785L174.124 135.805L174.191 135.827L174.245 135.844L174.32 135.862L174.381 135.877L174.464 135.891L174.53 135.902L174.622 135.912L174.693 135.92H174.795H174.871H175.063H175.197H175.271C175.344 135.92 175.418 135.914 175.495 135.902C177.937 135.66 179.752 133.792 179.752 133.792V133.757V133.721V133.686L179.76 133.676C179.76 133.676 179.603 131.244 178.71 130.694C178.621 130.242 178.573 129.783 178.569 129.322C178.569 127.634 179.07 125.936 177.692 123.155C177.692 123.155 177.629 122.429 178.131 121.342C178.426 120.759 178.752 120.193 179.108 119.645L179.17 119.638L179.07 119.771C179.07 119.771 180.697 119.65 180.822 118.561C180.834 118.47 180.856 118.381 180.886 118.295C181.263 117.2 183.083 115.649 183.891 115.538C184.767 115.417 186.52 117.472 187.209 118.924C187.249 119.007 187.289 119.086 187.33 119.157C188.003 120.34 188.837 120.073 188.837 120.073C188.807 120.038 188.782 120.004 188.755 119.969C188.783 119.965 188.81 119.96 188.837 119.952C188.763 119.863 188.695 119.769 188.633 119.671C189.259 120.349 189.924 120.973 190.214 121.338C190.84 122.124 190.528 122.667 190.528 122.909C190.528 123.999 189.087 127.201 189.463 128.958C189.648 129.826 189.436 130.842 189.173 131.646H189.118C188.053 132.049 187.929 133.492 187.938 134.218C187.938 134.24 187.938 134.263 187.938 134.284C187.938 134.321 187.938 134.356 187.938 134.39V134.412C187.938 134.439 187.938 134.466 187.938 134.491V134.509C187.938 134.537 187.938 134.564 187.938 134.588C187.938 134.613 187.938 134.637 187.938 134.657V134.665V134.708V134.719V134.741V134.757C187.938 134.757 190.943 136.086 193.51 136.445C193.6 136.458 193.686 136.467 193.769 136.474H193.845L194.007 136.484H194.226H194.296C194.346 136.484 194.392 136.484 194.437 136.473H194.482C194.54 136.465 194.595 136.456 194.647 136.445L194.68 136.436C194.72 136.427 194.756 136.418 194.792 136.407L194.838 136.391L194.921 136.359L194.963 136.339C194.988 136.327 195.012 136.314 195.036 136.3L195.074 136.27C195.103 136.252 195.13 136.232 195.156 136.21C195.181 136.188 195.205 136.164 195.228 136.138L195.246 136.116C195.26 136.099 195.273 136.081 195.285 136.062L195.302 136.034C195.312 136.016 195.321 135.998 195.329 135.981L195.342 135.952C195.349 135.932 195.356 135.912 195.361 135.891V135.869C195.367 135.842 195.372 135.814 195.374 135.786C195.374 135.786 195.374 135.777 195.374 135.771C195.375 135.749 195.375 135.726 195.374 135.703C195.374 135.695 195.374 135.685 195.374 135.677C195.41 135.305 195.116 134.935 194.822 134.992C194.196 135.113 193.382 134.387 193.382 134.387L191.67 131.59C191.643 130.936 191.716 130.105 192.13 129.429C192.944 128.1 193.946 125.258 193.946 125.258C193.946 125.258 193.821 123.506 194.322 122.659C194.822 121.812 194.322 120.482 194.322 120.482L192.79 117.528C192.966 117.528 193.071 117.528 193.071 117.528L193.016 117.407H193.071C193.071 117.407 191.193 113.236 190.442 112.752C189.906 112.408 189.149 110.466 188.754 109.376C188.911 109.293 188.999 109.235 188.999 109.235C188.999 109.235 189.437 103.976 189.437 100.654C189.437 97.333 191.688 95.9994 191.688 95.9994L196.903 92.9129C198.28 92.3685 198.469 90.9787 198.469 90.9787L198.453 90.9393C198.465 90.8872 198.469 90.8577 198.469 90.8577L198.453 90.8183C198.465 90.7662 198.469 90.7367 198.469 90.7367L195.965 84.3289C195.965 84.3486 195.949 84.3655 195.942 84.3838C195.765 83.2795 195.218 81.5506 193.523 81.4296C191.019 81.2482 190.146 82.5185 190.643 82.6394C191.14 82.7604 193.272 83.6073 193.272 83.6073L194.116 84.9676C194.061 84.9493 194.03 84.9367 194.03 84.9367C194.078 84.9551 194.12 84.9856 194.153 85.0253L194.209 85.1153C194.099 85.0844 194.032 85.0576 194.032 85.0576C194.047 85.064 194.062 85.072 194.075 85.0816C194.088 85.0881 194.1 85.0957 194.111 85.1041C194.122 85.1142 194.133 85.125 194.143 85.1364C194.154 85.1476 194.165 85.1593 194.175 85.1716C194.187 85.1857 194.196 85.2011 194.208 85.2166L194.225 85.2419C194.16 85.2245 194.096 85.2039 194.033 85.18C194.689 85.391 194.963 89.3679 195.018 90.385L191.775 91.8297C191.775 91.8297 188.52 91.8297 187.143 92.6161C185.935 93.3054 185.352 92.7385 185.228 92.5894C185.313 92.6972 185.387 92.8013 185.452 92.9017L185.417 92.8778L185.385 92.8553L185.358 92.8342L185.328 92.8088L185.318 92.8004C185.034 92.2675 184.846 91.6883 184.764 91.0898C184.918 90.7233 184.993 90.3288 184.985 89.9315C184.978 89.5342 184.887 89.1429 184.719 88.7827C184.772 88.82 184.83 88.8498 184.891 88.8713C184.75 88.6079 184.655 88.3225 184.609 88.0273C184.579 87.6967 184.673 87.345 184.532 87.0426C184.517 87.0119 184.5 86.9823 184.481 86.9539C184.481 86.9441 184.481 86.9328 184.47 86.9216C184.33 86.6149 183.985 86.4461 183.767 86.1788C183.626 85.9988 183.546 85.7793 183.411 85.5936C183.24 85.3749 183.003 85.2167 182.735 85.1422C182.468 85.0678 182.183 85.0811 181.924 85.18C181.719 85.263 181.527 85.4023 181.305 85.4065C181.19 85.4009 181.076 85.3811 180.966 85.3474C180.277 85.2043 179.559 85.3387 178.968 85.7216C178.393 86.1018 177.938 86.6387 177.657 87.2691C177.506 87.5787 177.407 87.9115 177.365 88.2538C177.348 88.6125 177.354 88.9719 177.382 89.3299C177.394 89.9194 177.307 90.5383 177.559 91.0743C177.574 91.1081 177.594 91.1376 177.611 91.17C177.611 91.1784 177.611 91.1869 177.621 91.1953C177.86 91.7059 178.361 92.0393 178.84 92.3615L179.461 92.7709L179.531 92.8173C179.353 92.7995 179.175 92.7957 178.997 92.806C178.057 92.8665 176.183 91.962 176.183 91.962L174.228 90.1923L175.181 86.2787L175.145 86.3054L175.181 86.1577L175.145 86.1845L175.181 86.0367C175.163 86.0508 175.146 86.0635 175.128 86.0761L176.12 84.464C176.12 84.464 178.248 83.6199 178.749 83.4962C179.25 83.3724 178.373 82.1063 175.869 82.2863C174.026 82.42 173.54 84.4513 173.412 85.5219C173.303 85.4023 173.24 85.3151 173.24 85.3151L171.484 89.4678C171.301 89.8579 171.205 90.2832 171.203 90.7142C171.206 90.755 171.206 90.7958 171.207 90.8324ZM180.378 92.9594C180.517 92.913 180.642 92.8304 180.739 92.7202C180.897 92.7801 181.059 92.8271 181.223 92.8609C181.179 93.0146 181.116 93.1624 181.036 93.3012C181.012 93.2069 181.001 93.1493 181.001 93.1493C180.797 93.0741 180.589 93.0103 180.378 92.958V92.9594ZM179.319 119.28C179.459 119.053 179.6 118.832 179.741 118.624C179.62 118.846 179.459 119.088 179.319 119.28Z" fill="url(#paint1_linear_512_4949)"/>
<path d="M192.106 116.763L193.899 120.35C193.899 120.35 194.378 121.666 193.899 122.503C193.421 123.34 193.541 125.074 193.541 125.074C193.541 125.074 192.584 127.888 191.806 129.2C191.028 130.513 191.506 132.436 191.506 132.436L188.398 132.794C188.398 132.794 189.593 130.462 189.242 128.727C188.89 126.993 190.259 123.826 190.259 122.747C190.259 122.508 190.558 121.969 189.959 121.193C189.36 120.416 187.089 118.443 187.146 117.306L192.106 116.763Z" fill="#F7BBC3"/>
<path d="M176.259 115.926C176.259 115.926 175.111 117.516 174.977 119.063C174.937 119.546 174.843 120.023 174.696 120.485C174.519 121.022 174.504 121.599 174.651 122.145C174.769 122.582 174.847 123.029 174.884 123.48C174.958 124.35 175.164 125.204 175.495 126.012C176.042 127.359 176.761 129.196 176.803 129.566C176.864 130.164 177.162 131.599 177.162 131.599L179.553 132.496C179.553 132.496 178.836 130.762 178.836 129.088C178.836 127.413 179.314 125.739 177.992 122.988C177.992 122.988 177.931 122.27 178.414 121.194C178.896 120.118 180.746 117.307 180.746 117.307L176.259 115.926Z" fill="#F7BBC3"/>
<path opacity="0.1" d="M180.124 118.059C180.321 118.272 179.306 119.634 179.306 119.634C179.306 119.634 180.861 119.515 180.98 118.438C180.992 118.349 181.012 118.261 181.041 118.175C181.401 117.094 183.14 115.559 183.911 115.449C184.755 115.33 186.422 117.362 187.08 118.797C187.118 118.88 187.156 118.956 187.195 119.028C187.838 120.198 188.635 119.934 188.635 119.934C188.213 119.413 188.125 119.001 188.258 118.668C188.781 117.378 192.7 117.416 192.7 117.416C192.7 117.416 190.906 113.29 190.189 112.811C189.472 112.333 188.335 108.745 188.335 108.745C188.335 108.745 179.783 107.788 179.724 108.206C179.665 108.624 177.99 111.914 177.392 112.451C176.794 112.989 175.6 116.998 175.6 116.998C177.632 116.4 179.875 117.864 180.114 118.045L180.124 118.059Z" fill="black"/>
<path d="M180.123 117.939C180.32 118.153 179.306 119.515 179.306 119.515C179.306 119.515 180.86 119.395 180.98 118.319C180.991 118.229 181.011 118.141 181.04 118.056C181.401 116.974 183.139 115.439 183.91 115.33C184.754 115.21 186.421 117.243 187.08 118.678C187.118 118.761 187.156 118.837 187.195 118.908C187.838 120.079 188.634 119.814 188.634 119.814C188.212 119.294 188.125 118.882 188.257 118.548C188.78 117.258 192.7 117.296 192.7 117.296C192.7 117.296 190.906 113.17 190.188 112.692C189.471 112.214 188.334 108.625 188.334 108.625C188.334 108.625 179.783 107.668 179.724 108.086C179.665 108.504 177.989 111.794 177.391 112.332C176.793 112.869 175.598 116.877 175.598 116.877C177.63 116.279 179.873 117.743 180.112 117.924L180.123 117.939Z" fill="#565171"/>
<path opacity="0.1" d="M191.356 131.324L193.001 134.105C193.001 134.105 193.779 134.823 194.377 134.703C194.974 134.584 195.572 136.377 193.12 136.019C190.668 135.66 187.799 134.345 187.799 134.345C187.799 134.345 187.53 131.922 188.904 131.39L191.356 131.324Z" fill="black"/>
<path opacity="0.1" d="M176.885 130.362L175.599 133.382C175.599 133.382 175.24 134.226 174.523 134.226C173.805 134.226 173.566 135.722 175.899 135.483C178.231 135.244 179.965 133.389 179.965 133.389C179.965 133.389 179.785 130.52 178.709 130.34C178.106 130.225 177.485 130.232 176.885 130.362Z" fill="black"/>
<path d="M191.356 131.444L193.001 134.225C193.001 134.225 193.779 134.942 194.377 134.823C194.974 134.703 195.572 136.497 193.12 136.138C190.668 135.779 187.799 134.464 187.799 134.464C187.799 134.464 187.53 132.042 188.904 131.51L191.356 131.444Z" fill="#B77983"/>
<path d="M176.885 130.487L175.599 133.508C175.599 133.508 175.24 134.352 174.523 134.352C173.805 134.352 173.566 135.847 175.899 135.608C178.231 135.369 179.965 133.515 179.965 133.515C179.965 133.515 179.785 130.645 178.709 130.465C178.106 130.35 177.485 130.358 176.885 130.487Z" fill="#B77983"/>
<g opacity="0.1">
<path d="M180.021 108.093C179.961 108.515 178.287 111.801 177.689 112.339C177.14 112.833 176.087 116.252 175.918 116.807C175.81 116.828 175.703 116.852 175.596 116.883C175.596 116.883 176.791 112.876 177.389 112.337C177.987 111.799 179.661 108.51 179.722 108.092C179.733 108.009 180.083 107.979 180.633 107.988C180.262 107.995 180.033 108.026 180.021 108.093Z" fill="black"/>
<path d="M184.209 115.328C185.053 115.209 186.72 117.241 187.379 118.676C187.417 118.759 187.455 118.835 187.494 118.907C187.865 119.582 188.286 119.779 188.577 119.826C188.385 119.861 187.733 119.89 187.194 118.907C187.155 118.835 187.117 118.759 187.079 118.676C186.476 117.359 185.018 115.542 184.135 115.342L184.209 115.328Z" fill="black"/>
<path d="M180.122 117.939L180.112 117.929C179.919 117.789 178.424 116.804 176.785 116.743C178.537 116.683 180.206 117.776 180.412 117.929L180.422 117.939C180.595 118.128 179.832 119.205 179.645 119.458C179.533 119.484 179.42 119.502 179.306 119.513C179.306 119.513 180.319 118.153 180.122 117.939Z" fill="black"/>
</g>
<path d="M195.512 85.5486C195.512 85.5486 195.512 81.9009 193.12 81.7208C190.729 81.5408 189.885 82.797 190.37 82.9166C190.855 83.0362 192.881 83.8732 192.881 83.8732L194.196 86.086L195.512 85.5486Z" fill="#F7BBC3"/>
<path d="M173.865 86.3856C173.865 86.3856 173.865 82.7379 176.257 82.5578C178.648 82.3778 179.492 83.634 179.007 83.7536C178.522 83.8732 176.496 84.7102 176.496 84.7102L175.181 86.923L173.865 86.3856Z" fill="#F7BBC3"/>
<path d="M184.689 90.1529C184.689 90.1529 184.509 92.5444 186.005 93.9202C187.5 95.296 182.537 97.0291 182.537 97.0291L180.324 94.3985C180.324 94.3985 182.118 93.3223 181.168 91.4682L184.689 90.1529Z" fill="#F7BBC3"/>
<path opacity="0.1" d="M185.167 92.9636C185.167 92.9636 185.706 93.8076 187.021 93.0241C188.336 92.2405 191.447 92.2391 191.447 92.2391L194.556 90.8042C194.556 90.8042 194.316 85.6611 193.599 85.422C193.599 85.422 195.034 86.0199 195.453 84.8241L197.845 91.1629C197.845 91.1629 197.665 92.5387 196.349 93.0761L191.386 96.126C191.386 96.126 189.234 97.4413 189.234 100.73C189.234 104.019 188.812 109.221 188.812 109.221C188.812 109.221 181.875 113.408 179.064 108.504C179.064 108.504 180.201 102.704 179.423 101.268C179.423 101.268 179.184 97.5004 177.271 96.7829L172.311 92.2391C172.311 92.2391 171.354 91.6412 172.072 89.9067L173.746 85.7807C173.746 85.7807 174.763 87.2156 175.6 86.4982L174.643 90.5651L176.556 92.3587C176.556 92.3587 178.35 93.2562 179.247 93.2027C180.145 93.1493 181.161 93.5615 181.161 93.5615C181.161 93.5615 181.583 95.9529 183.493 95.7138C183.493 95.7138 187.141 95.5351 185.167 92.9636Z" fill="black"/>
<path opacity="0.1" d="M185.166 92.7244C185.166 92.7244 185.705 93.5685 187.02 92.7849C188.335 92.0013 191.446 92.007 191.446 92.007L194.555 90.5721C194.555 90.5721 194.315 85.429 193.598 85.1898C193.598 85.1898 195.033 85.7877 195.452 84.592L197.843 90.9308C197.843 90.9308 197.663 92.3066 196.348 92.844L191.385 95.8966C191.385 95.8966 189.233 97.2119 189.233 100.501C189.233 103.79 188.811 108.992 188.811 108.992C188.811 108.992 181.874 113.179 179.063 108.275C179.063 108.275 180.2 102.475 179.422 101.038C179.422 101.038 179.183 97.271 177.27 96.5536L172.307 92.0084C172.307 92.0084 171.35 91.4105 172.068 89.676L173.742 85.55C173.742 85.55 174.759 86.9849 175.596 86.2674L174.639 90.3343L176.552 92.1279C176.552 92.1279 178.346 93.0254 179.243 92.972C180.141 92.9185 181.157 93.3307 181.157 93.3307C181.157 93.3307 181.579 95.7222 183.489 95.483C183.492 95.4746 187.14 95.2959 185.166 92.7244Z" fill="black"/>
<path d="M172.31 92.1266L177.273 96.6718C179.186 97.3892 179.425 101.157 179.425 101.157C180.203 102.591 179.067 108.393 179.067 108.393C181.88 113.297 188.814 109.11 188.814 109.11C188.814 109.11 188.828 108.939 188.851 108.636C188.87 108.372 188.897 108.006 188.927 107.571C188.966 107.009 189.011 106.329 189.053 105.592C189.148 103.981 189.233 102.105 189.233 100.619C189.233 97.3302 191.386 96.0148 191.386 96.0148L195.109 93.7275L196.35 92.965C197.665 92.4262 197.845 91.0518 197.845 91.0518L195.454 84.713C195.063 85.83 193.784 85.3812 193.618 85.3179C194.322 85.6358 194.556 90.6931 194.556 90.6931L191.448 92.128C191.448 92.128 188.339 92.128 187.022 92.9059C185.897 93.5671 185.346 93.0607 185.206 92.8933C187.096 95.4254 183.494 95.5956 183.494 95.5956C181.581 95.8348 181.161 93.4433 181.161 93.4433C181.161 93.4433 180.144 93.0213 179.248 93.0846C178.352 93.1479 176.557 92.2405 176.557 92.2405L174.644 90.4469L175.601 86.38C174.756 87.0975 173.746 85.6626 173.746 85.6626L172.072 89.7886C171.354 91.5287 172.31 92.1266 172.31 92.1266Z" fill="#B45181"/>
<path opacity="0.1" d="M184.689 90.392C184.671 90.7681 184.691 91.1451 184.747 91.5174C184.487 92.1655 184.003 92.6993 183.384 93.0225C182.765 93.3457 182.051 93.437 181.371 93.2801C181.506 92.749 181.43 92.186 181.158 91.7102L184.689 90.392Z" fill="black"/>
<path d="M182.028 93.1141C183.646 93.1141 184.958 91.8022 184.958 90.1839C184.958 88.5655 183.646 87.2536 182.028 87.2536C180.41 87.2536 179.098 88.5655 179.098 90.1839C179.098 91.8022 180.41 93.1141 182.028 93.1141Z" fill="#F7BBC3"/>
<path opacity="0.1" d="M182.076 88.5168C182.101 88.8137 182.122 89.1302 181.986 89.3946C181.91 89.5276 181.815 89.6489 181.704 89.7548L181.091 90.3864C180.898 90.5563 180.748 90.77 180.654 91.0096C180.476 91.6004 181 92.187 180.983 92.8046C180.889 92.9516 180.75 93.0639 180.586 93.1244C180.423 93.1848 180.244 93.1901 180.077 93.1394C179.942 93.0876 179.814 93.0171 179.698 92.9298L179.098 92.5205C178.641 92.2082 178.162 91.8705 177.933 91.3669C177.692 90.8366 177.774 90.2232 177.763 89.6408C177.737 89.2865 177.731 88.9309 177.747 88.5759C177.787 88.2374 177.882 87.9076 178.029 87.5996C178.294 86.9836 178.728 86.4554 179.281 86.0761C179.557 85.8894 179.869 85.7604 180.197 85.6968C180.525 85.6332 180.862 85.6364 181.188 85.7061C181.293 85.7391 181.402 85.7585 181.512 85.7638C181.724 85.7638 181.907 85.6232 182.103 85.5402C182.351 85.443 182.625 85.4305 182.882 85.5044C183.138 85.5784 183.363 85.7348 183.522 85.9495C183.651 86.1324 183.726 86.3504 183.861 86.5277C184.062 86.7922 184.39 86.9596 184.526 87.262C184.663 87.5645 184.571 87.9105 184.601 88.2369C184.643 88.5286 184.733 88.8114 184.867 89.0739C184.535 88.9586 184.373 88.5956 184.163 88.3171C183.997 88.1104 183.789 87.9414 183.553 87.8216C183.316 87.7018 183.057 87.6338 182.792 87.6221C182.609 87.6137 182.27 87.5996 182.125 87.7389C181.941 87.9176 182.058 88.3002 182.076 88.5168Z" fill="black"/>
<path d="M182.015 88.3973C182.041 88.6941 182.062 89.0106 181.925 89.2751C181.849 89.408 181.755 89.5293 181.644 89.6352L181.022 90.2696C180.829 90.4384 180.679 90.6505 180.585 90.8886C180.407 91.4795 180.931 92.0661 180.914 92.6836C180.82 92.8307 180.681 92.943 180.517 93.0034C180.354 93.0639 180.175 93.0691 180.008 93.0184C179.873 92.9666 179.745 92.8961 179.629 92.8088L179.037 92.4051C178.58 92.0928 178.102 91.7552 177.872 91.2516C177.632 90.7212 177.713 90.1079 177.702 89.5255C177.676 89.1711 177.671 88.8155 177.687 88.4606C177.727 88.122 177.822 87.7923 177.968 87.4843C178.233 86.8683 178.667 86.34 179.22 85.9608C179.497 85.774 179.808 85.645 180.136 85.5814C180.464 85.5179 180.801 85.521 181.128 85.5908C181.233 85.6238 181.341 85.6431 181.451 85.6485C181.664 85.6485 181.847 85.5078 182.042 85.4248C182.291 85.3276 182.565 85.3151 182.821 85.3891C183.078 85.4631 183.303 85.6195 183.461 85.8342C183.591 86.017 183.665 86.2351 183.8 86.4123C184.002 86.6768 184.329 86.8442 184.466 87.1467C184.602 87.4491 184.511 87.7952 184.54 88.1215C184.583 88.4133 184.672 88.696 184.806 88.9586C184.474 88.8432 184.313 88.4803 184.103 88.2017C183.937 87.995 183.729 87.8261 183.492 87.7062C183.256 87.5864 182.996 87.5184 182.731 87.5068C182.548 87.4983 182.209 87.4843 182.065 87.6235C181.879 87.798 181.991 88.1792 182.015 88.3973Z" fill="#74585E"/>
<g opacity="0.1">
<path d="M185.191 92.8779C185.174 92.8567 185.166 92.844 185.166 92.844L185.191 92.8779Z" fill="black"/>
<path d="M175.066 86.5854C175.263 86.5894 175.454 86.5179 175.6 86.3856L175.542 86.6276C175.383 86.6596 175.218 86.6449 175.066 86.5854Z" fill="black"/>
<path d="M185.669 93.1873C187.167 95.4873 183.793 95.6547 183.793 95.6547C183.536 95.6902 183.275 95.6715 183.025 95.5998C183.181 95.6182 183.338 95.6182 183.494 95.5998C183.494 95.5998 187.109 95.4212 185.193 92.882C185.318 93.0285 185.483 93.1347 185.669 93.1873Z" fill="black"/>
<path d="M179.547 93.1436C179.304 93.1498 179.062 93.1209 178.828 93.0578C178.967 93.082 179.109 93.091 179.25 93.0846C179.623 93.0688 179.995 93.1062 180.357 93.1957C180.09 93.1471 179.818 93.1296 179.547 93.1436Z" fill="black"/>
<path d="M172.072 89.7942L173.746 85.6682C173.813 85.7598 173.885 85.8477 173.962 85.9312L172.371 89.8476C171.654 91.5822 172.61 92.18 172.61 92.18L177.573 96.7252C179.486 97.4427 179.726 101.21 179.726 101.21C180.504 102.645 179.367 108.446 179.367 108.446C180.121 109.762 181.172 110.416 182.307 110.686C181.059 110.473 179.889 109.816 179.071 108.386C179.071 108.386 180.208 102.586 179.43 101.149C179.43 101.149 179.191 97.3822 177.278 96.6648L172.311 92.1266C172.311 92.1266 171.354 91.5287 172.072 89.7942Z" fill="black"/>
<path d="M193.599 85.3094C193.721 85.3567 193.848 85.3929 193.977 85.4177C194.633 85.9931 194.853 90.7507 194.853 90.7507L191.745 92.1856C191.745 92.1856 188.636 92.1856 187.319 92.9635C186.675 93.3448 186.217 93.3377 185.912 93.2322C186.193 93.2491 186.555 93.1746 187.014 92.9045C188.329 92.1265 191.439 92.1265 191.439 92.1265L194.548 90.6916C194.548 90.6916 194.316 85.5486 193.599 85.3094Z" fill="black"/>
<path d="M194.121 85.4417C194.575 85.5008 195.2 85.4346 195.453 84.7116L195.594 85.0844C195.201 85.6414 194.484 85.5387 194.121 85.4417Z" fill="black"/>
</g>
<path opacity="0.1" d="M189.054 105.591C189.148 103.98 189.234 102.103 189.234 100.618C189.234 97.3287 191.386 96.0134 191.386 96.0134L195.11 93.726C192.943 94.2887 190.061 95.258 189.802 96.3989C189.38 98.253 188.606 98.4316 188.905 101.604C189.028 102.929 189.078 104.26 189.054 105.591Z" fill="black"/>
<path opacity="0.1" d="M188.485 110.156C188.485 110.156 187.946 111.83 189.442 112.906L188.485 110.156Z" fill="black"/>
<path opacity="0.1" d="M180.114 110.156C180.114 110.156 179.934 111.412 179.217 111.89L180.114 110.156Z" fill="black"/>
<path opacity="0.1" d="M187.799 134.225C187.799 134.225 190.669 135.54 193.121 135.899C194.364 136.08 194.823 135.709 194.894 135.315C194.976 135.775 194.613 136.358 193.121 136.138C190.669 135.779 187.799 134.464 187.799 134.464C187.78 134.265 187.774 134.066 187.779 133.866C187.783 134.084 187.799 134.225 187.799 134.225Z" fill="black"/>
<path opacity="0.1" d="M175.838 135.48C178.171 135.241 179.905 133.387 179.905 133.387C179.905 133.387 179.816 131.971 179.392 131.067C179.868 131.96 179.966 133.506 179.966 133.506C179.966 133.506 178.231 135.36 175.899 135.599C174.707 135.722 174.187 135.391 174.059 135.037C174.254 135.342 174.783 135.588 175.838 135.48Z" fill="black"/>
<path d="M178.645 74.1638C178.644 75.4135 179.087 76.6228 179.895 77.5762C180.703 78.5297 181.823 79.1653 183.056 79.37C184.289 79.5746 185.554 79.3349 186.627 78.6935C187.7 78.0522 188.51 77.0509 188.913 75.868C189.316 74.6852 189.286 73.3975 188.829 72.2346C188.371 71.0716 187.516 70.1089 186.415 69.5178C185.314 68.9267 184.039 68.7458 182.816 69.0072C181.594 69.2686 180.505 69.9554 179.742 70.9451C179.031 71.8675 178.645 72.9992 178.645 74.1638Z" fill="url(#paint2_linear_512_4949)"/>
<path d="M178.84 74.1638C178.838 75.3681 179.264 76.5339 180.042 77.4534C180.82 78.3729 181.899 78.9864 183.087 79.1844C184.275 79.3825 185.494 79.1523 186.528 78.5348C187.562 77.9173 188.343 76.9528 188.732 75.813C189.122 74.6733 189.093 73.4324 188.653 72.3115C188.212 71.1907 187.388 70.2627 186.327 69.693C185.266 69.1234 184.037 68.949 182.859 69.2009C181.681 69.4529 180.631 70.1149 179.896 71.0689C179.213 71.9559 178.841 73.0439 178.84 74.1638Z" fill="#E0E0E0"/>
<path d="M181.072 71.6668V73.6391" stroke="#535461" stroke-width="0.140675" stroke-miterlimit="10"/>
<path d="M184.839 73.4632L182.781 74.8221" stroke="#535461" stroke-width="0.140675" stroke-miterlimit="10"/>
<path d="M182.781 70.4415L185.191 71.4487" stroke="#535461" stroke-width="0.140675" stroke-miterlimit="10"/>
<path d="M186.812 73.8135L186.68 76.8802" stroke="#535461" stroke-width="0.140675" stroke-miterlimit="10"/>
<path d="M185.191 77.8002L182.475 76.4427" stroke="#535461" stroke-width="0.140675" stroke-miterlimit="10"/>
<path d="M181.072 76.6621V78.3742" stroke="#535461" stroke-width="0.140675" stroke-miterlimit="10"/>
<path d="M180.065 75.3468L178.881 74.8221" stroke="#535461" stroke-width="0.140675" stroke-miterlimit="10"/>
<path d="M186.68 71.2729L186.59 69.8394" stroke="#535461" stroke-width="0.140675" stroke-miterlimit="10"/>
<path d="M187.469 72.9385L188.937 73.3577" stroke="#535461" stroke-width="0.140675" stroke-miterlimit="10"/>
<path d="M187.863 72.9385L186.725 70.9662L184.842 71.2729V73.4632L186.856 74.5155L187.863 72.9385Z" fill="#615FFF"/>
<path d="M179.895 71.0633L181.073 71.6668C181.467 71.1406 183.088 70.5273 183.088 70.5273L182.919 69.181C181.717 69.4224 180.642 70.091 179.895 71.0633Z" fill="#615FFF"/>
<path d="M183.088 74.6027L181.028 73.639L179.889 75.2596L181.072 77.1433L183.088 76.8366V74.6027Z" fill="#615FFF"/>
<path d="M184.84 77.5372V79.1563C185.5 79.0349 186.129 78.7841 186.691 78.4183C187.253 78.0525 187.738 77.579 188.116 77.0251L186.68 76.4357L184.84 77.5372Z" fill="#615FFF"/>
<path d="M109.445 111.527C109.445 112.576 109.818 113.59 110.496 114.39C111.174 115.189 112.114 115.722 113.148 115.893C114.183 116.064 115.244 115.863 116.144 115.324C117.044 114.786 117.723 113.945 118.061 112.953C118.398 111.96 118.373 110.88 117.988 109.904C117.604 108.929 116.886 108.122 115.962 107.626C115.037 107.131 113.967 106.98 112.942 107.2C111.917 107.42 111.003 107.997 110.364 108.828C109.768 109.601 109.445 110.55 109.445 111.527Z" fill="url(#paint3_linear_512_4949)"/>
<path d="M109.609 111.527C109.61 112.537 109.968 113.514 110.622 114.284C111.275 115.054 112.18 115.567 113.177 115.731C114.173 115.896 115.195 115.702 116.062 115.183C116.928 114.664 117.582 113.855 117.907 112.899C118.232 111.943 118.208 110.902 117.837 109.963C117.467 109.024 116.775 108.246 115.885 107.769C114.995 107.292 113.965 107.147 112.977 107.358C111.99 107.57 111.11 108.126 110.494 108.926C109.92 109.672 109.609 110.586 109.609 111.527Z" fill="#E0E0E0"/>
<path d="M111.482 109.432V111.087" stroke="#535461" stroke-width="0.140675" stroke-miterlimit="10"/>
<path d="M114.644 110.939L112.916 112.078" stroke="#535461" stroke-width="0.140675" stroke-miterlimit="10"/>
<path d="M112.916 108.404L114.938 109.25" stroke="#535461" stroke-width="0.140675" stroke-miterlimit="10"/>
<path d="M116.295 111.233L116.186 113.806" stroke="#535461" stroke-width="0.140675" stroke-miterlimit="10"/>
<path d="M114.935 114.577L112.656 113.437" stroke="#535461" stroke-width="0.140675" stroke-miterlimit="10"/>
<path d="M111.482 113.622V115.058" stroke="#535461" stroke-width="0.140675" stroke-miterlimit="10"/>
<path d="M110.638 112.519L109.645 112.079" stroke="#535461" stroke-width="0.140675" stroke-miterlimit="10"/>
<path d="M116.185 109.102L116.109 107.9" stroke="#535461" stroke-width="0.140675" stroke-miterlimit="10"/>
<path d="M116.848 110.499L118.08 110.85" stroke="#535461" stroke-width="0.140675" stroke-miterlimit="10"/>
<path d="M117.178 110.499L116.222 108.846L114.643 109.102V110.939L116.332 111.821L117.178 110.499Z" fill="#615FFF"/>
<path d="M110.492 108.926L111.477 109.432C111.807 108.992 113.165 108.477 113.165 108.477L113.024 107.352C112.018 107.554 111.119 108.113 110.492 108.926Z" fill="#615FFF"/>
<path d="M113.173 111.894L111.447 111.087L110.49 112.446L111.483 114.025L113.173 113.768V111.894Z" fill="#615FFF"/>
<path d="M114.643 114.356V115.719C115.196 115.617 115.724 115.407 116.195 115.1C116.667 114.793 117.073 114.396 117.39 113.931L116.186 113.437L114.643 114.356Z" fill="#615FFF"/>
<path d="M106.197 116.846C106.197 117.894 106.57 118.909 107.248 119.709C107.926 120.508 108.866 121.041 109.9 121.212C110.935 121.383 111.996 121.182 112.896 120.643C113.796 120.105 114.475 119.264 114.813 118.272C115.15 117.279 115.125 116.199 114.74 115.223C114.356 114.248 113.638 113.44 112.714 112.945C111.789 112.45 110.719 112.299 109.694 112.519C108.669 112.739 107.755 113.316 107.116 114.146C106.52 114.92 106.197 115.869 106.197 116.846Z" fill="url(#paint4_linear_512_4949)"/>
<path d="M106.359 116.846C106.36 117.856 106.718 118.833 107.372 119.603C108.025 120.373 108.93 120.886 109.927 121.05C110.923 121.215 111.945 121.021 112.812 120.502C113.678 119.983 114.332 119.174 114.657 118.218C114.982 117.262 114.958 116.221 114.587 115.282C114.217 114.343 113.525 113.565 112.635 113.088C111.745 112.611 110.715 112.466 109.727 112.677C108.74 112.889 107.86 113.445 107.244 114.245C106.67 114.991 106.359 115.905 106.359 116.846Z" fill="#E0E0E0"/>
<path d="M108.232 114.751V116.404" stroke="#535461" stroke-width="0.140675" stroke-miterlimit="10"/>
<path d="M111.392 116.258L109.666 117.397" stroke="#535461" stroke-width="0.140675" stroke-miterlimit="10"/>
<path d="M109.666 113.723L111.686 114.568" stroke="#535461" stroke-width="0.140675" stroke-miterlimit="10"/>
<path d="M113.045 116.552L112.936 119.124" stroke="#535461" stroke-width="0.140675" stroke-miterlimit="10"/>
<path d="M111.688 119.896L109.41 118.756" stroke="#535461" stroke-width="0.140675" stroke-miterlimit="10"/>
<path d="M108.232 118.941V120.377" stroke="#535461" stroke-width="0.140675" stroke-miterlimit="10"/>
<path d="M107.388 117.838L106.395 117.397" stroke="#535461" stroke-width="0.140675" stroke-miterlimit="10"/>
<path d="M112.935 114.421L112.859 113.219" stroke="#535461" stroke-width="0.140675" stroke-miterlimit="10"/>
<path d="M113.598 115.818L114.83 116.169" stroke="#535461" stroke-width="0.140675" stroke-miterlimit="10"/>
<path d="M113.928 115.818L112.972 114.163L111.393 114.421V116.258L113.083 117.14L113.928 115.818Z" fill="#615FFF"/>
<path d="M107.244 114.245L108.229 114.751C108.559 114.311 109.917 113.796 109.917 113.796L109.776 112.671C108.77 112.873 107.871 113.432 107.244 114.245Z" fill="#615FFF"/>
<path d="M109.923 117.213L108.197 116.404L107.242 117.765L108.234 119.344L109.923 119.087V117.213Z" fill="#615FFF"/>
<path d="M111.393 119.671V121.034C111.946 120.932 112.473 120.722 112.945 120.416C113.416 120.11 113.822 119.713 114.14 119.249L112.936 118.755L111.393 119.671Z" fill="#615FFF"/>
</g>
<defs>
<linearGradient id="paint0_linear_512_4949" x1="147.929" y1="88.9123" x2="147.929" y2="88.877" gradientUnits="userSpaceOnUse">
<stop stop-color="#808080" stop-opacity="0.25"/>
<stop offset="0.54" stop-color="#808080" stop-opacity="0.12"/>
<stop offset="1" stop-color="#808080" stop-opacity="0.1"/>
</linearGradient>
<linearGradient id="paint1_linear_512_4949" x1="184.837" y1="136.488" x2="184.837" y2="81.4085" gradientUnits="userSpaceOnUse">
<stop stop-color="#808080" stop-opacity="0.25"/>
<stop offset="0.54" stop-color="#808080" stop-opacity="0.12"/>
<stop offset="1" stop-color="#808080" stop-opacity="0.1"/>
</linearGradient>
<linearGradient id="paint2_linear_512_4949" x1="183.92" y1="79.4391" x2="183.92" y2="68.8885" gradientUnits="userSpaceOnUse">
<stop stop-color="#808080" stop-opacity="0.25"/>
<stop offset="0.54" stop-color="#808080" stop-opacity="0.12"/>
<stop offset="1" stop-color="#808080" stop-opacity="0.1"/>
</linearGradient>
<linearGradient id="paint3_linear_512_4949" x1="113.87" y1="115.951" x2="113.87" y2="107.103" gradientUnits="userSpaceOnUse">
<stop stop-color="#808080" stop-opacity="0.25"/>
<stop offset="0.54" stop-color="#808080" stop-opacity="0.12"/>
<stop offset="1" stop-color="#808080" stop-opacity="0.1"/>
</linearGradient>
<linearGradient id="paint4_linear_512_4949" x1="110.623" y1="121.27" x2="110.623" y2="112.422" gradientUnits="userSpaceOnUse">
<stop stop-color="#808080" stop-opacity="0.25"/>
<stop offset="0.54" stop-color="#808080" stop-opacity="0.12"/>
<stop offset="1" stop-color="#808080" stop-opacity="0.1"/>
</linearGradient>
<clipPath id="clip0_512_4949">
<rect width="163.761" height="112.385" fill="white" transform="translate(93.1191 48.5665)"/>
</clipPath>
</defs>
</svg>