<svg width="872" height="521" viewBox="0 0 872 521" fill="none" xmlns="http://www.w3.org/2000/svg">
                <path
                  d="M156 397V343.8H17.2V305.4L149.2 117H203.6V301.8H241.6V343.8H203.6V397H156ZM68.8 301.8H158.8V169.8L68.8 301.8Z"
                  fill="#18181B" />
                <path
                  d="M436 401.8C410.667 401.8 388.933 395.8 370.8 383.8C352.667 371.533 338.667 354.6 328.8 333C319.2 311.133 314.4 285.8 314.4 257C314.4 228.2 319.2 203 328.8 181.4C338.667 159.533 352.667 142.6 370.8 130.6C388.933 118.333 410.667 112.2 436 112.2C461.067 112.2 482.533 118.333 500.4 130.6C518.533 142.6 532.4 159.533 542 181.4C551.867 203 556.8 228.2 556.8 257C556.8 285.8 551.867 311.133 542 333C532.4 354.6 518.533 371.533 500.4 383.8C482.533 395.8 461.067 401.8 436 401.8ZM435.6 358.6C449.733 358.6 462.267 354.6 473.2 346.6C484.133 338.333 492.533 326.6 498.4 311.4C504.533 296.2 507.6 278.067 507.6 257C507.6 235.933 504.533 217.8 498.4 202.6C492.533 187.4 484.133 175.8 473.2 167.8C462.267 159.533 449.733 155.4 435.6 155.4C421.467 155.4 408.933 159.533 398 167.8C387.067 175.8 378.533 187.4 372.4 202.6C366.533 217.8 363.6 235.933 363.6 257C363.6 278.067 366.533 296.2 372.4 311.4C378.533 326.6 387.067 338.333 398 346.6C408.933 354.6 421.467 358.6 435.6 358.6Z"
                  fill="#F4F4F5" />
                <path
                  d="M772 397V343.8H633.2V305.4L765.2 117H819.6V301.8H857.6V343.8H819.6V397H772ZM684.8 301.8H774.8V169.8L684.8 301.8Z"
                  fill="#18181B" />
                <path
                  d="M324.685 118.862C334.928 118.121 345.223 118.518 355.379 120.047L355.378 120.048C362.131 121.06 368.798 122.575 375.323 124.583L376.627 124.991C377.517 125.275 378.41 125.573 379.305 125.883C384.049 127.522 388.849 129.49 393.623 131.437C397.822 133.148 402.01 134.848 406.225 136.344L408.032 136.972L408.038 136.974C416.983 140.037 425.831 141.974 434.633 141.058L435.341 140.982L438.184 140.651C445.218 139.811 454.89 138.626 463.578 139.58L464.328 139.668C472.075 140.635 479.677 143.454 483.655 150.53L483.89 150.966C485.011 153.154 485.369 155.473 485.555 157.551C485.77 159.955 485.758 161.759 486.1 163.72L486.21 164.289C487.447 170.133 491.811 174.848 497.636 178.223C500.485 179.858 503.518 181.147 506.672 182.062L507.305 182.241L507.312 182.243C512.387 183.645 517.613 184.397 523.068 185.342C528.448 186.273 533.981 187.384 539.273 189.523H539.274C542.043 190.644 545.23 192.266 547.386 195.128H547.385C549.892 198.455 550.319 202.335 550.182 205.915C550.113 207.71 549.896 209.524 549.682 211.232C549.463 212.976 549.249 214.596 549.145 216.162C548.924 219.805 549.344 223.456 550.383 226.951L550.6 227.649L550.605 227.667C553.561 237.056 560.561 245.563 568.849 251.727H568.848C580.609 260.459 594.431 265.401 608.2 272.167C611.522 273.799 615.142 275.832 618.122 278.461C621.116 281.103 623.603 284.473 624.374 288.778L624.479 289.443C625.417 296.274 621.749 301.711 617.75 306.319C615.733 308.643 613.261 311.152 611.26 313.363C609.153 315.691 607.296 317.969 605.954 320.352V320.353C603.085 325.448 602.491 331.26 602.896 337.608C603.286 343.716 604.516 349.672 605.366 356.007L605.53 357.279L605.531 357.281C605.964 360.79 606.282 365.08 604.586 368.985L604.584 368.989C602.607 373.521 598.416 376.391 594.881 378.466L594.875 378.469C584.261 384.666 572.405 388.432 560.161 389.497L560.158 389.498C554.688 389.969 549.187 389.892 543.877 389.882C538.852 389.872 533.966 389.922 529.156 390.498L528.195 390.62C517.401 392.077 506.932 396.265 495.816 399.577C484.911 402.826 473.592 405.131 462.12 402.027C453.147 399.6 445.495 394.104 438.283 389.094C431.151 384.139 424.414 379.63 416.713 377.836L415.965 377.671C408.465 376.111 400.654 377.294 392.279 378.371C384.353 379.391 375.935 380.307 367.799 377.888L367.013 377.644C351.284 372.534 342.372 356.348 338.537 341.309C336.619 333.785 335.557 326.037 334.36 318.582C333.153 311.063 331.802 303.775 329.321 296.836L328.966 295.865C321.357 275.553 304.549 259.708 286.255 246.929C278.973 241.847 270.818 236.436 263.795 230.288L263.792 230.286C254.501 222.132 246.765 212.371 245.476 199.637L245.417 199.005C245.153 195.846 245.31 192.706 245.489 189.732C245.685 186.499 245.904 183.487 245.757 180.515L245.756 180.504V180.492C245.702 179.163 245.551 177.839 245.304 176.531L245.206 176.062C244.147 171.233 241.623 166.798 238.932 161.904C236.234 156.999 233.372 151.634 232.655 145.544V145.542C232.318 142.66 232.472 139.491 233.69 136.549L233.691 136.548C235.89 131.248 240.977 128.013 245.836 126.433L245.84 126.432C251.215 124.693 256.709 124.572 262.017 124.862C264.666 125.007 267.34 125.261 269.925 125.481C272.521 125.703 275.054 125.894 277.554 125.938H279.436C286.785 125.821 293.955 124.161 301.467 122.498L304.715 121.788C306.206 121.464 307.699 121.16 309.195 120.876H309.197C314.317 119.909 319.488 119.238 324.685 118.863V118.862Z"
                  fill="#615FFF" stroke="#F4F4F5" stroke-width="5" />
                <g clip-path="url(#clip0_512_4550)">
                  <path
                    d="M235.138 145.25C236.442 156.328 245.586 165.101 247.756 176.043C248.028 177.478 248.194 178.93 248.253 180.389C248.565 186.673 247.321 193.087 247.963 199.382C249.158 211.186 256.332 220.41 265.441 228.405C272.332 234.437 280.33 239.743 287.686 244.878C306.416 257.961 323.982 274.479 331.675 295.992C336.803 310.337 337.195 325.927 340.959 340.689C344.724 355.451 353.296 370.557 367.785 375.264C383.336 380.318 400.471 371.892 416.474 375.222C433.648 378.797 445.827 395.028 462.773 399.612C484.303 405.437 505.76 391.123 527.861 388.141C538.474 386.707 549.275 387.923 559.944 387.005C571.82 385.972 583.32 382.319 593.615 376.308C597.12 374.251 600.663 371.724 602.293 367.988C603.695 364.76 603.481 361.08 603.05 357.586C601.438 344.618 597.358 330.521 603.775 319.124C609.695 308.609 624.04 301.088 621.913 289.217C620.634 282.071 613.61 277.609 607.098 274.409C593.667 267.81 579.361 262.644 567.357 253.731C558.77 247.345 551.375 238.436 548.22 228.416C546.927 224.409 546.395 220.196 546.65 215.994C547.092 209.37 549.384 201.933 545.389 196.63C543.657 194.331 541.004 192.919 538.337 191.839C528.278 187.774 517.105 187.539 506.646 184.651C503.061 183.672 499.614 182.24 496.391 180.389C490.012 176.695 484.878 171.252 483.637 164.148C482.912 159.984 483.557 155.438 481.478 151.758C477.973 145.52 471.044 142.912 463.306 142.064C453.727 141.012 442.88 142.656 435.618 143.466L434.892 143.543C425.566 144.514 416.317 142.449 407.229 139.337C397.415 136.004 387.822 131.469 378.489 128.244C377.613 127.941 376.739 127.65 375.867 127.372C369.054 125.2 362.079 123.577 355.007 122.517C345.034 121.016 334.925 120.626 324.865 121.354C319.764 121.721 314.687 122.381 309.661 123.331C308.185 123.611 306.71 123.911 305.238 124.231C296.68 126.064 288.166 128.304 279.436 128.437C278.808 128.437 278.178 128.437 277.55 128.437C267.137 128.258 256.49 125.612 246.61 128.809C242.117 130.27 237.809 133.144 236.001 137.504C234.995 139.933 234.834 142.642 235.138 145.25Z"
                    fill="#615FFF" />
                  <path opacity="0.2"
                    d="M247.902 180.389H256.899C257.033 178.063 257.846 175.827 259.238 173.958C260.63 172.09 262.539 170.67 264.729 169.875C263.094 168.975 261.805 167.556 261.064 165.843C260.324 164.13 260.174 162.219 260.639 160.412C261.104 158.604 262.156 157.003 263.631 155.859C265.106 154.715 266.919 154.095 268.786 154.095C270.652 154.095 272.465 154.715 273.94 155.859C275.415 157.003 276.468 158.604 276.932 160.412C277.397 162.219 277.247 164.13 276.507 165.843C275.766 167.556 274.477 168.975 272.842 169.875C275.033 170.67 276.941 172.09 278.333 173.958C279.725 175.827 280.538 178.063 280.672 180.389H280.749C280.947 178.127 281.787 175.969 283.171 174.168C284.554 172.367 286.423 170.999 288.558 170.225C287.316 169.541 286.266 168.554 285.507 167.356C284.749 166.157 284.305 164.787 284.219 163.371C284.132 161.955 284.405 160.541 285.011 159.259C285.618 157.977 286.539 156.869 287.688 156.038C288.838 155.208 290.179 154.681 291.587 154.508C292.995 154.335 294.423 154.52 295.74 155.047C297.057 155.574 298.219 156.425 299.118 157.522C300.018 158.619 300.625 159.925 300.884 161.319C301.915 160.478 303.08 159.816 304.33 159.36C302.695 158.46 301.406 157.042 300.665 155.329C299.925 153.616 299.775 151.705 300.24 149.897C300.705 148.09 301.757 146.488 303.232 145.344C304.707 144.201 306.52 143.58 308.387 143.58C310.253 143.58 312.066 144.201 313.541 145.344C315.016 146.488 316.069 148.09 316.533 149.897C316.998 151.705 316.848 153.616 316.108 155.329C315.367 157.042 314.078 158.46 312.443 159.36C314.747 160.195 316.738 161.72 318.144 163.727C319.55 165.733 320.304 168.125 320.301 170.576V180.389H324.156V172.679C324.154 170.228 324.907 167.836 326.313 165.829C327.72 163.822 329.71 162.298 332.014 161.463C330.379 160.563 329.09 159.145 328.35 157.432C327.609 155.718 327.46 153.808 327.924 152C328.389 150.193 329.442 148.591 330.917 147.447C332.391 146.304 334.205 145.683 336.071 145.683C337.937 145.683 339.751 146.304 341.226 147.447C342.7 148.591 343.753 150.193 344.218 152C344.682 153.808 344.533 155.718 343.792 157.432C343.052 159.145 341.763 160.563 340.128 161.463C341.651 162.018 343.046 162.877 344.227 163.988C345.408 165.099 346.351 166.439 346.997 167.926C348.407 165.922 350.399 164.4 352.703 163.566C351.068 162.666 349.779 161.248 349.039 159.535C348.298 157.821 348.149 155.911 348.613 154.103C349.078 152.296 350.131 150.694 351.606 149.55C353.08 148.407 354.894 147.786 356.76 147.786C358.626 147.786 360.44 148.407 361.915 149.55C363.389 150.694 364.442 152.296 364.907 154.103C365.371 155.911 365.222 157.821 364.481 159.535C363.741 161.248 362.452 162.666 360.817 163.566C363.357 164.49 365.51 166.248 366.922 168.553V167.071C366.92 164.62 367.673 162.229 369.079 160.222C370.485 158.215 372.476 156.69 374.78 155.855C373.145 154.955 371.856 153.537 371.116 151.824C370.375 150.111 370.226 148.2 370.69 146.392C371.155 144.585 372.208 142.983 373.682 141.84C375.157 140.696 376.971 140.075 378.837 140.075C380.703 140.075 382.517 140.696 383.991 141.84C385.466 142.983 386.519 144.585 386.984 146.392C387.448 148.2 387.299 150.111 386.558 151.824C385.818 153.537 384.529 154.955 382.894 155.855C385.198 156.69 387.188 158.215 388.595 160.222C390.001 162.229 390.754 164.62 390.752 167.071V180.389H394.957C395.613 178.938 396.551 177.632 397.718 176.549C398.885 175.465 400.257 174.626 401.753 174.081C400.118 173.18 398.829 171.762 398.089 170.049C397.348 168.336 397.199 166.425 397.663 164.618C398.128 162.81 399.181 161.208 400.656 160.065C402.13 158.921 403.944 158.3 405.81 158.3C407.676 158.3 409.49 158.921 410.964 160.065C412.439 161.208 413.492 162.81 413.957 164.618C414.421 166.425 414.272 168.336 413.531 170.049C412.791 171.762 411.502 173.18 409.867 174.081C410.698 174.382 411.493 174.776 412.236 175.255C412.532 173.101 413.412 171.069 414.779 169.38C416.147 167.69 417.951 166.407 419.996 165.669C418.361 164.769 417.072 163.351 416.331 161.637C415.591 159.924 415.441 158.013 415.906 156.206C416.371 154.398 417.423 152.797 418.898 151.653C420.373 150.509 422.186 149.889 424.053 149.889C425.919 149.889 427.732 150.509 429.207 151.653C430.682 152.797 431.735 154.398 432.199 156.206C432.664 158.013 432.514 159.924 431.774 161.637C431.033 163.351 429.744 164.769 428.109 165.669C429.865 166.31 431.446 167.355 432.724 168.718C434.002 170.082 434.943 171.726 435.47 173.52C436.785 172.036 438.45 170.903 440.313 170.225C438.678 169.325 437.389 167.907 436.649 166.194C435.908 164.48 435.759 162.57 436.223 160.762C436.688 158.955 437.741 157.353 439.216 156.209C440.69 155.066 442.504 154.445 444.37 154.445C446.236 154.445 448.05 155.066 449.524 156.209C450.999 157.353 452.052 158.955 452.517 160.762C452.981 162.57 452.832 164.48 452.091 166.194C451.351 167.907 450.062 169.325 448.427 170.225C449.713 170.694 450.908 171.382 451.96 172.258C452.6 170.741 453.547 169.372 454.741 168.239C455.935 167.105 457.351 166.23 458.899 165.669C457.264 164.769 455.975 163.351 455.235 161.637C454.494 159.924 454.345 158.013 454.809 156.206C455.274 154.398 456.327 152.797 457.802 151.653C459.276 150.509 461.09 149.889 462.956 149.889C464.822 149.889 466.636 150.509 468.111 151.653C469.585 152.797 470.638 154.398 471.103 156.206C471.567 158.013 471.418 159.924 470.677 161.637C469.937 163.351 468.648 164.769 467.013 165.669C469.317 166.504 471.308 168.028 472.714 170.035C474.12 172.042 474.873 174.434 474.871 176.884V180.389H496.04C499.262 182.238 502.707 183.669 506.291 184.648C516.75 187.536 527.923 187.77 537.982 191.836C540.649 192.915 543.302 194.328 545.034 196.627C549.029 201.93 546.737 209.367 546.295 215.991C546.037 220.19 546.566 224.401 547.855 228.405H265.09C255.977 220.428 248.806 211.186 247.611 199.382C246.987 193.091 248.214 186.677 247.902 180.389Z"
                    fill="black" />
                  <path
                    d="M582.993 147.977V283.96L575.984 279.404V147.977H571.778L570.025 274.848L563.366 269.941L567.922 146.224"
                    stroke="#E0E0E0" stroke-width="0.350482" stroke-miterlimit="10" />
                  <path d="M591.759 157.79L563.37 159.367" stroke="#E0E0E0" stroke-width="0.350482"
                    stroke-miterlimit="10" />
                  <path d="M590.007 164.8L563.37 165.851" stroke="#E0E0E0" stroke-width="0.350482"
                    stroke-miterlimit="10" />
                  <path d="M590.007 173.211L563.37 173.912" stroke="#E0E0E0" stroke-width="0.350482"
                    stroke-miterlimit="10" />
                  <path d="M590.007 180.922L563.37 181.973" stroke="#E0E0E0" stroke-width="0.350482"
                    stroke-miterlimit="10" />
                  <path d="M590.007 189.684H562.319" stroke="#E0E0E0" stroke-width="0.350482" stroke-miterlimit="10" />
                  <path d="M590.006 198.446L561.617 197.395" stroke="#E0E0E0" stroke-width="0.350482"
                    stroke-miterlimit="10" />
                  <path d="M590.006 206.507L561.617 205.105" stroke="#E0E0E0" stroke-width="0.350482"
                    stroke-miterlimit="10" />
                  <path d="M590.006 215.269L561.617 213.166" stroke="#E0E0E0" stroke-width="0.350482"
                    stroke-miterlimit="10" />
                  <path d="M590.708 222.98L560.566 220.176" stroke="#E0E0E0" stroke-width="0.350482"
                    stroke-miterlimit="10" />
                  <path d="M590.708 231.742L560.566 227.185" stroke="#E0E0E0" stroke-width="0.350482"
                    stroke-miterlimit="10" />
                  <path d="M590.709 241.906L559.516 236.298" stroke="#E0E0E0" stroke-width="0.350482"
                    stroke-miterlimit="10" />
                  <path d="M590.709 253.472L559.516 244.359" stroke="#E0E0E0" stroke-width="0.350482"
                    stroke-miterlimit="10" />
                  <path d="M591.408 265.388L558.463 252.42" stroke="#E0E0E0" stroke-width="0.350482"
                    stroke-miterlimit="10" />
                  <path d="M591.408 276.253L558.463 260.131" stroke="#E0E0E0" stroke-width="0.350482"
                    stroke-miterlimit="10" />
                  <path
                    d="M555.656 147.626L550.048 267.137H542.688L547.244 147.626H539.183L533.926 267.137H525.865L530.421 147.626H520.608L517.103 267.137H508.341L512.196 148.678H503.084L500.981 267.137H492.92L495.373 147.626H487.312L485.559 267.137H477.849L479.601 147.626H470.489V267.137H461.376V147.626H452.965L454.367 267.137H447.006L444.904 147.626H436.492L439.296 267.137H431.936L428.431 147.626H421.071L423.875 267.137H417.215L411.958 147.626H404.949L410.556 267.137H403.547L395.836 147.626H387.424L397.238 267.137H390.579L381.116 147.626H374.457L384.27 267.137H376.91L367.447 146.224H360.788L371.653 267.137H364.643L353.428 146.224"
                    stroke="#E0E0E0" stroke-width="0.350482" stroke-miterlimit="10" />
                  <path
                    d="M337.656 147.977L348.171 269.24L342.914 273.446L334.853 147.977H329.245L334.853 278.002L326.791 283.259L323.641 146.224"
                    stroke="#E0E0E0" stroke-width="0.350482" stroke-miterlimit="10" />
                  <path d="M315.93 161.645H348.174" stroke="#E0E0E0" stroke-width="0.350482" stroke-miterlimit="10" />
                  <path d="M315.93 170.407H348.174" stroke="#E0E0E0" stroke-width="0.350482" stroke-miterlimit="10" />
                  <path d="M315.93 180.221L348.174 179.169" stroke="#E0E0E0" stroke-width="0.350482"
                    stroke-miterlimit="10" />
                  <path d="M315.93 188.632L349.576 186.88" stroke="#E0E0E0" stroke-width="0.350482"
                    stroke-miterlimit="10" />
                  <path d="M315.93 198.095L349.576 196.694" stroke="#E0E0E0" stroke-width="0.350482"
                    stroke-miterlimit="10" />
                  <path d="M315.93 208.259L350.978 206.507" stroke="#E0E0E0" stroke-width="0.350482"
                    stroke-miterlimit="10" />
                  <path d="M315.93 218.073L350.978 214.568" stroke="#E0E0E0" stroke-width="0.350482"
                    stroke-miterlimit="10" />
                  <path d="M315.93 229.288L350.978 220.877" stroke="#E0E0E0" stroke-width="0.350482"
                    stroke-miterlimit="10" />
                  <path d="M315.93 239.102L352.38 226.835" stroke="#E0E0E0" stroke-width="0.350482"
                    stroke-miterlimit="10" />
                  <path d="M315.93 249.266L352.38 235.247" stroke="#E0E0E0" stroke-width="0.350482"
                    stroke-miterlimit="10" />
                  <path d="M314.879 259.079L351.164 243.851" stroke="#E0E0E0" stroke-width="0.350482"
                    stroke-miterlimit="10" />
                  <path d="M314.879 270.295L352.38 251.369" stroke="#E0E0E0" stroke-width="0.350482"
                    stroke-miterlimit="10" />
                  <path d="M314.879 280.459L353.432 259.079" stroke="#E0E0E0" stroke-width="0.350482"
                    stroke-miterlimit="10" />
                  <path d="M563.371 157.79L348.175 159.542" stroke="#E0E0E0" stroke-width="0.350482"
                    stroke-miterlimit="10" />
                  <path d="M563.195 164.099L347.999 165.851" stroke="#E0E0E0" stroke-width="0.350482"
                    stroke-miterlimit="10" />
                  <path d="M563.019 170.407L347.823 172.16" stroke="#E0E0E0" stroke-width="0.350482"
                    stroke-miterlimit="10" />
                  <path d="M562.845 176.716L347.649 178.469" stroke="#E0E0E0" stroke-width="0.350482"
                    stroke-miterlimit="10" />
                  <path d="M562.669 183.025L347.473 184.777" stroke="#E0E0E0" stroke-width="0.350482"
                    stroke-miterlimit="10" />
                  <path d="M562.495 189.333L350.103 191.086" stroke="#E0E0E0" stroke-width="0.350482"
                    stroke-miterlimit="10" />
                  <path d="M562.319 195.642L349.927 197.395" stroke="#E0E0E0" stroke-width="0.350482"
                    stroke-miterlimit="10" />
                  <path d="M562.143 201.951L349.751 203.703" stroke="#E0E0E0" stroke-width="0.350482"
                    stroke-miterlimit="10" />
                  <path d="M561.968 208.259L349.576 210.012" stroke="#E0E0E0" stroke-width="0.350482"
                    stroke-miterlimit="10" />
                  <path d="M561.793 214.568L351.504 216.321" stroke="#E0E0E0" stroke-width="0.350482"
                    stroke-miterlimit="10" />
                  <path d="M561.617 220.877L351.328 222.629" stroke="#E0E0E0" stroke-width="0.350482"
                    stroke-miterlimit="10" />
                  <path d="M561.442 227.185L351.153 228.938" stroke="#E0E0E0" stroke-width="0.350482"
                    stroke-miterlimit="10" />
                  <path d="M561.267 233.494L352.38 235.247" stroke="#E0E0E0" stroke-width="0.350482"
                    stroke-miterlimit="10" />
                  <path d="M561.091 239.803L352.204 241.555" stroke="#E0E0E0" stroke-width="0.350482"
                    stroke-miterlimit="10" />
                  <path d="M560.917 246.112L353.081 247.864" stroke="#E0E0E0" stroke-width="0.350482"
                    stroke-miterlimit="10" />
                  <path d="M560.741 252.42L352.905 254.173" stroke="#E0E0E0" stroke-width="0.350482"
                    stroke-miterlimit="10" />
                  <path d="M560.566 258.729L352.73 260.481" stroke="#E0E0E0" stroke-width="0.350482"
                    stroke-miterlimit="10" />
                  <path d="M591.405 289.918L559.511 267.137H352.376L315.93 289.918" stroke="#E0E0E0"
                    stroke-width="1.05145" stroke-miterlimit="10" />
                  <path
                    d="M593.386 265.269C593.386 265.269 594.195 241.345 607.135 227.834C612.601 222.199 616.092 214.943 617.082 207.155C617.524 203.456 617.626 199.724 617.387 196.007"
                    stroke="#535461" stroke-width="0.700964" stroke-miterlimit="10" />
                  <path
                    d="M625.489 187.444C624.602 190.115 617.2 196.255 617.2 196.255C617.2 196.255 614.932 186.905 615.819 184.234C616.258 182.969 617.178 181.927 618.379 181.335C619.58 180.742 620.966 180.646 622.237 181.068C623.508 181.489 624.562 182.394 625.172 183.587C625.781 184.779 625.896 186.164 625.492 187.441L625.489 187.444Z"
                    fill="#615FFF" />
                  <path
                    d="M628.577 204.891C626.383 206.644 616.829 207.783 616.829 207.783C616.829 207.783 620.008 198.702 622.202 196.942C622.722 196.507 623.324 196.179 623.972 195.979C624.62 195.779 625.302 195.711 625.977 195.777C626.652 195.844 627.307 196.045 627.903 196.369C628.5 196.692 629.026 197.131 629.45 197.66C629.875 198.189 630.189 198.798 630.375 199.45C630.561 200.103 630.615 200.786 630.534 201.459C630.453 202.133 630.238 202.783 629.902 203.373C629.566 203.962 629.115 204.478 628.577 204.891Z"
                    fill="#615FFF" />
                  <path
                    d="M619.843 230.059C617.06 230.47 608.242 226.625 608.242 226.625C608.242 226.625 615.571 220.39 618.354 219.966C619.675 219.801 621.008 220.16 622.067 220.966C623.127 221.772 623.829 222.961 624.024 224.278C624.218 225.595 623.89 226.935 623.109 228.013C622.327 229.091 621.155 229.821 619.843 230.045V230.059Z"
                    fill="#615FFF" />
                  <path
                    d="M608.947 247.612C606.273 248.488 596.933 246.185 596.933 246.185C596.933 246.185 603.101 238.804 605.775 237.924C606.415 237.701 607.093 237.607 607.769 237.649C608.446 237.69 609.107 237.866 609.714 238.167C610.322 238.467 610.863 238.885 611.307 239.397C611.751 239.909 612.088 240.505 612.299 241.149C612.51 241.793 612.591 242.472 612.536 243.148C612.481 243.823 612.292 244.481 611.98 245.082C611.667 245.684 611.239 246.217 610.718 246.651C610.197 247.084 609.595 247.41 608.947 247.608V247.612Z"
                    fill="#615FFF" />
                  <path
                    d="M606.501 204.923C607.801 207.418 616.087 212.308 616.087 212.308C616.087 212.308 616.84 202.718 615.543 200.219C615.234 199.626 614.812 199.099 614.299 198.668C613.787 198.238 613.194 197.913 612.556 197.711C611.918 197.51 611.246 197.436 610.58 197.494C609.913 197.552 609.264 197.741 608.67 198.05C608.077 198.359 607.549 198.782 607.119 199.294C606.689 199.807 606.364 200.399 606.162 201.037C605.961 201.675 605.887 202.347 605.945 203.014C606.003 203.68 606.192 204.329 606.501 204.923Z"
                    fill="#615FFF" />
                  <path
                    d="M594.019 225.622C596.007 227.617 605.375 229.8 605.375 229.8C605.375 229.8 603.227 220.425 601.239 218.43C600.28 217.498 598.993 216.98 597.656 216.988C596.319 216.996 595.038 217.53 594.09 218.474C593.143 219.418 592.604 220.696 592.591 222.033C592.578 223.371 593.091 224.66 594.019 225.622Z"
                    fill="#615FFF" />
                  <path
                    d="M584.648 247.398C586.267 249.697 595.134 253.433 595.134 253.433C595.134 253.433 594.602 243.826 592.979 241.517C592.596 240.963 592.108 240.49 591.541 240.127C590.975 239.763 590.342 239.515 589.679 239.397C589.017 239.279 588.337 239.293 587.68 239.439C587.023 239.586 586.401 239.86 585.851 240.248C585.301 240.636 584.833 241.129 584.474 241.698C584.115 242.268 583.873 242.903 583.761 243.567C583.649 244.231 583.67 244.91 583.822 245.566C583.975 246.222 584.255 246.841 584.648 247.387V247.398Z"
                    fill="#615FFF" />
                  <path
                    d="M598.644 286.648C598.644 286.648 599.453 262.724 612.393 249.213C617.859 243.579 621.349 236.323 622.34 228.535C622.782 224.836 622.884 221.104 622.645 217.386"
                    stroke="#535461" stroke-width="0.700964" stroke-miterlimit="10" />
                  <path
                    d="M630.747 208.824C629.86 211.494 622.458 217.635 622.458 217.635C622.458 217.635 620.19 208.284 621.077 205.613C621.516 204.348 622.435 203.307 623.636 202.714C624.837 202.122 626.223 202.026 627.495 202.447C628.766 202.868 629.82 203.773 630.429 204.966C631.039 206.159 631.154 207.543 630.75 208.82L630.747 208.824Z"
                    fill="#615FFF" />
                  <path
                    d="M633.834 226.271C631.64 228.023 622.086 229.162 622.086 229.162C622.086 229.162 625.265 220.081 627.459 218.322C627.979 217.886 628.581 217.559 629.229 217.359C629.877 217.159 630.559 217.09 631.234 217.157C631.909 217.224 632.564 217.425 633.16 217.748C633.757 218.071 634.283 218.51 634.707 219.04C635.131 219.569 635.446 220.178 635.632 220.83C635.818 221.482 635.872 222.165 635.791 222.839C635.71 223.512 635.495 224.163 635.159 224.752C634.823 225.341 634.372 225.858 633.834 226.271Z"
                    fill="#615FFF" />
                  <path
                    d="M625.1 251.439C622.317 251.849 613.499 248.004 613.499 248.004C613.499 248.004 620.828 241.769 623.61 241.345C624.932 241.181 626.264 241.54 627.324 242.346C628.384 243.152 629.086 244.34 629.281 245.657C629.475 246.974 629.147 248.315 628.365 249.393C627.584 250.471 626.412 251.2 625.1 251.425V251.439Z"
                    fill="#615FFF" />
                  <path
                    d="M614.204 268.991C611.53 269.867 602.189 267.565 602.189 267.565C602.189 267.565 608.358 260.183 611.032 259.304C611.672 259.08 612.35 258.986 613.026 259.028C613.702 259.07 614.364 259.246 614.971 259.546C615.579 259.846 616.12 260.265 616.564 260.777C617.008 261.289 617.345 261.884 617.556 262.528C617.767 263.172 617.847 263.852 617.793 264.527C617.738 265.203 617.549 265.86 617.236 266.462C616.924 267.063 616.495 267.596 615.975 268.03C615.454 268.464 614.852 268.789 614.204 268.987V268.991Z"
                    fill="#615FFF" />
                  <path
                    d="M611.758 226.302C613.058 228.798 621.343 233.687 621.343 233.687C621.343 233.687 622.097 224.098 620.8 221.599C620.176 220.4 619.102 219.498 617.813 219.091C616.524 218.684 615.126 218.806 613.927 219.429C612.728 220.053 611.826 221.128 611.419 222.416C611.012 223.705 611.134 225.103 611.758 226.302Z"
                    fill="#615FFF" />
                  <path
                    d="M599.277 247.002C601.264 248.996 610.633 251.179 610.633 251.179C610.633 251.179 608.484 241.804 606.497 239.81C605.538 238.878 604.251 238.36 602.914 238.368C601.576 238.376 600.296 238.909 599.348 239.853C598.401 240.797 597.862 242.075 597.849 243.413C597.836 244.75 598.349 246.039 599.277 247.002Z"
                    fill="#615FFF" />
                  <path
                    d="M589.905 268.777C591.524 271.076 600.391 274.812 600.391 274.812C600.391 274.812 599.858 265.206 598.236 262.896C597.853 262.342 597.364 261.87 596.798 261.506C596.232 261.142 595.599 260.894 594.936 260.776C594.273 260.658 593.594 260.673 592.937 260.819C592.28 260.965 591.658 261.24 591.108 261.628C590.558 262.015 590.09 262.508 589.731 263.078C589.372 263.647 589.13 264.283 589.018 264.946C588.906 265.61 588.927 266.289 589.079 266.945C589.231 267.601 589.512 268.22 589.905 268.767V268.777Z"
                    fill="#615FFF" />
                  <path
                    d="M310.845 158.782C311.017 152 315.713 146.042 322.341 144.587L322.53 144.549C322.798 144.496 323.07 144.47 323.343 144.472H585.644C587.581 144.456 589.49 144.942 591.183 145.883C592.876 146.824 594.297 148.188 595.307 149.841L595.373 149.957C595.759 150.633 595.966 151.397 595.976 152.175L598.412 289.915H590.001L587.197 155.33C587.197 155.33 587.197 151.474 583.692 151.124C583.156 151.071 576.651 151.033 566.024 151.008L559.863 267.487H556.358L563.21 151.005C516.49 150.914 402.139 151.029 349.065 151.092L355.872 266.786H352.367L346.254 151.096L326.053 151.12C324.571 151.121 323.116 151.51 321.832 152.248C320.547 152.986 319.478 154.047 318.731 155.326L315.927 289.911H307.516L310.845 158.782Z"
                    fill="#E0E0E0" />
                  <path
                    d="M307.469 292.754C307.469 292.754 306.333 274.227 315.33 262.844C319.135 258.093 321.296 252.237 321.488 246.154C321.556 243.263 321.359 240.372 320.899 237.518"
                    stroke="#535461" stroke-width="0.700964" stroke-miterlimit="10" />
                  <path
                    d="M326.529 230.319C326.042 232.446 320.778 237.731 320.778 237.731C320.778 237.731 318.324 230.68 318.825 228.556C318.94 228.05 319.154 227.571 319.454 227.147C319.754 226.723 320.135 226.363 320.574 226.086C321.013 225.81 321.503 225.622 322.015 225.535C322.527 225.447 323.051 225.462 323.557 225.577C324.063 225.692 324.542 225.905 324.966 226.206C325.389 226.506 325.75 226.886 326.026 227.326C326.303 227.765 326.49 228.254 326.578 228.766C326.665 229.278 326.651 229.802 326.536 230.308L326.529 230.319Z"
                    fill="#615FFF" />
                  <path
                    d="M330.195 243.56C328.628 245.081 321.338 246.658 321.338 246.658C321.338 246.658 323.122 239.414 324.688 237.896C325.061 237.535 325.5 237.25 325.982 237.058C326.465 236.867 326.98 236.772 327.499 236.78C328.017 236.787 328.53 236.897 329.006 237.102C329.482 237.307 329.914 237.605 330.275 237.977C330.637 238.349 330.921 238.789 331.113 239.271C331.305 239.753 331.399 240.268 331.392 240.787C331.384 241.306 331.275 241.818 331.069 242.294C330.864 242.771 330.567 243.202 330.195 243.564V243.56Z"
                    fill="#615FFF" />
                  <path
                    d="M325.305 263.629C323.202 264.151 316.098 261.831 316.098 261.831C316.098 261.831 321.288 256.479 323.412 255.957C324.43 255.706 325.505 255.869 326.402 256.411C327.299 256.953 327.944 257.829 328.195 258.846C328.446 259.864 328.282 260.939 327.74 261.836C327.198 262.733 326.322 263.378 325.305 263.629Z"
                    fill="#615FFF" />
                  <path
                    d="M318.184 277.981C316.182 278.854 308.805 277.764 308.805 277.764C308.805 277.764 313.01 271.609 315.022 270.754C315.5 270.534 316.016 270.412 316.541 270.394C317.067 270.377 317.59 270.464 318.081 270.651C318.572 270.838 319.021 271.122 319.401 271.485C319.781 271.847 320.085 272.283 320.295 272.764C320.505 273.246 320.617 273.765 320.624 274.291C320.63 274.816 320.532 275.338 320.335 275.825C320.138 276.312 319.845 276.755 319.475 277.127C319.104 277.5 318.663 277.795 318.177 277.995L318.184 277.981Z"
                    fill="#615FFF" />
                  <path
                    d="M313.157 245.228C314.341 247.061 321.099 250.223 321.099 250.223C321.099 250.223 320.976 242.764 319.788 240.931C319.218 240.052 318.322 239.435 317.298 239.216C316.273 238.997 315.203 239.195 314.324 239.764C313.445 240.334 312.828 241.23 312.609 242.255C312.39 243.279 312.587 244.349 313.157 245.228Z"
                    fill="#615FFF" />
                  <path
                    d="M305.043 262.104C306.722 263.506 314.117 264.494 314.117 264.494C314.117 264.494 311.769 257.415 310.086 256.02C309.687 255.688 309.226 255.439 308.73 255.286C308.234 255.133 307.713 255.079 307.197 255.128C306.68 255.176 306.178 255.325 305.719 255.568C305.26 255.81 304.854 256.141 304.523 256.54C304.191 256.94 303.942 257.4 303.789 257.896C303.636 258.392 303.582 258.913 303.63 259.43C303.679 259.946 303.828 260.449 304.071 260.907C304.313 261.366 304.644 261.773 305.043 262.104Z"
                    fill="#615FFF" />
                  <path
                    d="M299.411 279.604C300.831 281.261 307.949 283.494 307.949 283.494C307.949 283.494 306.831 276.134 305.408 274.462C304.726 273.666 303.756 273.174 302.71 273.094C301.665 273.014 300.631 273.352 299.836 274.034C299.04 274.717 298.548 275.687 298.468 276.732C298.387 277.777 298.726 278.811 299.408 279.607L299.411 279.604Z"
                    fill="#615FFF" />
                  <path opacity="0.5"
                    d="M326.529 230.319C326.042 232.446 320.778 237.731 320.778 237.731C320.778 237.731 318.324 230.68 318.825 228.556C318.94 228.05 319.154 227.571 319.454 227.147C319.754 226.723 320.135 226.363 320.574 226.086C321.013 225.81 321.503 225.622 322.015 225.535C322.527 225.447 323.051 225.462 323.557 225.577C324.063 225.692 324.542 225.905 324.966 226.206C325.389 226.506 325.75 226.886 326.026 227.326C326.303 227.765 326.49 228.254 326.578 228.766C326.665 229.278 326.651 229.802 326.536 230.308L326.529 230.319Z"
                    fill="white" />
                  <path opacity="0.5"
                    d="M330.195 243.56C328.628 245.081 321.338 246.658 321.338 246.658C321.338 246.658 323.122 239.414 324.688 237.896C325.061 237.535 325.5 237.25 325.982 237.058C326.465 236.867 326.98 236.772 327.499 236.78C328.017 236.787 328.53 236.897 329.006 237.102C329.482 237.307 329.914 237.605 330.275 237.977C330.637 238.349 330.921 238.789 331.113 239.271C331.305 239.753 331.399 240.268 331.392 240.787C331.384 241.306 331.275 241.818 331.069 242.294C330.864 242.771 330.567 243.202 330.195 243.564V243.56Z"
                    fill="white" />
                  <path opacity="0.5"
                    d="M325.305 263.629C323.202 264.151 316.098 261.831 316.098 261.831C316.098 261.831 321.288 256.479 323.412 255.957C324.43 255.706 325.505 255.869 326.402 256.411C327.299 256.953 327.944 257.829 328.195 258.846C328.446 259.864 328.282 260.939 327.74 261.836C327.198 262.733 326.322 263.378 325.305 263.629Z"
                    fill="white" />
                  <path opacity="0.5"
                    d="M318.184 277.981C316.182 278.854 308.805 277.764 308.805 277.764C308.805 277.764 313.01 271.609 315.022 270.754C315.5 270.534 316.016 270.412 316.541 270.394C317.067 270.377 317.59 270.464 318.081 270.651C318.572 270.838 319.021 271.122 319.401 271.485C319.781 271.847 320.085 272.283 320.295 272.764C320.505 273.246 320.617 273.765 320.624 274.291C320.63 274.816 320.532 275.338 320.335 275.825C320.138 276.312 319.845 276.755 319.475 277.127C319.104 277.5 318.663 277.795 318.177 277.995L318.184 277.981Z"
                    fill="white" />
                  <path opacity="0.5"
                    d="M313.157 245.228C314.341 247.061 321.099 250.223 321.099 250.223C321.099 250.223 320.976 242.764 319.788 240.931C319.218 240.052 318.322 239.435 317.298 239.216C316.273 238.997 315.203 239.195 314.324 239.764C313.445 240.334 312.828 241.23 312.609 242.255C312.39 243.279 312.587 244.349 313.157 245.228Z"
                    fill="white" />
                  <path opacity="0.5"
                    d="M305.043 262.104C306.722 263.506 314.117 264.494 314.117 264.494C314.117 264.494 311.769 257.415 310.086 256.02C309.687 255.688 309.226 255.439 308.73 255.286C308.234 255.133 307.713 255.079 307.197 255.128C306.68 255.176 306.178 255.325 305.719 255.568C305.26 255.81 304.854 256.141 304.523 256.54C304.191 256.94 303.942 257.4 303.789 257.896C303.636 258.392 303.582 258.913 303.63 259.43C303.679 259.946 303.828 260.449 304.071 260.907C304.313 261.366 304.644 261.773 305.043 262.104Z"
                    fill="white" />
                  <path opacity="0.5"
                    d="M299.411 279.604C300.831 281.261 307.949 283.494 307.949 283.494C307.949 283.494 306.831 276.134 305.408 274.462C304.726 273.666 303.756 273.174 302.71 273.094C301.665 273.014 300.631 273.352 299.836 274.034C299.04 274.717 298.548 275.687 298.468 276.732C298.387 277.777 298.726 278.811 299.408 279.607L299.411 279.604Z"
                    fill="white" />
                  <g opacity="0.1">
                    <path d="M368.603 221.518C368.561 221.466 368.54 221.431 368.54 221.431L368.603 221.518Z"
                      fill="url(#paint0_linear_512_4550)" />
                  </g>
                  <path
                    d="M426.553 226.302C426.486 228.535 427.87 229.372 427.87 229.372L440.803 240.826C445.794 242.635 446.411 252.122 446.411 252.122C446.901 252.998 447.112 254.52 447.112 256.328C447.052 261.936 445.468 269.752 445.468 269.752L445.514 269.825L445.468 270.053L445.514 270.127L445.468 270.354C445.716 270.754 445.984 271.142 446.271 271.514C444.869 274.385 442.258 279.004 441.129 279.989C439.569 281.345 436.45 291.436 436.45 291.436L436.552 291.411L436.45 291.737H436.517C435.76 293.199 434.989 295.084 434.824 296.945C434.713 298.166 434.46 299.369 434.07 300.531C433.61 301.881 433.57 303.339 433.955 304.712C434.263 305.811 434.468 306.936 434.565 308.073C434.76 310.264 435.298 312.41 436.159 314.434C437.586 317.824 439.475 322.453 439.573 323.386C439.625 323.89 439.748 324.633 439.888 325.401L439.808 325.422L436.454 333.028C436.454 333.028 435.518 335.13 433.65 335.13C433.468 335.129 433.287 335.167 433.121 335.24C432.955 335.314 432.806 335.422 432.684 335.558C432.562 335.693 432.471 335.853 432.416 336.026C432.36 336.2 432.343 336.383 432.363 336.564C432.339 336.775 432.367 336.99 432.444 337.188V337.209C432.444 337.244 432.476 337.279 432.49 337.314L432.521 337.373C432.539 337.409 432.56 337.44 432.584 337.475L432.626 337.535L432.703 337.629L432.756 337.689L432.847 337.78L432.91 337.84L433.015 337.924L433.092 337.98L433.215 338.057L433.306 338.113L433.443 338.183L433.548 338.236L433.699 338.299L433.818 338.348L433.986 338.404L434.119 338.446L434.309 338.492L434.459 338.527L434.666 338.562L434.831 338.59L435.059 338.614L435.237 338.635H435.49H435.679H436.159H436.492H436.678C436.858 338.635 437.044 338.62 437.235 338.59C443.32 337.987 447.841 333.332 447.841 333.332V333.245V333.157V333.07L447.862 333.045C447.862 333.045 447.469 326.985 445.244 325.615C445.022 324.489 444.905 323.345 444.893 322.198C444.893 317.992 446.141 313.762 442.71 306.833C442.71 306.833 442.552 305.024 443.803 302.315C444.537 300.863 445.349 299.452 446.236 298.088L446.39 298.07L446.141 298.4C446.141 298.4 450.196 298.098 450.508 295.386C450.537 295.16 450.59 294.938 450.666 294.723C451.605 291.997 456.14 288.131 458.152 287.854C460.335 287.552 464.702 292.673 466.42 296.29C466.518 296.497 466.62 296.693 466.721 296.872C468.397 299.819 470.475 299.153 470.475 299.153C470.401 299.066 470.338 298.982 470.272 298.894C470.34 298.885 470.408 298.871 470.475 298.852C470.291 298.629 470.121 298.395 469.967 298.151C471.526 299.84 473.184 301.397 473.906 302.304C475.466 304.263 474.688 305.616 474.688 306.219C474.688 308.935 471.099 316.912 472.035 321.29C472.497 323.452 471.968 325.983 471.313 327.988H471.176C468.523 328.99 468.214 332.586 468.235 334.394C468.235 334.45 468.235 334.507 468.235 334.559C468.235 334.65 468.235 334.738 468.235 334.822V334.878C468.235 334.946 468.235 335.011 468.235 335.074V335.12C468.235 335.19 468.235 335.257 468.235 335.316C468.235 335.379 468.235 335.439 468.235 335.488V335.509V335.614V335.642V335.698V335.737C468.235 335.737 475.722 339.049 482.118 339.943C482.342 339.974 482.556 339.999 482.763 340.016H482.952L483.355 340.041H483.902H484.077C484.2 340.041 484.315 340.041 484.428 340.013H484.54C484.685 339.994 484.821 339.971 484.95 339.943L485.034 339.921C485.132 339.897 485.223 339.876 485.311 339.848L485.426 339.809L485.633 339.729L485.738 339.68C485.801 339.648 485.861 339.617 485.921 339.582L486.015 339.508C486.086 339.462 486.154 339.412 486.219 339.357C486.282 339.302 486.342 339.242 486.397 339.178L486.443 339.122C486.478 339.08 486.511 339.035 486.541 338.989L486.583 338.919C486.609 338.875 486.631 338.83 486.65 338.786L486.681 338.716C486.7 338.665 486.717 338.614 486.73 338.562V338.509C486.745 338.441 486.756 338.372 486.762 338.302C486.762 338.302 486.762 338.278 486.762 338.264C486.765 338.208 486.765 338.152 486.762 338.095C486.762 338.074 486.762 338.05 486.762 338.029C486.853 337.104 486.12 336.182 485.388 336.322C483.828 336.623 481.799 334.815 481.799 334.815L477.534 327.847C477.467 326.218 477.649 324.146 478.68 322.464C480.709 319.152 483.204 312.072 483.204 312.072C483.204 312.072 482.892 307.705 484.14 305.595C485.388 303.485 484.14 300.173 484.14 300.173L480.323 292.813C480.762 292.813 481.024 292.813 481.024 292.813L480.888 292.512H481.024C481.024 292.512 476.345 282.12 474.474 280.914C473.139 280.056 471.253 275.219 470.268 272.503C470.661 272.296 470.878 272.152 470.878 272.152C470.878 272.152 471.971 259.048 471.971 250.773C471.971 242.498 477.579 239.175 477.579 239.175L490.572 231.486C494.003 230.13 494.472 226.667 494.472 226.667L494.434 226.569C494.462 226.439 494.472 226.365 494.472 226.365L494.434 226.267C494.462 226.138 494.472 226.064 494.472 226.064L488.234 210.099C488.234 210.149 488.195 210.191 488.178 210.236C487.736 207.485 486.373 203.177 482.149 202.876C475.911 202.424 473.738 205.589 474.975 205.89C476.212 206.192 481.526 208.302 481.526 208.302L483.628 211.691C483.492 211.645 483.415 211.614 483.415 211.614C483.534 211.659 483.639 211.736 483.72 211.834L483.86 212.059C483.586 211.982 483.418 211.915 483.418 211.915C483.456 211.931 483.493 211.951 483.527 211.975C483.557 211.991 483.587 212.01 483.614 212.031C483.643 212.056 483.67 212.083 483.695 212.111C483.723 212.139 483.75 212.168 483.776 212.199C483.804 212.234 483.828 212.272 483.856 212.311L483.898 212.374C483.737 212.331 483.578 212.279 483.422 212.22C485.055 212.746 485.738 222.654 485.875 225.188L477.796 228.787C477.796 228.787 469.686 228.787 466.255 230.746C463.244 232.464 461.793 231.051 461.485 230.68C461.695 230.948 461.881 231.208 462.042 231.458L461.955 231.398L461.874 231.342L461.807 231.29L461.734 231.227L461.709 231.206C461 229.878 460.533 228.435 460.328 226.944C460.711 226.031 460.899 225.048 460.88 224.058C460.86 223.068 460.634 222.093 460.216 221.196C460.348 221.289 460.492 221.363 460.644 221.417C460.293 220.76 460.056 220.049 459.943 219.314C459.866 218.49 460.101 217.614 459.75 216.86C459.713 216.784 459.671 216.71 459.624 216.639C459.624 216.615 459.624 216.587 459.596 216.559C459.245 215.795 458.387 215.374 457.844 214.708C457.493 214.26 457.293 213.713 456.957 213.25C456.53 212.705 455.941 212.311 455.274 212.126C454.607 211.94 453.899 211.973 453.252 212.22C452.741 212.427 452.264 212.774 451.71 212.784C451.424 212.77 451.14 212.721 450.865 212.637C449.148 212.28 447.36 212.615 445.889 213.569C444.454 214.516 443.321 215.854 442.622 217.425C442.244 218.196 441.998 219.025 441.893 219.878C441.852 220.772 441.866 221.667 441.935 222.559C441.967 224.028 441.749 225.57 442.377 226.905C442.415 226.989 442.464 227.063 442.506 227.143C442.506 227.164 442.506 227.185 442.531 227.207C443.127 228.479 444.375 229.309 445.57 230.112L447.115 231.132L447.291 231.248C446.848 231.203 446.403 231.194 445.959 231.22C443.617 231.37 438.949 229.117 438.949 229.117L434.077 224.708L436.454 214.957L436.363 215.024L436.454 214.656L436.363 214.722L436.454 214.354C436.408 214.389 436.366 214.421 436.32 214.452L438.791 210.436C438.791 210.436 444.094 208.333 445.342 208.025C446.59 207.716 444.406 204.562 438.167 205.01C433.576 205.343 432.364 210.404 432.045 213.072C431.775 212.774 431.617 212.556 431.617 212.556L427.243 222.903C426.786 223.874 426.547 224.934 426.542 226.008C426.549 226.11 426.549 226.211 426.553 226.302ZM449.4 231.602C449.748 231.486 450.059 231.28 450.301 231.006C450.693 231.155 451.096 231.272 451.507 231.356C451.395 231.739 451.239 232.107 451.041 232.453C450.981 232.218 450.953 232.075 450.953 232.075C450.445 231.888 449.926 231.728 449.4 231.598V231.602ZM446.761 297.177C447.112 296.612 447.462 296.062 447.813 295.543C447.511 296.097 447.112 296.7 446.761 297.177Z"
                    fill="url(#paint1_linear_512_4550)" />
                  <path
                    d="M478.613 290.907L483.082 299.844C483.082 299.844 484.274 303.121 483.082 305.206C481.89 307.292 482.188 311.613 482.188 311.613C482.188 311.613 479.805 318.623 477.867 321.893C475.929 325.163 477.12 329.954 477.12 329.954L469.375 330.848C469.375 330.848 472.354 325.037 471.478 320.715C470.601 316.394 474.012 308.504 474.012 305.816C474.012 305.22 474.758 303.878 473.265 301.943C471.772 300.009 466.115 295.091 466.255 292.259L478.613 290.907Z"
                    fill="#F7BBC3" />
                  <path
                    d="M439.135 288.821C439.135 288.821 436.275 292.782 435.942 296.637C435.842 297.841 435.607 299.029 435.241 300.18C434.801 301.518 434.762 302.956 435.129 304.316C435.424 305.405 435.619 306.518 435.711 307.642C435.895 309.81 436.407 311.937 437.232 313.951C438.595 317.305 440.386 321.882 440.491 322.804C440.642 324.294 441.385 327.868 441.385 327.868L447.343 330.105C447.343 330.105 445.556 325.783 445.556 321.612C445.556 317.442 446.748 313.271 443.453 306.415C443.453 306.415 443.302 304.628 444.504 301.947C445.707 299.266 450.315 292.263 450.315 292.263L439.135 288.821Z"
                    fill="#F7BBC3" />
                  <path opacity="0.1"
                    d="M448.766 294.135C449.256 294.667 446.729 298.06 446.729 298.06C446.729 298.06 450.602 297.762 450.9 295.081C450.928 294.858 450.979 294.638 451.051 294.425C451.948 291.73 456.28 287.906 458.201 287.633C460.304 287.335 464.457 292.4 466.097 295.975C466.192 296.181 466.286 296.371 466.384 296.549C467.986 299.465 469.97 298.806 469.97 298.806C468.918 297.51 468.701 296.483 469.03 295.652C470.334 292.438 480.099 292.533 480.099 292.533C480.099 292.533 475.63 282.253 473.843 281.062C472.055 279.87 469.223 270.929 469.223 270.929C469.223 270.929 447.917 268.546 447.77 269.587C447.623 270.628 443.449 278.826 441.959 280.164C440.47 281.503 437.494 291.492 437.494 291.492C442.559 290.002 448.145 293.651 448.741 294.1L448.766 294.135Z"
                    fill="black" />
                  <path
                    d="M448.766 293.837C449.257 294.369 446.73 297.762 446.73 297.762C446.73 297.762 450.603 297.464 450.901 294.783C450.929 294.56 450.979 294.34 451.051 294.128C451.949 291.432 456.281 287.609 458.201 287.335C460.304 287.037 464.457 292.102 466.098 295.677C466.192 295.883 466.287 296.073 466.385 296.251C467.987 299.167 469.97 298.509 469.97 298.509C468.919 297.212 468.702 296.185 469.031 295.354C470.335 292.14 480.099 292.235 480.099 292.235C480.099 292.235 475.631 281.955 473.843 280.764C472.056 279.572 469.224 270.631 469.224 270.631C469.224 270.631 447.918 268.248 447.771 269.289C447.624 270.33 443.449 278.528 441.96 279.866C440.47 281.205 437.491 291.191 437.491 291.191C442.556 289.701 448.142 293.349 448.738 293.798L448.766 293.837Z"
                    fill="#565171" />
                  <path opacity="0.1"
                    d="M476.751 327.185L480.848 334.114C480.848 334.114 482.786 335.901 484.275 335.604C485.765 335.306 487.254 339.774 481.146 338.881C475.037 337.987 467.887 334.71 467.887 334.71C467.887 334.71 467.217 328.675 470.642 327.35L476.751 327.185Z"
                    fill="black" />
                  <path opacity="0.1"
                    d="M440.698 324.788L437.495 332.313C437.495 332.313 436.601 334.416 434.813 334.416C433.026 334.416 432.43 338.141 438.241 337.545C444.052 336.95 448.374 332.33 448.374 332.33C448.374 332.33 447.925 325.18 445.244 324.732C443.74 324.446 442.194 324.465 440.698 324.788Z"
                    fill="black" />
                  <path
                    d="M476.751 327.483L480.848 334.412C480.848 334.412 482.786 336.199 484.275 335.901C485.765 335.604 487.254 340.072 481.146 339.178C475.037 338.285 467.887 335.008 467.887 335.008C467.887 335.008 467.217 328.972 470.642 327.648L476.751 327.483Z"
                    fill="#B77983" />
                  <path
                    d="M440.698 325.1L437.495 332.624C437.495 332.624 436.601 334.727 434.813 334.727C433.026 334.727 432.43 338.453 438.241 337.857C444.052 337.261 448.374 332.642 448.374 332.642C448.374 332.642 447.925 325.492 445.244 325.044C443.74 324.758 442.194 324.777 440.698 325.1Z"
                    fill="#B77983" />
                  <g opacity="0.1">
                    <path
                      d="M448.513 269.306C448.363 270.358 444.192 278.545 442.702 279.884C441.336 281.114 438.711 289.634 438.29 291.015C438.02 291.068 437.754 291.127 437.487 291.205C437.487 291.205 440.466 281.223 441.956 279.88C443.445 278.538 447.616 270.344 447.767 269.303C447.795 269.096 448.668 269.023 450.038 269.044C449.113 269.061 448.542 269.138 448.513 269.306Z"
                      fill="black" />
                    <path
                      d="M458.947 287.332C461.05 287.034 465.204 292.098 466.844 295.673C466.938 295.88 467.033 296.069 467.131 296.248C468.057 297.93 469.104 298.421 469.83 298.537C469.35 298.624 467.727 298.698 466.385 296.248C466.287 296.069 466.192 295.88 466.097 295.673C464.594 292.393 460.963 287.864 458.762 287.367L458.947 287.332Z"
                      fill="black" />
                    <path
                      d="M448.766 293.837L448.741 293.812C448.261 293.462 444.535 291.008 440.452 290.858C444.816 290.707 448.976 293.43 449.488 293.812L449.512 293.837C449.943 294.306 448.044 296.991 447.577 297.622C447.299 297.685 447.017 297.731 446.733 297.759C446.733 297.759 449.256 294.369 448.766 293.837Z"
                      fill="black" />
                  </g>
                  <path
                    d="M487.105 213.138C487.105 213.138 487.105 204.05 481.147 203.602C475.188 203.153 473.085 206.283 474.295 206.581C475.504 206.879 480.551 208.964 480.551 208.964L483.828 214.477L487.105 213.138Z"
                    fill="#F7BBC3" />
                  <path
                    d="M433.173 215.224C433.173 215.224 433.173 206.136 439.131 205.687C445.089 205.238 447.192 208.368 445.983 208.666C444.774 208.964 439.727 211.049 439.727 211.049L436.45 216.562L433.173 215.224Z"
                    fill="#F7BBC3" />
                  <path
                    d="M460.139 224.609C460.139 224.609 459.691 230.568 463.416 233.995C467.142 237.423 454.777 241.741 454.777 241.741L449.264 235.187C449.264 235.187 453.732 232.506 451.367 227.886L460.139 224.609Z"
                    fill="#F7BBC3" />
                  <path opacity="0.1"
                    d="M461.331 231.612C461.331 231.612 462.674 233.715 465.951 231.763C469.228 229.811 476.977 229.807 476.977 229.807L484.722 226.232C484.722 226.232 484.127 213.419 482.339 212.823C482.339 212.823 485.914 214.312 486.958 211.333L492.917 227.126C492.917 227.126 492.468 230.554 489.191 231.892L476.826 239.491C476.826 239.491 471.464 242.768 471.464 250.962C471.464 259.156 470.412 272.117 470.412 272.117C470.412 272.117 453.13 282.548 446.127 270.33C446.127 270.33 448.959 255.879 447.021 252.301C447.021 252.301 446.425 242.915 441.659 241.128L429.301 229.807C429.301 229.807 426.917 228.318 428.705 223.996L432.876 213.716C432.876 213.716 435.41 217.291 437.495 215.504L435.112 225.636L439.878 230.105C439.878 230.105 444.347 232.341 446.583 232.208C448.819 232.075 451.349 233.102 451.349 233.102C451.349 233.102 452.401 239.06 457.16 238.464C457.16 238.464 466.248 238.019 461.331 231.612Z"
                    fill="black" />
                  <path opacity="0.1"
                    d="M461.33 231.016C461.33 231.016 462.673 233.119 465.95 231.167C469.227 229.215 476.976 229.229 476.976 229.229L484.722 225.654C484.722 225.654 484.126 212.84 482.338 212.244C482.338 212.244 485.913 213.734 486.958 210.755L492.916 226.548C492.916 226.548 492.467 229.975 489.19 231.314L476.825 238.92C476.825 238.92 471.463 242.197 471.463 250.391C471.463 258.585 470.411 271.546 470.411 271.546C470.411 271.546 453.129 281.976 446.126 269.759C446.126 269.759 448.958 255.308 447.02 251.73C447.02 251.73 446.424 242.344 441.658 240.556L429.293 229.232C429.293 229.232 426.91 227.743 428.697 223.421L432.868 213.142C432.868 213.142 435.402 216.717 437.487 214.929L435.104 225.062L439.87 229.53C439.87 229.53 444.339 231.766 446.575 231.633C448.811 231.5 451.342 232.527 451.342 232.527C451.342 232.527 452.393 238.485 457.153 237.889C457.16 237.868 466.248 237.423 461.33 231.016Z"
                    fill="black" />
                  <path
                    d="M429.3 229.527L441.665 240.851C446.432 242.638 447.028 252.024 447.028 252.024C448.966 255.599 446.134 270.053 446.134 270.053C453.144 282.271 470.419 271.84 470.419 271.84C470.419 271.84 470.454 271.413 470.51 270.659C470.559 270 470.626 269.089 470.699 268.006C470.797 266.604 470.909 264.911 471.015 263.075C471.249 259.062 471.463 254.386 471.463 250.685C471.463 242.491 476.826 239.214 476.826 239.214L486.103 233.515L489.194 231.616C492.471 230.273 492.92 226.849 492.92 226.849L486.962 211.056C485.987 213.839 482.801 212.721 482.388 212.563C484.14 213.355 484.725 225.955 484.725 225.955L476.98 229.53C476.98 229.53 469.234 229.53 465.954 231.468C463.15 233.116 461.779 231.854 461.429 231.437C466.139 237.746 457.164 238.17 457.164 238.17C452.397 238.765 451.353 232.807 451.353 232.807C451.353 232.807 448.819 231.756 446.586 231.914C444.353 232.071 439.881 229.811 439.881 229.811L435.115 225.342L437.498 215.21C435.395 216.997 432.879 213.422 432.879 213.422L428.708 223.702C426.917 228.037 429.3 229.527 429.3 229.527Z"
                    fill="#B45181" />
                  <path opacity="0.1"
                    d="M460.139 225.205C460.095 226.142 460.143 227.081 460.283 228.009C459.634 229.624 458.43 230.954 456.888 231.759C455.346 232.564 453.566 232.792 451.871 232.401C452.209 231.078 452.02 229.675 451.342 228.489L460.139 225.205Z"
                    fill="black" />
                  <path
                    d="M453.511 231.987C457.543 231.987 460.812 228.719 460.812 224.687C460.812 220.655 457.543 217.386 453.511 217.386C449.48 217.386 446.211 220.655 446.211 224.687C446.211 228.719 449.48 231.987 453.511 231.987Z"
                    fill="#F7BBC3" />
                  <path opacity="0.1"
                    d="M453.627 220.533C453.69 221.273 453.743 222.061 453.403 222.72C453.214 223.052 452.978 223.354 452.702 223.618L451.174 225.191C450.692 225.615 450.318 226.147 450.084 226.744C449.642 228.216 450.946 229.677 450.904 231.216C450.67 231.582 450.323 231.862 449.916 232.013C449.508 232.163 449.062 232.176 448.647 232.05C448.31 231.921 447.992 231.745 447.704 231.528L446.207 230.508C445.068 229.73 443.877 228.889 443.305 227.634C442.706 226.313 442.909 224.785 442.881 223.334C442.816 222.451 442.803 221.565 442.843 220.681C442.943 219.837 443.179 219.016 443.544 218.248C444.204 216.714 445.285 215.397 446.663 214.452C447.353 213.987 448.129 213.666 448.945 213.507C449.762 213.349 450.602 213.357 451.416 213.531C451.677 213.613 451.948 213.661 452.222 213.674C452.751 213.674 453.207 213.324 453.694 213.117C454.313 212.875 454.995 212.844 455.635 213.028C456.274 213.213 456.834 213.602 457.23 214.137C457.553 214.593 457.738 215.136 458.075 215.578C458.576 216.236 459.393 216.654 459.733 217.407C460.072 218.161 459.845 219.023 459.918 219.836C460.023 220.563 460.247 221.267 460.581 221.921C459.754 221.634 459.35 220.73 458.828 220.036C458.415 219.521 457.896 219.1 457.307 218.801C456.717 218.503 456.071 218.333 455.411 218.304C454.955 218.283 454.111 218.248 453.75 218.595C453.291 219.04 453.582 219.994 453.627 220.533Z"
                    fill="black" />
                  <path
                    d="M453.48 220.235C453.543 220.975 453.595 221.764 453.255 222.422C453.066 222.754 452.83 223.056 452.554 223.32L451.005 224.9C450.525 225.321 450.151 225.849 449.915 226.442C449.474 227.915 450.777 229.376 450.735 230.915C450.502 231.281 450.155 231.561 449.747 231.711C449.34 231.862 448.894 231.875 448.478 231.749C448.141 231.62 447.824 231.444 447.535 231.227L446.06 230.221C444.921 229.443 443.729 228.601 443.158 227.347C442.559 226.025 442.762 224.497 442.734 223.046C442.669 222.163 442.656 221.278 442.695 220.393C442.795 219.55 443.032 218.728 443.396 217.961C444.056 216.426 445.138 215.11 446.516 214.165C447.205 213.7 447.981 213.378 448.798 213.22C449.615 213.062 450.455 213.07 451.268 213.243C451.53 213.325 451.8 213.374 452.074 213.387C452.603 213.387 453.059 213.037 453.546 212.83C454.166 212.588 454.848 212.556 455.487 212.741C456.126 212.925 456.687 213.315 457.083 213.85C457.405 214.305 457.591 214.849 457.927 215.29C458.428 215.949 459.245 216.366 459.585 217.12C459.925 217.873 459.697 218.735 459.771 219.549C459.876 220.275 460.099 220.98 460.433 221.634C459.606 221.346 459.203 220.442 458.681 219.748C458.267 219.233 457.748 218.812 457.159 218.514C456.57 218.215 455.924 218.046 455.264 218.017C454.808 217.996 453.963 217.961 453.602 218.308C453.14 218.742 453.42 219.692 453.48 220.235Z"
                    fill="#74585E" />
                  <g opacity="0.1">
                    <path d="M461.393 231.398C461.351 231.346 461.33 231.314 461.33 231.314L461.393 231.398Z"
                      fill="black" />
                    <path
                      d="M436.165 215.721C436.655 215.731 437.13 215.553 437.493 215.224L437.35 215.826C436.953 215.906 436.542 215.87 436.165 215.721Z"
                      fill="black" />
                    <path
                      d="M462.578 232.169C466.31 237.9 457.906 238.317 457.906 238.317C457.265 238.405 456.614 238.359 455.992 238.18C456.38 238.226 456.772 238.226 457.159 238.18C457.159 238.18 466.167 237.735 461.393 231.409C461.704 231.774 462.116 232.039 462.578 232.169Z"
                      fill="black" />
                    <path
                      d="M447.328 232.061C446.724 232.076 446.121 232.004 445.537 231.847C445.884 231.907 446.237 231.93 446.589 231.913C447.516 231.874 448.445 231.967 449.347 232.19C448.681 232.069 448.004 232.026 447.328 232.061Z"
                      fill="black" />
                    <path
                      d="M428.704 223.716L432.875 213.436C433.042 213.664 433.222 213.883 433.414 214.091L429.45 223.849C427.663 228.17 430.046 229.66 430.046 229.66L442.411 240.984C447.178 242.771 447.774 252.157 447.774 252.157C449.712 255.732 446.88 270.186 446.88 270.186C448.758 273.463 451.376 275.093 454.205 275.766C451.096 275.237 448.18 273.6 446.144 270.035C446.144 270.035 448.976 255.585 447.038 252.007C447.038 252.007 446.442 242.621 441.675 240.833L429.3 229.527C429.3 229.527 426.916 228.037 428.704 223.716Z"
                      fill="black" />
                    <path
                      d="M482.339 212.542C482.644 212.66 482.96 212.75 483.282 212.812C484.915 214.246 485.465 226.099 485.465 226.099L477.719 229.674C477.719 229.674 469.974 229.674 466.693 231.612C465.088 232.562 463.949 232.544 463.188 232.281C463.889 232.324 464.79 232.138 465.933 231.465C469.21 229.527 476.959 229.527 476.959 229.527L484.705 225.952C484.705 225.952 484.126 213.138 482.339 212.542Z"
                      fill="black" />
                    <path
                      d="M483.639 212.872C484.771 213.019 486.327 212.854 486.958 211.053L487.308 211.982C486.33 213.369 484.543 213.114 483.639 212.872Z"
                      fill="black" />
                  </g>
                  <path opacity="0.1"
                    d="M471.014 263.071C471.249 259.058 471.463 254.383 471.463 250.682C471.463 242.488 476.825 239.211 476.825 239.211L486.103 233.512C480.705 234.914 473.524 237.328 472.879 240.171C471.827 244.79 469.9 245.235 470.643 253.139C470.951 256.44 471.075 259.756 471.014 263.071Z"
                    fill="black" />
                  <path opacity="0.1"
                    d="M469.599 274.445C469.599 274.445 468.256 278.615 471.982 281.296L469.599 274.445Z"
                    fill="black" />
                  <path opacity="0.1"
                    d="M448.741 274.445C448.741 274.445 448.292 277.574 446.505 278.766L448.741 274.445Z"
                    fill="black" />
                  <path opacity="0.1"
                    d="M467.887 334.412C467.887 334.412 475.037 337.689 481.146 338.583C484.244 339.035 485.387 338.11 485.566 337.128C485.769 338.274 484.865 339.725 481.146 339.178C475.037 338.285 467.887 335.008 467.887 335.008C467.842 334.513 467.825 334.015 467.838 333.518C467.849 334.061 467.887 334.412 467.887 334.412Z"
                    fill="black" />
                  <path opacity="0.1"
                    d="M438.09 337.538C443.901 336.942 448.222 332.323 448.222 332.323C448.222 332.323 448.001 328.797 446.943 326.544C448.131 328.769 448.373 332.621 448.373 332.621C448.373 332.621 444.052 337.24 438.241 337.836C435.272 338.141 433.975 337.317 433.656 336.434C434.143 337.195 435.461 337.808 438.09 337.538Z"
                    fill="black" />
                  <path
                    d="M445.078 184.774C445.077 187.887 446.181 190.9 448.194 193.276C450.207 195.651 452.998 197.235 456.069 197.745C459.141 198.254 462.294 197.657 464.966 196.059C467.638 194.461 469.657 191.967 470.661 189.02C471.666 186.073 471.592 182.865 470.452 179.967C469.312 177.07 467.181 174.671 464.437 173.199C461.694 171.726 458.517 171.275 455.472 171.926C452.427 172.578 449.713 174.289 447.812 176.755C446.04 179.053 445.079 181.872 445.078 184.774Z"
                    fill="url(#paint2_linear_512_4550)" />
                  <path
                    d="M445.563 184.774C445.558 187.774 446.62 190.679 448.557 192.97C450.495 195.261 453.183 196.789 456.143 197.282C459.103 197.776 462.141 197.202 464.718 195.664C467.294 194.125 469.24 191.722 470.209 188.883C471.179 186.043 471.108 182.951 470.01 180.159C468.913 177.366 466.859 175.054 464.215 173.635C461.572 172.216 458.51 171.781 455.576 172.409C452.642 173.037 450.026 174.686 448.195 177.063C446.492 179.273 445.566 181.984 445.563 184.774Z"
                    fill="#E0E0E0" />
                  <path d="M451.128 178.553V183.466" stroke="#535461" stroke-width="0.350482" stroke-miterlimit="10" />
                  <path d="M460.513 183.028L455.386 186.414" stroke="#535461" stroke-width="0.350482"
                    stroke-miterlimit="10" />
                  <path d="M455.386 175.5L461.389 178.009" stroke="#535461" stroke-width="0.350482"
                    stroke-miterlimit="10" />
                  <path d="M465.428 183.901L465.099 191.542" stroke="#535461" stroke-width="0.350482"
                    stroke-miterlimit="10" />
                  <path d="M461.39 193.834L454.622 190.452" stroke="#535461" stroke-width="0.350482"
                    stroke-miterlimit="10" />
                  <path d="M451.128 190.998V195.264" stroke="#535461" stroke-width="0.350482" stroke-miterlimit="10" />
                  <path d="M448.619 187.721L445.668 186.414" stroke="#535461" stroke-width="0.350482"
                    stroke-miterlimit="10" />
                  <path d="M465.098 177.571L464.874 174" stroke="#535461" stroke-width="0.350482"
                    stroke-miterlimit="10" />
                  <path d="M467.064 181.721L470.723 182.765" stroke="#535461" stroke-width="0.350482"
                    stroke-miterlimit="10" />
                  <path d="M468.047 181.721L465.212 176.807L460.519 177.571V183.028L465.537 185.65L468.047 181.721Z"
                    fill="#615FFF" />
                  <path
                    d="M448.194 177.049L451.131 178.553C452.113 177.242 456.15 175.714 456.15 175.714L455.73 172.36C452.734 172.961 450.057 174.627 448.194 177.049Z"
                    fill="#615FFF" />
                  <path d="M456.15 185.867L451.019 183.466L448.18 187.504L451.127 192.197L456.15 191.433V185.867Z"
                    fill="#615FFF" />
                  <path
                    d="M460.514 193.178V197.212C462.157 196.91 463.725 196.285 465.126 195.374C466.527 194.462 467.734 193.283 468.676 191.902L465.098 190.434L460.514 193.178Z"
                    fill="#615FFF" />
                  <path
                    d="M272.676 277.862C272.676 280.474 273.603 283.001 275.293 284.993C276.983 286.986 279.325 288.313 281.902 288.74C284.479 289.166 287.124 288.664 289.365 287.322C291.607 285.98 293.299 283.886 294.14 281.413C294.982 278.94 294.918 276.249 293.96 273.819C293.002 271.388 291.213 269.377 288.911 268.143C286.608 266.909 283.942 266.533 281.388 267.081C278.834 267.629 276.558 269.066 274.964 271.136C273.48 273.064 272.675 275.429 272.676 277.862Z"
                    fill="url(#paint3_linear_512_4550)" />
                  <path
                    d="M273.084 277.862C273.085 280.377 273.978 282.811 275.606 284.73C277.234 286.648 279.489 287.926 281.972 288.337C284.454 288.747 287.001 288.263 289.159 286.97C291.318 285.678 292.947 283.661 293.757 281.279C294.568 278.898 294.506 276.305 293.583 273.965C292.661 271.624 290.937 269.687 288.72 268.499C286.503 267.311 283.935 266.948 281.475 267.476C279.016 268.004 276.823 269.388 275.289 271.381C273.859 273.239 273.083 275.517 273.084 277.862Z"
                    fill="#E0E0E0" />
                  <path d="M277.752 272.643V276.765" stroke="#535461" stroke-width="0.350482" stroke-miterlimit="10" />
                  <path d="M285.624 276.397L281.32 279.236" stroke="#535461" stroke-width="0.350482"
                    stroke-miterlimit="10" />
                  <path d="M281.32 270.081L286.357 272.187" stroke="#535461" stroke-width="0.350482"
                    stroke-miterlimit="10" />
                  <path d="M289.742 277.129L289.469 283.539" stroke="#535461" stroke-width="0.350482"
                    stroke-miterlimit="10" />
                  <path d="M286.357 285.46L280.679 282.621" stroke="#535461" stroke-width="0.350482"
                    stroke-miterlimit="10" />
                  <path d="M277.752 283.08V286.659" stroke="#535461" stroke-width="0.350482" stroke-miterlimit="10" />
                  <path d="M275.645 280.333L273.171 279.236" stroke="#535461" stroke-width="0.350482"
                    stroke-miterlimit="10" />
                  <path d="M289.469 271.819L289.279 268.826" stroke="#535461" stroke-width="0.350482"
                    stroke-miterlimit="10" />
                  <path d="M291.116 275.3L294.186 276.176" stroke="#535461" stroke-width="0.350482"
                    stroke-miterlimit="10" />
                  <path d="M291.94 275.3L289.56 271.181L285.624 271.819V276.397L289.833 278.594L291.94 275.3Z"
                    fill="#615FFF" />
                  <path
                    d="M275.287 271.381L277.74 272.643C278.564 271.546 281.946 270.263 281.946 270.263L281.596 267.459C279.089 267.963 276.848 269.356 275.287 271.381Z"
                    fill="#615FFF" />
                  <path d="M281.962 278.776L277.662 276.765L275.278 280.15L277.753 284.086L281.962 283.445V278.776Z"
                    fill="#615FFF" />
                  <path
                    d="M285.624 284.91V288.306C287.003 288.052 288.317 287.528 289.492 286.763C290.667 285.999 291.679 285.009 292.469 283.851L289.469 282.621L285.624 284.91Z"
                    fill="#615FFF" />
                  <path
                    d="M264.581 291.113C264.581 293.726 265.509 296.253 267.198 298.245C268.888 300.237 271.23 301.565 273.807 301.991C276.384 302.418 279.029 301.915 281.271 300.574C283.512 299.232 285.204 297.138 286.046 294.665C286.887 292.192 286.823 289.501 285.866 287.07C284.908 284.64 283.118 282.629 280.816 281.395C278.513 280.161 275.848 279.784 273.294 280.332C270.74 280.881 268.463 282.318 266.87 284.388C265.385 286.316 264.581 288.68 264.581 291.113Z"
                    fill="url(#paint4_linear_512_4550)" />
                  <path
                    d="M264.987 291.113C264.988 293.629 265.882 296.063 267.509 297.981C269.137 299.9 271.393 301.178 273.875 301.588C276.357 301.999 278.904 301.514 281.063 300.222C283.221 298.93 284.85 296.913 285.661 294.531C286.471 292.149 286.409 289.557 285.487 287.217C284.564 284.876 282.841 282.939 280.623 281.751C278.406 280.562 275.839 280.2 273.379 280.728C270.919 281.255 268.726 282.639 267.192 284.633C265.762 286.491 264.987 288.769 264.987 291.113Z"
                    fill="#E0E0E0" />
                  <path d="M269.655 285.895V290.013" stroke="#535461" stroke-width="0.350482" stroke-miterlimit="10" />
                  <path d="M277.528 289.648L273.228 292.487" stroke="#535461" stroke-width="0.350482"
                    stroke-miterlimit="10" />
                  <path d="M273.228 283.333L278.26 285.439" stroke="#535461" stroke-width="0.350482"
                    stroke-miterlimit="10" />
                  <path d="M281.645 290.381L281.372 296.788" stroke="#535461" stroke-width="0.350482"
                    stroke-miterlimit="10" />
                  <path d="M278.26 298.712L272.586 295.873" stroke="#535461" stroke-width="0.350482"
                    stroke-miterlimit="10" />
                  <path d="M269.655 296.332V299.911" stroke="#535461" stroke-width="0.350482" stroke-miterlimit="10" />
                  <path d="M267.549 293.584L265.074 292.487" stroke="#535461" stroke-width="0.350482"
                    stroke-miterlimit="10" />
                  <path d="M281.372 285.071L281.183 282.078" stroke="#535461" stroke-width="0.350482"
                    stroke-miterlimit="10" />
                  <path d="M283.02 288.551L286.09 289.428" stroke="#535461" stroke-width="0.350482"
                    stroke-miterlimit="10" />
                  <path d="M283.843 288.551L281.463 284.43L277.527 285.071V289.648L281.74 291.846L283.843 288.551Z"
                    fill="#615FFF" />
                  <path
                    d="M267.191 284.633L269.645 285.895C270.468 284.798 273.851 283.515 273.851 283.515L273.5 280.711C270.993 281.215 268.753 282.608 267.191 284.633Z"
                    fill="#615FFF" />
                  <path d="M273.865 292.028L269.564 290.013L267.185 293.402L269.655 297.338L273.865 296.697V292.028Z"
                    fill="#615FFF" />
                  <path
                    d="M277.527 298.151V301.547C278.905 301.294 280.22 300.771 281.394 300.008C282.569 299.244 283.581 298.256 284.372 297.1L281.372 295.869L277.527 298.151Z"
                    fill="#615FFF" />
                </g>
                <defs>
                  <linearGradient id="paint0_linear_512_4550" x1="368.558" y1="221.518" x2="368.558" y2="221.431"
                    gradientUnits="userSpaceOnUse">
                    <stop stop-color="#808080" stop-opacity="0.25" />
                    <stop offset="0.54" stop-color="#808080" stop-opacity="0.12" />
                    <stop offset="1" stop-color="#808080" stop-opacity="0.1" />
                  </linearGradient>
                  <linearGradient id="paint1_linear_512_4550" x1="460.511" y1="340.051" x2="460.511" y2="202.823"
                    gradientUnits="userSpaceOnUse">
                    <stop stop-color="#808080" stop-opacity="0.25" />
                    <stop offset="0.54" stop-color="#808080" stop-opacity="0.12" />
                    <stop offset="1" stop-color="#808080" stop-opacity="0.1" />
                  </linearGradient>
                  <linearGradient id="paint2_linear_512_4550" x1="458.221" y1="197.917" x2="458.221" y2="171.631"
                    gradientUnits="userSpaceOnUse">
                    <stop stop-color="#808080" stop-opacity="0.25" />
                    <stop offset="0.54" stop-color="#808080" stop-opacity="0.12" />
                    <stop offset="1" stop-color="#808080" stop-opacity="0.1" />
                  </linearGradient>
                  <linearGradient id="paint3_linear_512_4550" x1="283.698" y1="288.884" x2="283.698" y2="266.839"
                    gradientUnits="userSpaceOnUse">
                    <stop stop-color="#808080" stop-opacity="0.25" />
                    <stop offset="0.54" stop-color="#808080" stop-opacity="0.12" />
                    <stop offset="1" stop-color="#808080" stop-opacity="0.1" />
                  </linearGradient>
                  <linearGradient id="paint4_linear_512_4550" x1="275.607" y1="302.136" x2="275.607" y2="280.091"
                    gradientUnits="userSpaceOnUse">
                    <stop stop-color="#808080" stop-opacity="0.25" />
                    <stop offset="0.54" stop-color="#808080" stop-opacity="0.12" />
                    <stop offset="1" stop-color="#808080" stop-opacity="0.1" />
                  </linearGradient>
                  <clipPath id="clip0_512_4550">
                    <rect width="408" height="280" fill="white" transform="translate(232 121)" />
                  </clipPath>
                </defs>
              </svg>