<svg width="20" height="20" viewBox="0 0 20 20" fill="none" xmlns="http://www.w3.org/2000/svg">
    <g clip-path="url(#clip0_742_3059)">
        <path
            d="M8.33317 5.00033C8.33317 3.15938 6.84079 1.66699 4.99984 1.66699C3.15889 1.66699 1.6665 3.15938 1.6665 5.00033C1.6665 6.84128 3.15889 8.33366 4.99984 8.33366C6.84079 8.33366 8.33317 6.84128 8.33317 5.00033Z"
            stroke="white" stroke-width="1.5" />
        <path
            d="M8.33317 15.0003C8.33317 13.1594 6.84079 11.667 4.99984 11.667C3.15889 11.667 1.6665 13.1594 1.6665 15.0003C1.6665 16.8412 3.15889 18.3337 4.99984 18.3337C6.84079 18.3337 8.33317 16.8412 8.33317 15.0003Z"
            stroke="white" stroke-width="1.5" />
        <path
            d="M18.3332 5.00033C18.3332 3.15938 16.8408 1.66699 14.9998 1.66699C13.1589 1.66699 11.6665 3.15938 11.6665 5.00033C11.6665 6.84128 13.1589 8.33366 14.9998 8.33366C16.8408 8.33366 18.3332 6.84128 18.3332 5.00033Z"
            stroke="white" stroke-width="1.5" />
        <path
            d="M18.3332 15.0003C18.3332 13.1594 16.8408 11.667 14.9998 11.667C13.1589 11.667 11.6665 13.1594 11.6665 15.0003C11.6665 16.8412 13.1589 18.3337 14.9998 18.3337C16.8408 18.3337 18.3332 16.8412 18.3332 15.0003Z"
            stroke="white" stroke-width="1.5" />
    </g>
    <defs>
        <clipPath id="clip0_742_3059">
            <rect width="20" height="20" fill="white" />
        </clipPath>
    </defs>
</svg>
    