<svg version="1.1" id="Layer_1" xmlns="http://www.w3.org/2000/svg" xmlns:xlink="http://www.w3.org/1999/xlink" x="0px" y="0px" viewBox="0 0 450 400" style="width: 100%; height: 100%;" xml:space="preserve">
<defs>
  <style type="text/css">@import url('https://fonts.googleapis.com/css?family=Poppins');</style>
</defs>
<style type="text/css">
	.st0{font-family:'Poppins';}
	.st1{font-size:12px;}
	.st2{fill:#CCCCCC;}
	.st3{fill:#FFFFFF;}
	.st4{font-size:12.96px;}
	.st5{fill:#79b954;}
	.st6{fill:#9fcd85;}
	.st7{fill:none;stroke:#FFFFFF;stroke-width:2.16;stroke-linecap:round}
	.st8{fill:none;stroke:#FFFFFF;stroke-width:2.16;stroke-linecap:round;}
	.st9{fill:none;stroke:#FFFFFF;stroke-width:2.16;stroke-linecap:round;}
	.st10{fill:none;stroke:#FFFFFF;stroke-width:2.16;stroke-linecap:round;}
	.st11{fill:none;stroke:#FFFFFF;stroke-width:2.16;stroke-linecap:round;}
	.st12{fill:none;stroke:#FFFFFF;stroke-width:2.16;stroke-linecap:round;}
	.st13{fill:none;stroke:#FFFFFF;stroke-width:2.16;stroke-linecap:round;}
	.st14{font-family:'Poppins';}
</style>
<g>
	<text transform="matrix(1 0 0 1 212.8623 43.2117)" class="st0 st1">BATI</text>
	<text transform="matrix(-4.371309e-08 -1 1 -4.371139e-08 14.4696 225.9569)" class="st0 st1">GÜNEY</text>
	<text transform="matrix(-4.371139e-08 1 -1 -4.371139e-08 435.9977 187.8273)" class="st0 st1">KUZEY</text>
	<text transform="matrix(1 0 0 1 207.709 362.333)" class="st0 st1">DOĞU</text>
	<g id="Basaksehir-fatih-terim">
		<g id="Empty-Down">
			<path class="st2" d="M137.7,315.9h50.1l3.6-14h-57.5l-11.1,12.7l3.5,0.5C129.7,315.6,133.5,315.9,137.7,315.9z"></path>
			<polygon class="st2" points="253.9,301.8 192.7,301.8 189.2,315.9 259.1,315.9 			"></polygon>
			<path class="st2" d="M310.6,315.9c3.3,0,6.8-0.2,10.2-0.6l3.6-0.4l-11.3-13h-57.7l5.2,14H310.6z"></path>
		</g>
		<g id="EMPTY-Up">
			<polygon class="st2" points="198.5,97.5 256.3,97.5 259.5,86.9 195.3,86.9 			"></polygon>
			<path class="st2" d="M137.7,87.1c-2.3,0-4.3,0-6.6,0.2l-3.6,0.3l8.1,9.8h61.5L193.9,87L137.7,87.1L137.7,87.1z"></path>
			<path class="st2" d="M310.7,87.1h-49.8l-3.2,10.4h57.5l7.7-9.5l-3.5-0.4C316.8,87.2,314,87.1,310.7,87.1z"></path>
		</g>
	</g>
	<polygon id="Empty-down-second" class="st2" points="199.4,338.5 197.1,351.5 249.3,351.5 246.7,338.5 	"></polygon>
	<g id="Doğu A" data-select="zone:Doğu Alt Kat;zoneid:749;subzone:Doğu A;subzoneid:777;noTicket:#cccccc;ticket:#eba601;selected:#fecc03;" data-id="749:::777" style="cursor:pointer">
		<path class="st2 svgshp" d="M120,314l1.1,0.2l27.5-31.1H139c-7,0-14-1.5-20.7-4.4l-1-0.4l-29.5,21.1l2.2,1.5
			C99.1,307.3,109.3,311.8,120,314z" style="fill:#cccccc;"></path>
		<text transform="matrix(1 0 0 1 115.5623 303.7976)" class="st3 st0 st4">A</text>
	</g>
	<g id="Doğu B" data-select="zone:Doğu Alt Kat;zoneid:749;subzone:Doğu B;subzoneid:761;noTicket:#cccccc;ticket:#eba601;selected:#fecc03;" data-id="749:::761" style="cursor:pointer">
		<polygon class="st2 svgshp" points="135,300.5 170,300.5 179.9,283 150.3,283 		" style="fill:#cccccc;"></polygon>
		<text transform="matrix(1 0 0 1 155.7922 296.1296)" class="st3 st0 st4">B</text>
	</g>
	<g id="Doğu C" data-select="zone:Doğu Alt Kat;zoneid:749;subzone:Doğu C;subzoneid:760;noTicket:#cccccc;ticket:#eba601;selected:#fecc03;" data-id="749:::760" style="cursor:pointer">
		<polygon class="st2 svgshp" points="207.6,283 181.6,283 171.6,300.5 204.6,300.5 		" style="fill:#cccccc;"></polygon>
		<text transform="matrix(1 0 0 1 187.9221 296.1296)" class="st3 st0 st4">C</text>
	</g>
	<g id="Doğu D" data-select="zone:Doğu Alt Kat;zoneid:749;subzone:Doğu D;subzoneid:759;noTicket:#cccccc;ticket:#eba601;selected:#fecc03;" data-id="749:::759" style="cursor:pointer">
		<polygon class="st2 svgshp" points="235.7,283 208.9,283 205.9,300.5 239.1,300.5 		" style="fill:#cccccc;"></polygon>
		<text transform="matrix(1 0 0 1 218.322 296.1296)" class="st3 st0 st4">D</text>
	</g>
	<g id="Doğu E" data-select="zone:Doğu Alt Kat;zoneid:749;subzone:Doğu E;subzoneid:758;noTicket:#cccccc;ticket:#eba601;selected:#fecc03;" data-id="749:::758" style="cursor:pointer">
		<polygon class="st2 svgshp" points="275.6,300.5 266.2,283 237.1,283 240.5,300.5 		" style="fill:#cccccc;"></polygon>
		<text transform="matrix(1 0 0 1 253.7483 296.1296)" class="st3 st0 st4">E</text>
	</g>
	<g id="Doğu F" data-select="zone:Doğu Alt Kat;zoneid:749;subzone:Doğu F;subzoneid:757;noTicket:#cccccc;ticket:#eba601;selected:#fecc03;" data-id="749:::757" style="cursor:pointer">
		<polygon class="st2 svgshp" points="312,300.5 296.8,283 267.8,283 277.2,300.5 		" style="fill:#cccccc;"></polygon>
		<text transform="matrix(1 0 0 1 287.2288 296.1296)" class="st3 st0 st4">F</text>
	</g>
	<g id="Doğu G" data-select="zone:Doğu Alt Kat;zoneid:749;subzone:Doğu G;subzoneid:776;noTicket:#cccccc;ticket:#eba601;selected:#fecc03;" data-id="749:::776" style="cursor:pointer">
		<path class="st2 svgshp" d="M326.9,314.1c11.6-2.3,22.1-6.8,31.6-13.5l2.2-1.5l-28-20.6l-1,0.4c-6.3,2.8-13,4.2-19.9,4.2h-13.4l27.3,31.3
			L326.9,314.1z" style="fill:#cccccc;"></path>
		<text transform="matrix(1 0 0 1 327.9436 303.9597)" class="st3 st0 st4">G</text>
	</g>
	<g id="Doğu A1" data-select="zone:Doğu Üst Kat;zoneid:748;subzone:Doğu A1;subzoneid:778;noTicket:#cccccc;ticket:#eba601;selected:#fecc03;" data-id="748:::778" style="cursor:pointer">
		<path class="st2 svgshp" d="M117.1,314.7c-10.5-2.6-20.4-7.2-29.4-13.7l-1.1-0.8L60,319.1l1.8,1.6c10.2,8.9,21.4,15.9,33.4,21l1.3,0.5
			l23.8-26.7L117.1,314.7z" style="fill:#cccccc;"></path>
		<text transform="matrix(1 0 0 1 85.5383 328.6375)" class="st3 st0 st4">A1</text>
	</g>
	<g id="Doğu B1" data-select="zone:Doğu Üst Kat;zoneid:748;subzone:Doğu B1;subzoneid:771;noTicket:#cccccc;ticket:#eba601;selected:#fecc03;" data-id="748:::771" style="cursor:pointer">
		<path class="st2 svgshp" d="M137.6,317.3c-5.2,0-10.3-0.4-15-1.4l-1.1-0.2l-23.8,27.1l2.6,1c12.6,4.8,25.8,7.3,39.3,7.8h1.2l19.5-34.2
			L137.6,317.3L137.6,317.3z" style="fill:#cccccc;"></path>
		<text transform="matrix(1 0 0 1 124.6882 341.1111)" class="st3 st0 st4">B1</text>
	</g>
	<g id="Doğu C1" data-select="zone:Doğu Üst Kat;zoneid:748;subzone:Doğu C1;subzoneid:770;noTicket:#cccccc;ticket:#eba601;selected:#fecc03;" data-id="748:::770" style="cursor:pointer">
		<polygon class="st2 svgshp" points="162,317.3 142.3,351.5 195.8,351.5 201.6,317.3 		" style="fill:#cccccc;"></polygon>
		<text transform="matrix(1 0 0 1 168.1584 341.8669)" class="st3 st0 st4">C1</text>
	</g>
	<g id="Doğu D1" data-select="zone:Doğu Üst Kat;zoneid:748;subzone:Doğu D1;subzoneid:769;noTicket:#cccccc;ticket:#eba601;selected:#fecc03;" data-id="748:::769" style="cursor:pointer">
		<polygon class="st2 svgshp" points="246.4,337 242.5,317.3 203,317.3 199.6,337 		" style="fill:#cccccc;"></polygon>
		<text transform="matrix(1 0 0 1 215.6482 331.7693)" class="st3 st0 st4">D1</text>
	</g>
	<g id="Doğu E1" data-select="zone:Doğu Üst Kat;zoneid:748;subzone:Doğu E1;subzoneid:768;noTicket:#cccccc;ticket:#eba601;selected:#fecc03;" data-id="748:::768" style="cursor:pointer">
		<polygon class="st2 svgshp" points="243.9,317.3 250.7,351.5 303.1,351.5 284.6,317.3 		" style="fill:#cccccc;"></polygon>
		<text transform="matrix(1 0 0 1 268.7063 341.8669)" class="st3 st0 st4">E1</text>
	</g>
	<g id="Doğu F1" data-select="zone:Doğu Üst Kat;zoneid:748;subzone:Doğu F1;subzoneid:767;noTicket:#cccccc;ticket:#eba601;selected:#fecc03;" data-id="748:::767" style="cursor:pointer">
		<path class="st2 svgshp" d="M324.2,316.1c-4.9,0.8-9.3,1.2-13.6,1.2h-24.4l18.5,34.2h1.1c13.8,0,27.6-2.4,40.9-7l2.6-1l-24-27.6
			L324.2,316.1z" style="fill:#cccccc;"></path>
		<text transform="matrix(1 0 0 1 313.3635 341.2195)" class="st3 st0 st4">F1</text>
	</g>
	<g id="Doğu G1" data-select="zone:Doğu Üst Kat;zoneid:748;subzone:Doğu G1;subzoneid:779;noTicket:#cccccc;ticket:#eba601;selected:#fecc03;" data-id="748:::779" style="cursor:pointer">
		<path class="st2 svgshp" d="M360.6,301c-9,6.6-19.3,11.3-30.7,14l-3,0.8l23.7,27.3l1.3-0.5c12.5-5,24.2-12.1,34.7-21.2l1.8-1.5
			l-26.6-19.8L360.6,301z" style="fill:#cccccc;"></path>
		<text transform="matrix(1 0 0 1 353.4866 329.1238)" class="st3 st0 st4">G1</text>
	</g>
	<g id="Batı A" data-select="zone:Batı Alt Kat;zoneid:751;subzone:Batı A;subzoneid:773;noTicket:#cccccc;ticket:#eba601;selected:#fecc03;" data-id="751:::773" style="cursor:pointer">
		<path class="st2 svgshp" d="M125,88c-11.2,1.7-21.7,5.7-31.2,11.6l-2.4,1.5l28.3,21.1l1-0.4c5.8-2.3,11.9-3.5,18.3-3.5h12.3L126,87.8
			L125,88z" style="fill:#cccccc;"></path>
		<text transform="matrix(1 0 0 1 118.802 112.3674)" class="st3 st0 st4">A</text>
	</g>
	<g id="Batı B" data-select="zone:Batı Alt Kat;zoneid:751;subzone:Batı B;subzoneid:752;noTicket:#cccccc;ticket:#eba601;selected:#fecc03;" data-id="751:::752" style="cursor:pointer">
		<polygon class="st2 svgshp" points="136.8,98.7 152.9,118.2 181.2,118.2 170.8,98.7 		" style="fill:#cccccc;"></polygon>
		<text transform="matrix(1 0 0 1 157.3044 115.9851)" class="st3 st0 st4">B</text>
	</g>
	<g id="Batı C" data-select="zone:Batı Alt Kat;zoneid:751;subzone:Batı C;subzoneid:753;noTicket:#cccccc;ticket:#eba601;selected:#fecc03;" data-id="751:::753" style="cursor:pointer">
		<polygon class="st2 svgshp" points="172.4,98.7 182.6,118.2 209.5,118.2 206.3,98.7 		" style="fill:#cccccc;"></polygon>
		<text transform="matrix(1 0 0 1 189.2185 115.9851)" class="st3 st0 st4">C</text>
	</g>
	<g id="Batı D" data-select="zone:Batı Alt Kat;zoneid:751;subzone:Batı D;subzoneid:754;noTicket:#cccccc;ticket:#eba601;selected:#fecc03;" data-id="751:::754" style="cursor:pointer">
		<polygon class="st2 svgshp" points="210.9,118.2 239.2,118.2 242.8,98.7 207.6,98.7 		" style="fill:#cccccc;"></polygon>
		<text transform="matrix(1 0 0 1 221.0222 115.9851)" class="st3 st0 st4">D</text>
	</g>
	<g id="Batı E" data-select="zone:Batı Alt Kat;zoneid:751;subzone:Batı E;subzoneid:755;noTicket:#cccccc;ticket:#eba601;selected:#fecc03;" data-id="751:::755" style="cursor:pointer">
		<polygon class="st2 svgshp" points="277.8,98.7 244.1,98.7 240.6,118.2 268.2,118.2 		" style="fill:#cccccc;"></polygon>
		<text transform="matrix(1 0 0 1 256.6643 115.9851)" class="st3 st0 st4">E</text>
	</g>
	<g id="Batı F" data-select="zone:Batı Alt Kat;zoneid:751;subzone:Batı F;subzoneid:756;noTicket:#cccccc;ticket:#eba601;selected:#fecc03;" data-id="751:::756" style="cursor:pointer">
		<polygon class="st2 svgshp" points="279.3,98.7 269.7,118.2 297.9,118.2 314,98.7 		" style="fill:#cccccc;"></polygon>
		<text transform="matrix(1 0 0 1 289.1711 115.9851)" class="st3 st0 st4">F</text>
	</g>
	<g id="Batı G" data-select="zone:Batı Alt Kat;zoneid:751;subzone:Batı G;subzoneid:775;noTicket:#cccccc;ticket:#eba601;selected:#fecc03;" data-id="751:::775" style="cursor:pointer">
		<path class="st2 svgshp" d="M325.4,88.4l-1.1-0.2l-24.6,30.2h12.2c6.2,0,12.2,1.1,17.8,3.2l1,0.3l27-20.4l-2.3-1.5
			C346.1,94.1,336,90.2,325.4,88.4z" style="fill:#cccccc;"></path>
		<text transform="matrix(1 0 0 1 326.8635 112.5295)" class="st3 st0 st4">G</text>
	</g>
	<g id="Batı A1" data-select="zone:Batı Üst Kat;zoneid:750;subzone:Batı A1;subzoneid:772;noTicket:#cccccc;ticket:#eba601;selected:#fecc03;" data-id="750:::772" style="cursor:pointer">
		<path class="st2 svgshp" d="M91.5,99.4c9.3-6,19.5-10.2,30.5-12.3l3.1-0.6L100,56.3l-1.3,0.5c-12.6,4.9-24.4,11.9-34.9,20.7L62.1,79
			l28.2,21L91.5,99.4z" style="fill:#cccccc;"></path>
		<text transform="matrix(1 0 0 1 88.9944 85.6912)" class="st3 st0 st4">A1</text>
	</g>
	<g id="Batı B1" data-select="zone:Batı Üst Kat;zoneid:750;subzone:Batı B1;subzoneid:762;noTicket:#cccccc;ticket:#eba601;selected:#fecc03;" data-id="750:::762" style="cursor:pointer">
		<path class="st2 svgshp" d="M127.7,86.4c3.6-0.4,6.8-0.6,10-0.6h26.1L144,48.4h-1.2c-13.2,0-26.2,2.2-38.9,6.5l-2.6,0.9l25.2,30.7
			L127.7,86.4z" style="fill:#cccccc;"></path>
		<text transform="matrix(1 0 0 1 128.3601 74.9451)" class="st3 st0 st4">B1</text>
	</g>
	<g id="Batı C1" data-select="zone:Batı Üst Kat;zoneid:750;subzone:Batı C1;subzoneid:763;noTicket:#cccccc;ticket:#eba601;selected:#fecc03;" data-id="750:::763" style="cursor:pointer">
		<polygon class="st2 svgshp" points="204,85.6 197.8,48.3 145.5,48.3 165.2,85.6 		" style="fill:#cccccc;"></polygon>
		<text transform="matrix(1 0 0 1 170.8582 74.5134)" class="st3 st0 st4">C1</text>
	</g>
	<g id="Batı D1" data-select="zone:Batı Üst Kat;zoneid:750;subzone:Batı D1;subzoneid:764;noTicket:#cccccc;ticket:#eba601;selected:#fecc03;" data-id="750:::764" style="cursor:pointer">
		<polygon class="st2 svgshp" points="245.2,85.6 252,48.3 199,48.3 205.4,85.6 		" style="fill:#cccccc;"></polygon>
		<text transform="matrix(1 0 0 1 217.1863 74.5134)" class="st3 st0 st4">D1</text>
	</g>
	<g id="Batı E1" data-select="zone:Batı Üst Kat;zoneid:750;subzone:Batı E1;subzoneid:765;noTicket:#cccccc;ticket:#eba601;selected:#fecc03;" data-id="750:::765" style="cursor:pointer">
		<polygon class="st2 svgshp" points="284.3,85.6 302.5,48.3 253.3,48.3 246.6,85.6 		" style="fill:#cccccc;"></polygon>
		<text transform="matrix(1 0 0 1 269.8411 74.5134)" class="st3 st0 st4">E1</text>
	</g>
	<g id="Batı F1" data-select="zone:Batı Üst Kat;zoneid:750;subzone:Batı F1;subzoneid:766;noTicket:#cccccc;ticket:#eba601;selected:#fecc03;" data-id="750:::766" style="cursor:pointer">
		<path class="st2 svgshp" d="M310.6,85.6c3.9,0,7.9,0.3,12.2,0.9l1.1,0.1L348.7,56l-2.6-0.9c-13.1-4.5-26.7-6.8-40.5-6.8h-1.7l-18.3,37.3
			H310.6z" style="fill:#cccccc;"></path>
		<text transform="matrix(1 0 0 1 312.7708 74.9451)" class="st3 st0 st4">F1</text>
	</g>
	<g id="Batı G1" data-select="zone:Batı Üst Kat;zoneid:750;subzone:Batı G1;subzoneid:774;noTicket:#cccccc;ticket:#eba601;selected:#fecc03;" data-id="750:::774" style="cursor:pointer">
		<path class="st2 svgshp" d="M328.3,87.5c10.5,2.3,20.3,6.4,29.3,12.3l1.1,0.8L387.1,79l-1.8-1.5c-10.4-8.6-21.8-15.6-34-20.4l-1.3-0.5
			l-24.7,30.2L328.3,87.5z" style="fill:#cccccc;"></path>
		<text transform="matrix(1 0 0 1 352.136 86.1233)" class="st3 st0 st4">G1</text>
	</g>
	<g id="Kale Arkası A" data-select="zone:Kuzey Alt Kat;zoneid:745;subzone:Kale Arkası A;subzoneid:784;noTicket:#cccccc;ticket:#eba601;selected:#fecc03;" data-id="745:::784" style="cursor:pointer">
		<path class="st2 svgshp" d="M363,297.5c8.4-6.9,15.3-14.9,20.4-24l1.1-1.8l-29.3-13l-0.9,1.3c-4.5,6.8-10.6,12.5-17.5,16.4l-2.5,1.4
			l27.6,20.4L363,297.5z" style="fill:#cccccc;"></path>
		<text transform="matrix(1 0 0 1 357.5911 286.031)" class="st3 st0 st4">A</text>
	</g>
	<g id="Kale Arkası B" data-select="zone:Kuzey Alt Kat;zoneid:745;subzone:Kale Arkası B;subzoneid:783;noTicket:#cccccc;ticket:#eba601;selected:#fecc03;" data-id="745:::783" style="cursor:pointer">
		<path class="st2 svgshp" d="M385.9,268.9c5.6-11.4,8.4-23.8,8.4-36.5v-6l-31.9-3.9v10.3c0,8.2-1.9,16.2-5.6,23.1l-1,1.8l29.3,13.1
			L385.9,268.9z" style="fill:#cccccc;"></path>
		<text transform="matrix(1 0 0 1 373.2512 253.74)" class="st3 st0 st4">B</text>
	</g>
	<g id="Kale Arkası C" data-select="zone:Kuzey Alt Kat;zoneid:745;subzone:Kale Arkası C;subzoneid:782;noTicket:#cccccc;ticket:#eba601;selected:#fecc03;" data-id="745:::782" style="cursor:pointer">
		<polygon class="st2 svgshp" points="394.2,224.9 394.2,176.1 362.3,181 362.3,220.9 		" style="fill:#cccccc;"></polygon>
		<text transform="matrix(1 0 0 1 376.1116 208.0007)" class="st3 st0 st4">C</text>
	</g>
	<g id="Kale Arkası D" data-select="zone:Kuzey Alt Kat;zoneid:745;subzone:Kale Arkası D;subzoneid:781;noTicket:#cccccc;ticket:#eba601;selected:#fecc03;" data-id="745:::781" style="cursor:pointer">
		<path class="st2 svgshp" d="M394.2,170.5c0-13.4-3.2-26.8-9.5-38.7l-0.9-1.5l-28.7,12.5l1,1.8c4.1,7.5,6.3,15.8,6.3,24.1l-0.1,10.9
			l31.9-4.9L394.2,170.5L394.2,170.5L394.2,170.5z" style="fill:#cccccc;"></path>
		<text transform="matrix(1 0 0 1 372.8713 162.5334)" class="st3 st0 st4">D</text>
	</g>
	<g id="Kale Arkası E" data-select="zone:Kuzey Alt Kat;zoneid:745;subzone:Kale Arkası E;subzoneid:780;noTicket:#cccccc;ticket:#eba601;selected:#fecc03;" data-id="745:::780" style="cursor:pointer">
		<path class="st2 svgshp" d="M359.9,103.2l-1.2-0.9L332,122.5l2.7,1.4c7.6,3.9,14,9.6,18.8,16.4l0.9,1.3l28.7-12.5l-1.1-1.8
			C376.2,117.7,368.7,109.6,359.9,103.2z" style="fill:#cccccc;"></path>
		<text transform="matrix(1 0 0 1 355.8616 129.4851)" class="st3 st0 st4">E</text>
	</g>
	<g id="Kale Arkası A1" data-select="zone:Kuzey Üst Kat;zoneid:744;subzone:Kale Arkası A1;subzoneid:789;noTicket:#cccccc;ticket:#eba601;selected:#fecc03;" data-id="744:::789" style="cursor:pointer">
		<path class="st2 svgshp" d="M384.7,273.7c-5,9.1-11.7,17.1-20,24l-1.8,1.5l26.5,19.7l1.2-1.1c9.6-9.1,17.6-19.3,23.8-30.6l1-1.8
			l-29.7-13.2L384.7,273.7z" style="fill:#cccccc;"></path>
		<text transform="matrix(1 0 0 1 384.9143 302.9871)" class="st3 st0 st4">A1</text>
	</g>
	<g id="Kale Arkası B1" data-select="zone:Kuzey Üst Kat;zoneid:744;subzone:Kale Arkası B1;subzoneid:788;noTicket:#cccccc;ticket:#eba601;selected:#fecc03;" data-id="744:::788" style="cursor:pointer">
		<path class="st2 svgshp" d="M395.6,232.4c0,12.9-2.8,25.3-8.4,36.8l-0.9,1.7l29.7,13.3l0.9-1.6c7.9-15.9,12.3-32.7,13-50.2l0.1-1.7
			l-34.2-4.2v5.9L395.6,232.4L395.6,232.4z" style="fill:#cccccc;"></path>
		<text transform="matrix(1 0 0 1 403.9768 262.7039)" class="st3 st0 st4">B1</text>
	</g>
	<g id="Kale Arkası C1" data-select="zone:Kuzey Üst Kat;zoneid:744;subzone:Kale Arkası C1;subzoneid:787;noTicket:#cccccc;ticket:#eba601;selected:#fecc03;" data-id="744:::787" style="cursor:pointer">
		<polygon class="st2 svgshp" points="395.6,225 429.8,229.3 429.8,170.7 395.6,175.9 		" style="fill:#cccccc;"></polygon>
		<text transform="matrix(1 0 0 1 408.3508 207.5154)" class="st3 st0 st4">C1</text>
	</g>
	<g id="Kale Arkası D1" data-select="zone:Kuzey Üst Kat;zoneid:744;subzone:Kale Arkası D1;subzoneid:786;noTicket:#cccccc;ticket:#eba601;selected:#fecc03;" data-id="744:::786" style="cursor:pointer">
		<path class="st2 svgshp" d="M386,131.5c6.3,12,9.5,25.5,9.5,39l0.1,1.9v2.2l34.2-5.2l-0.1-1.7c-0.8-17.5-5.1-34.2-12.7-49.8l-0.8-1.6
			l-31.1,13.5L386,131.5z" style="fill:#cccccc;"></path>
		<text transform="matrix(1 0 0 1 403.4915 152.9749)" class="st3 st0 st4">D1</text>
	</g>
	<g id="Kale Arkası E1" data-select="zone:Kuzey Üst Kat;zoneid:744;subzone:Kale Arkası E1;subzoneid:785;noTicket:#cccccc;ticket:#eba601;selected:#fecc03;" data-id="744:::785" style="cursor:pointer">
		<path class="st2 svgshp" d="M361.9,103c8.7,6.7,16.1,14.8,21.7,24.2l0.9,1.4l31.2-13.6l-1-1.8c-6.5-11.8-14.9-22.6-25.2-32.1l-1.2-1.1
			L360,101.5L361.9,103z" style="fill:#cccccc;"></path>
		<text transform="matrix(1 0 0 1 383.7268 111.8274)" class="st3 st0 st4">E1</text>
	</g>
	<g id="Kale Arkası B2" data-select="zone:Güney Alt Kat;zoneid:747;subzone:Kale Arkası B2;subzoneid:793;noTicket:#cccccc;ticket:#eba601;selected:#fecc03;" data-id="747:::793" style="cursor:pointer">
		<path class="st2 svgshp" d="M54.2,232.4c0,12.7,2.8,24.9,8.3,36.3l0.8,1.6l31.1-13.7l-0.9-1.7c-3.3-7.1-5.1-14.6-5.1-22v-11.1l-34.2,4.5
			V232.4z" style="fill:#cccccc;"></path>
		<text transform="matrix(1 0 0 1 69.6082 253.2537)" class="st3 st0 st4">B2</text>
	</g>
	<g id="Kale Arkası C2" data-select="zone:Güney Alt Kat;zoneid:747;subzone:Kale Arkası C2;subzoneid:792;noTicket:#cccccc;ticket:#eba601;selected:#fecc03;" data-id="747:::792" style="cursor:pointer">
		<polygon class="st2 svgshp" points="54.2,224.7 88.3,220.2 88.3,180.2 54.2,176.1 		" style="fill:#cccccc;"></polygon>
		<text transform="matrix(1 0 0 1 66.9622 207.8933)" class="st3 st0 st4">C2</text>
	</g>
	<g id="Kale Arkası D2" data-select="zone:Güney Alt Kat;zoneid:747;subzone:Kale Arkası D2;subzoneid:791;noTicket:#cccccc;ticket:#eba601;selected:#fecc03;" data-id="747:::791" style="cursor:pointer">
		<path class="st2 svgshp" d="M64,131.3c-6.5,12.1-9.8,25.7-9.8,39.3v4.2l34.2,4.1v-10c0-8.2,2.1-16.3,5.8-23.4l1-1.7l-30.3-14L64,131.3z" style="fill:#cccccc;"></path>
		<text transform="matrix(1 0 0 1 69.9866 161.9397)" class="st3 st0 st4">D2</text>
	</g>
	<g id="Kale Arkası E2" data-select="zone:Güney Alt Kat;zoneid:747;subzone:Kale Arkası E2;subzoneid:790;noTicket:#cccccc;ticket:#eba601;selected:#fecc03;" data-id="747:::790" style="cursor:pointer">
		<path class="st2 svgshp" d="M89.1,102.7c-9,6.4-16.7,14.7-22.5,24l-1.1,1.8l30.3,14l0.9-1.4c4.6-7.1,11.1-13,18.7-17l2.7-1.4l-28-21
			L89.1,102.7z" style="fill:#cccccc;"></path>
		<text transform="matrix(1 0 0 1 87.1047 129.5935)" class="st3 st0 st4">E2</text>
	</g>
	<g id="Kale Arkası B3" data-select="zone:Güney Üst Kat;zoneid:746;subzone:Kale Arkası B3;subzoneid:798;noTicket:#cccccc;ticket:#eba601;selected:#fecc03;" data-id="746:::798" style="cursor:pointer">
		<path class="st2 svgshp" d="M61.1,269.2c-5.5-11.8-8.3-24.1-8.3-36.8v-6l-33.3,4.4l0.1,1.7c0.6,17.3,4.9,33.9,12.6,49.6l0.8,1.6l29-12.8
			L61.1,269.2z" style="fill:#cccccc;"></path>
		<text transform="matrix(1 0 0 1 36.1282 262.3259)" class="st3 st0 st4">B3</text>
	</g>
	<g id="Kale Arkası C3" data-select="zone:Güney Üst Kat;zoneid:746;subzone:Kale Arkası C3;subzoneid:797;noTicket:#cccccc;ticket:#eba601;selected:#fecc03;" data-id="746:::797" style="cursor:pointer">
		<polygon class="st2 svgshp" points="52.7,175.9 19.4,171.9 19.4,229.3 52.7,224.9 		" style="fill:#cccccc;"></polygon>
		<text transform="matrix(1 0 0 1 31.8083 208.1101)" class="st3 st0 st4">C3</text>
	</g>
	<g id="Kale Arkası D3" data-select="zone:Güney Üst Kat;zoneid:746;subzone:Kale Arkası D3;subzoneid:796;noTicket:#cccccc;ticket:#eba601;selected:#fecc03;" data-id="746:::796" style="cursor:pointer">
		<path class="st2 svgshp" d="M52.7,170.5c0-13.7,3.5-27.4,9.9-39.7l1-1.7l-29.9-13.8l-0.9,1.6c-8.2,16.1-12.6,33.6-13.2,51.9v1.7l33.2,4
			L52.7,170.5L52.7,170.5z" style="fill:#cccccc;"></path>
		<text transform="matrix(1 0 0 1 36.9382 152.5437)" class="st3 st0 st4">D3</text>
	</g>
	<g id="Kale Arkası E3" data-select="zone:Güney Üst Kat;zoneid:746;subzone:Kale Arkası E3;subzoneid:795;noTicket:#cccccc;ticket:#eba601;selected:#fecc03;" data-id="746:::795" style="cursor:pointer">
		<path class="st2 svgshp" d="M65.2,126.4c5.7-9.4,13.1-17.5,21.8-24l2.1-1.5L61,80l-1.2,1.1c-10,9.2-18.3,19.7-24.6,31.1l-1,1.7l30,13.8
			L65.2,126.4z" style="fill:#cccccc;"></path>
		<text transform="matrix(1 0 0 1 57.1345 111.45)" class="st3 st0 st4">E3</text>
	</g>
	<g id="Kale Arkası A" data-select="zone:Misafir;zoneid:3472;subzone:Kale Arkası A;subzoneid:794;noTicket:#cccccc;ticket:#eba601;selected:#fecc03" data-id="3472:::794" style="cursor:pointer">
		<path class="st2 svgshp" d="M85.5,297.6l1.1,0.9l29.1-20.7l-2.5-1.5c-7-4.2-13.1-10.2-17.4-17.1l-0.9-1.4l-31.2,13.8l1.1,1.8
			C70.2,282.7,77.2,290.8,85.5,297.6z" style="fill:#cccccc;"></path>
		<text transform="matrix(1 0 0 1 87.2664 285.5994)" class="st3 st0 st4">A</text>
	</g>
	<g id="Kale Arkası A1" data-select="zone:Misafir;zoneid:3472;subzone:Kale Arkası A1;subzoneid:799;noTicket:#cccccc;ticket:#eba601;selected:#fecc03" data-id="3472:::799" style="cursor:pointer">
		<path class="st2 svgshp" d="M83.5,297.7c-8.1-6.7-14.9-14.9-20.1-24.1l-0.9-1.5l-28.8,12.7l1,1.8c6.2,11.3,13.9,21.5,23.2,30.3L59,318
			l26.2-18.9L83.5,297.7z" style="fill:#cccccc;"></path>
		<text transform="matrix(1 0 0 1 55.0286 302.5544)" class="st3 st0 st4">A1</text>
	</g>
	<g>
		<g>
			<rect x="117.7" y="134.2" class="st5" width="215.4" height="132.5"></rect>
			<rect x="117.7" y="134.2" class="st6" width="17.9" height="132.6"></rect>
			<rect x="157.2" y="134.2" class="st6" width="17.9" height="132.6"></rect>
			<rect x="196.7" y="134.2" class="st6" width="17.9" height="132.6"></rect>
			<rect x="236.1" y="134.2" class="st6" width="17.9" height="132.6"></rect>
			<rect x="275.7" y="134.2" class="st6" width="17.9" height="132.6"></rect>
			<rect x="315.2" y="134.2" class="st6" width="17.9" height="132.6"></rect>
		</g>
		<g>
			<g>
				<circle class="st7" cx="225.5" cy="200.4" r="24.7"></circle>
			</g>
			<g>
				<g>
					<line class="st9" x1="225.5" y1="134.2" x2="225.5" y2="266.7"></line>
				</g>
			</g>
			<g>
				<g>
					<line class="st10" x1="332.6" y1="159.9" x2="298.9" y2="159.9"></line>
					<line class="st11" x1="298.9" y1="159.9" x2="298.9" y2="240.9"></line>
					<line class="st10" x1="298.9" y1="240.9" x2="332.6" y2="240.9"></line>
				</g>
			</g>
			<g>
				<g>
					<line class="st8" x1="332.6" y1="181.7" x2="320.8" y2="181.7"></line>
					<line class="st12" x1="320.8" y1="181.7" x2="320.8" y2="219.2"></line>
					<line class="st8" x1="320.8" y1="219.2" x2="332.6" y2="219.2"></line>
				</g>
			</g>
			<g>
				<g>
					<line class="st13" x1="118.4" y1="159.9" x2="151.9" y2="159.9"></line>
					<line class="st11" x1="151.9" y1="159.9" x2="151.9" y2="240.9"></line>
					<line class="st13" x1="151.9" y1="240.9" x2="118.4" y2="240.9"></line>
				</g>
			</g>
			<g>
				<g>
					<line class="st8" x1="118.4" y1="181.7" x2="131.3" y2="181.7"></line>
					<line class="st12" x1="131.3" y1="181.7" x2="131.3" y2="219.2"></line>
					<line class="st8" x1="131.3" y1="219.2" x2="118.4" y2="219.2"></line>
				</g>
			</g>
		</g>
	</g>
</g>
</svg>