<svg version="1.1" id="kadir_has_kayseri" xmlns="http://www.w3.org/2000/svg" xmlns:xlink="http://www.w3.org/1999/xlink" x="0px" y="0px" viewBox="0 0 450 400" style="width: 100%; height: 100%;" xml:space="preserve">
	
	 <defs>
      <style type="text/css">@import url('https://fonts.googleapis.com/css?family=Poppins');</style>
    </defs>
	
	
<style type="text/css">
	.st0{font-family:'Poppins';}
	.st1{font-size:11px;}
	.st2{fill:#CCCCCC;}
	.st3{fill:#FFFFFF;}
	.st4{font-family:'Poppins';}
	.st5{font-size:17.4989px;}
	.st6{font-size:8.1662px;}
	.st7{font-size:13.27px;}
	.st8{font-size:15.3116px;}
	.st9{fill:#79B954;}
	.st10{fill:#9FCD85;}
	.st11{fill:none;stroke:#FFFFFF;stroke-width:2;stroke-linecap:round;stroke-miterlimit:10;}
</style>
<g>
	<text transform="matrix(1 0 0 1 174.1707 45.7134)" class="st0 st1">MARATON TRİBÜN</text>
	<text transform="matrix(1 0 0 1 182.9875 361.9453)" class="st0 st1">KAPALI TRİBÜN</text>
	<text transform="matrix(0 -1 1 0 15.7124 283.7002)" class="st0 st1">KUZEY KAALE ARAKASI TRİBÜN</text>
	<text transform="matrix(0 1 -1 0 434.2871 114.6829)" class="st0 st1">GÜNEY KAALE ARAKASI TRİBÜN</text>
	<g id="Güney A" data-select="zone:Güney Kale Arkası;zoneid:3326;subzone:Güney A;subzoneid:3344;noTicket:#cccccc;ticket:#eba601;selected:#fecc03;" data-id="3326:::3344" style="cursor:pointer">
		<path class="st2 svgshp" d="M422.9,140.8c-3.8-16-10.5-30.6-19.4-43.2l-59,37.3c6.1,6,10.8,13.2,13.6,21.3L422.9,140.8z" style="fill:#fecc03;"></path>
		<text transform="matrix(1 0 0 1 382.1982 136.7217)" class="st3 st4 st5">A</text>
	</g>
	<g id="Güney B" data-select="zone:Güney Kale Arkası;zoneid:3326;subzone:Güney B;subzoneid:3345;noTicket:#cccccc;ticket:#eba601;selected:#fecc03;" data-id="3326:::3345" style="cursor:pointer">
		<path class="st2 svgshp" d="M361,173.9v9.6h65.4v-12.3c0-9.5-1-18.7-2.9-27.6l-64.6,15.3C360.3,163.7,361,168.7,361,173.9z" style="fill:#fecc03;"></path>
		<text transform="matrix(1 0 0 1 388 173.3086)" class="st3 st4 st5">B</text>
	</g>
	<g id="Güney C" data-select="zone:Güney Kale Arkası;zoneid:3326;subzone:Güney C;subzoneid:3346;noTicket:#cccccc;ticket:#eba601;selected:#fecc03;" data-id="3326:::3346" style="cursor:pointer">
		<path class="st2 svgshp" d="M361,186.4v36l65.3,8.2c0-1,0-2.1,0-3.1v-41.1H361L361,186.4z" style="fill:#fecc03;"></path>
		<text transform="matrix(1 0 0 1 388.2217 211.6953)" class="st3 st4 st5">C</text>
	</g>
	<g id="Güney D" data-select="zone:Güney Kale Arkası;zoneid:3326;subzone:Güney D;subzoneid:3347;noTicket:#cccccc;ticket:#eba601;selected:#fecc03;" data-id="3326:::3347" style="cursor:pointer">
		<path class="st2 svgshp" d="M426.3,233.5l-65.2-8.2v0.4c0,12.2-4.1,23.4-11.1,32.6l67.5,16.7C422.5,262.2,425.6,248.2,426.3,233.5z" style="fill:#fecc03;"></path>
		<text transform="matrix(1 0 0 1 387.3555 253.9424)" class="st3 st4 st5">D</text>
	</g>
	<g id="Güney E" data-select="zone:Güney Kale Arkası;zoneid:3326;subzone:Güney E;subzoneid:3348;noTicket:#cccccc;ticket:#eba601;selected:#fecc03;" data-id="3326:::3348" style="cursor:pointer">
		<path class="st2 svgshp" d="M348,260.8c-6.3,7.5-14.6,13.5-24.2,17.2l60.6,43.7c13.6-11.5,24.6-26.6,31.9-44L348,260.8z" style="fill:#fecc03;"></path>
		<text transform="matrix(1 0 0 1 368.1279 292.5127)" class="st3 st4 st5">E</text>
	</g>
	<g id="Kapalı A1" data-select="zone:Kapalı Tribün;zoneid:3323;subzone:Kapalı A1;subzoneid:3423;noTicket:#cccccc;ticket:#eba601;selected:#fecc03;" data-id="3323:::3423" style="cursor:pointer">
		<path class="st2 svgshp" d="M358.6,337.9c7.8-3.4,15.2-7.8,21.9-13l-35.3-25.5c-1,1.8-2.2,3.5-3.6,5c-1.9,2.1-4.1,3.6-6.4,4.9
			L358.6,337.9z" style="fill:#fecc03;"></path>
		<text transform="matrix(1 0 0 1 349.9736 321.7832)" class="st3 st4 st6">A1</text>
	</g>
	<g id="Kapalı B1" data-select="zone:Kapalı Tribün;zoneid:3323;subzone:Kapalı B1;subzoneid:3419;noTicket:#cccccc;ticket:#eba601;selected:#fecc03;" data-id="3323:::3419" style="cursor:pointer">
		<path class="st2 svgshp" d="M332.8,310.5c-4.2,1.8-8.5,2.5-11.5,2.7l9.4,32.1c8.8-1,17.3-3.1,25.3-6.4L332.8,310.5z" style="fill:#fecc03;"></path>
		<text transform="matrix(1 0 0 1 330.5479 331.0254)" class="st3 st4 st6">B1</text>
	</g>
	<g id="Kapalı C1" data-select="zone:Kapalı Tribün;zoneid:3323;subzone:Kapalı C1;subzoneid:3426;noTicket:#cccccc;ticket:#eba601;selected:#fecc03;" data-id="3323:::3426" style="cursor:pointer">
		<path class="st2 svgshp" d="M319.4,313.3c-1.2,0-2.1,0-2.3,0c-0.5,0-4.1,0-10.1,0l5.9,32.6h7.4c2.9,0,5.8-0.1,8.6-0.4L319.4,313.3z" style="fill:#fecc03;"></path>
		<text transform="matrix(1 0 0 1 312.8066 332.3379)" class="st3 st4 st6">C1</text>
	</g>
	<g id="Kapalı D1" data-select="zone:Kapalı Tribün;zoneid:3323;subzone:Kapalı D1;subzoneid:3425;noTicket:#cccccc;ticket:#eba601;selected:#fecc03;" data-id="3323:::3425" style="cursor:pointer">
		<path class="st2 svgshp" d="M304.7,313.3c-3,0-6.5,0-10.5,0v32.5h16.4L304.7,313.3z" style="fill:#fecc03;"></path>
		<text transform="matrix(1 0 0 1 295.8184 332.3379)" class="st3 st4 st6">D1</text>
	</g>
	<g id="Kapalı E1" data-select="zone:Kapalı Tribün;zoneid:3323;subzone:Kapalı E1;subzoneid:3424;noTicket:#cccccc;ticket:#eba601;selected:#fecc03;" data-id="3323:::3424" style="cursor:pointer">
		<path class="st2 svgshp" d="M278.9,313.4v32.5h13.5v-32.5C288.2,313.4,283.7,313.4,278.9,313.4z" style="fill:#fecc03;"></path>
		<text transform="matrix(1 0 0 1 281.2354 332.3379)" class="st3 st4 st6">E1</text>
	</g>
	<g id="Kapalı F1" data-select="zone:Kapalı Tribün;zoneid:3323;subzone:Kapalı F1;subzoneid:3417;noTicket:#cccccc;ticket:#eba601;selected:#fecc03;" data-id="3323:::3417" style="cursor:pointer">
		<path class="st2 svgshp" d="M263.5,313.4v32.5H277v-32.5C272.7,313.4,268.2,313.4,263.5,313.4z" style="fill:#fecc03;"></path>
		<text transform="matrix(1 0 0 1 266.2891 332.3379)" class="st3 st4 st6">F1</text>
	</g>
	<g id="Kapalı G" data-select="zone:Kapalı Tribün;zoneid:3323;subzone:Kapalı G;subzoneid:3416;noTicket:#cccccc;ticket:#eba601;selected:#fecc03;" data-id="3323:::3416" style="cursor:pointer">
		<path class="st2 svgshp" d="M248.1,313.4v32.5h13.5v-32.5C257.2,313.4,252.7,313.4,248.1,313.4z" style="fill:#fecc03;"></path>
		<text transform="matrix(1 0 0 1 250.542 333.2129)" class="st3 st4 st7">G</text>
	</g>
	<g id="Kapalı H" data-select="zone:Kapalı Tribün;zoneid:3323;subzone:Kapalı H;subzoneid:3414;noTicket:#cccccc;ticket:#eba601;selected:#fecc03;" data-id="3323:::3414" style="cursor:pointer">
		<path class="st2 svgshp" d="M232.7,313.4v32.5h13.5v-32.5C241.8,313.4,237.3,313.4,232.7,313.4z" style="fill:#fecc03;"></path>
		<text transform="matrix(1 0 0 1 234.4648 333.2129)" class="st3 st4 st7">H</text>
	</g>
	<g id="Kapalı Sol A1" data-select="zone:Kapalı Tribün;zoneid:3323;subzone:Kapalı Sol A1;subzoneid:3411;noTicket:#cccccc;ticket:#eba601;selected:#fecc03;" data-id="3323:::3411" style="cursor:pointer">
		<path class="st2 svgshp" d="M188.1,313.3v32.6h12.1v-32.5C196.2,313.3,192.1,313.3,188.1,313.3z" style="fill:#fecc03;"></path>
		<text transform="matrix(1 0 0 1 189.8462 332.5176)" class="st3 st4 st6">A1</text>
	</g>
	<g id="Kapalı Sol B1" data-select="zone:Kapalı Tribün;zoneid:3323;subzone:Kapalı Sol B1;subzoneid:3410;noTicket:#cccccc;ticket:#eba601;selected:#fecc03;" data-id="3323:::3410" style="cursor:pointer">
		<path class="st2 svgshp" d="M174.1,313.2v32.7h12.1v-32.6C182.1,313.3,178.1,313.3,174.1,313.2z" style="fill:#fecc03;"></path>
		<text transform="matrix(1 0 0 1 175.6465 332.5176)" class="st3 st4 st6">B1</text>
	</g>
	<g id="Kapalı Sol C1" data-select="zone:Kapalı Tribün;zoneid:3323;subzone:Kapalı Sol C1;subzoneid:3409;noTicket:#cccccc;ticket:#eba601;selected:#fecc03;" data-id="3323:::3409" style="cursor:pointer">
		<path class="st2 svgshp" d="M160.1,313.1v32.8h12.1v-32.7C168.1,313.2,164,313.2,160.1,313.1z" style="fill:#fecc03;"></path>
		<text transform="matrix(1 0 0 1 161.5557 332.5176)" class="st3 st4 st6">C1</text>
	</g>
	<g id="Kapalı Sol D1" data-select="zone:Kapalı Tribün;zoneid:3323;subzone:Kapalı Sol D1;subzoneid:3404;noTicket:#cccccc;ticket:#eba601;selected:#fecc03" data-id="3323:::3404" style="cursor:pointer">
		<path class="st2 svgshp" d="M146,313v32.9h12.1v-32.8C154,313.1,149.9,313,146,313z" style="fill:#fecc03;"></path>
		<text transform="matrix(1 0 0 1 146.9966 332.5176)" class="st3 st4 st6">D1</text>
	</g>
	<g id="Kapalı E1" data-select="zone:Kapalı Tribün;zoneid:3323;subzone:Kapalı E1;subzoneid:3403;noTicket:#cccccc;ticket:#eba601;selected:#fecc03;" data-id="3323:::3403" style="cursor:pointer">
		<path class="st2 svgshp" d="M130.8,312.8l-10,32.7c2.9,0.3,5.9,0.4,8.9,0.4h14.4V313C139.3,312.9,134.9,312.8,130.8,312.8z" style="fill:#fecc03;"></path>
		<text transform="matrix(1 0 0 1 131.1108 332.3379)" class="st3 st4 st6">E1</text>
	</g>
	<g id="Kapalı F1" data-select="zone:Kapalı Tribün;zoneid:3323;subzone:Kapalı F1;subzoneid:3402;noTicket:#cccccc;ticket:#eba601;selected:#fecc03;" data-id="3323:::3402" style="cursor:pointer">
		<path class="st2 svgshp" d="M128.6,312.7c-5.5-0.1-10.1-0.2-13.5-0.4l-16.3,28.5c6.4,2.2,13,3.7,19.8,4.5L128.6,312.7z" style="fill:#fecc03;"></path>
		<text transform="matrix(1 0 0 1 111.2432 331.0254)" class="st3 st4 st6">F1</text>
	</g>
	<g id="Kapalı H" data-select="zone:Kapalı Tribün;zoneid:3323;subzone:Kapalı H;subzoneid:3400;noTicket:#cccccc;ticket:#eba601;selected:#fecc03;" data-id="3323:::3400" style="cursor:pointer">
		<path class="st2 svgshp" d="M112.7,312.2c-6.5-0.4-12.1-1.7-16.6-4l-19.3,21.9c6.3,4.1,13.1,7.4,20.1,10l15.9-27.9
			C112.8,312.2,112.8,312.2,112.7,312.2z" style="fill:#fecc03;"></path>
		<text transform="matrix(1 0 0 1 91.2578 326.6514)" class="st3 st4 st7">H</text>
	</g>
	<g id="Kapalı G" data-select="zone:Kapalı Tribün;zoneid:3323;subzone:Kapalı G;subzoneid:3399;noTicket:#cccccc;ticket:#eba601;selected:#fecc03;" data-id="3323:::3399" style="cursor:pointer">
		<path class="st2 svgshp" d="M94.2,307.2c-2.4-1.5-4.5-3.2-6.3-5.3c-0.9-1.1-1.7-2.3-2.4-3.4l-26.9,17c5,5.1,10.5,9.6,16.3,13.5
			L94.2,307.2z" style="fill:#fecc03;"></path>
		<text transform="matrix(1 0 0 1 73.3945 317.3174)" class="st3 st4 st7">G</text>
	</g>
	<g id="Kapalı A" data-select="zone:Kapalı Tribün;zoneid:3323;subzone:Kapalı A;subzoneid:3422;noTicket:#cccccc;ticket:#eba601;selected:#fecc03;" data-id="3323:::3422" style="cursor:pointer">
		<path class="st2 svgshp" d="M339.6,302.5c1.3-1.4,2.4-3,3.3-4.7L318.2,280c-2,0.6-4.1,1.1-6.2,1.5l8.5,29
			C325.2,310,333.8,308.6,339.6,302.5z" style="fill:#fecc03;"></path>
		<text transform="matrix(1 0 0 1 321.3359 300.6211)" class="st3 st4 st7">A</text>
	</g>
	<g id="Kapalı B" data-select="zone:Kapalı Tribün;zoneid:3323;subzone:Kapalı B;subzoneid:3421;noTicket:#cccccc;ticket:#eba601;selected:#fecc03;" data-id="3323:::3421" style="cursor:pointer">
		<path class="st2 svgshp" d="M317.1,310.4L317.1,310.4c0.1,0,0.6,0,1.4,0l-8.5-28.7c-3.2,0.5-6.5,0.7-9.8,0.7h-6v28
			C308,310.5,316.7,310.4,317.1,310.4z" style="fill:#fecc03;"></path>
		<text transform="matrix(1 0 0 1 298.7129 300.6211)" class="st3 st4 st7">B</text>
	</g>
	<g id="Kapalı C" data-select="zone:Kapalı Tribün;zoneid:3323;subzone:Kapalı C;subzoneid:3418;noTicket:#cccccc;ticket:#eba601;selected:#fecc03;" data-id="3323:::3418" style="cursor:pointer">
		<path class="st2 svgshp" d="M292.3,310.5v-28h-13.5v28.1C283.7,310.5,288.2,310.5,292.3,310.5z" style="fill:#fecc03;"></path>
		<text transform="matrix(1 0 0 1 281.9971 300.6211)" class="st3 st4 st7">C</text>
	</g>
	<g id="Kapalı D" data-select="zone:Kapalı Tribün;zoneid:3323;subzone:Kapalı D;subzoneid:3420;noTicket:#cccccc;ticket:#eba601;selected:#fecc03;" data-id="3323:::3420" style="cursor:pointer">
		<path class="st2 svgshp" d="M276.9,310.5v-28.1h-13.5v28.1C268.2,310.5,272.7,310.5,276.9,310.5z" style="fill:#fecc03;"></path>
		<text transform="matrix(1 0 0 1 266.5811 300.6211)" class="st3 st4 st7">D</text>
	</g>
	<g id="Kapalı E" data-select="zone:Kapalı Tribün;zoneid:3323;subzone:Kapalı E;subzoneid:3415;noTicket:#cccccc;ticket:#eba601;selected:#fecc03;" data-id="3323:::3415" style="cursor:pointer">
		<path class="st2 svgshp" d="M261.6,310.5v-28.1h-13.5v28.1C252.7,310.5,257.2,310.5,261.6,310.5z" style="fill:#fecc03;"></path>
		<text transform="matrix(1 0 0 1 250.7969 300.6211)" class="st3 st4 st7">E</text>
	</g>
	<g id="Kapalı F" data-select="zone:Kapalı Tribün;zoneid:3323;subzone:Kapalı F;subzoneid:3413;noTicket:#cccccc;ticket:#eba601;selected:#fecc03;" data-id="3323:::3413" style="cursor:pointer">
		<path class="st2 svgshp" d="M246.2,310.5v-28.1h-13.5v28.1C237.3,310.5,241.8,310.5,246.2,310.5z" style="fill:#fecc03;"></path>
		<text transform="matrix(1 0 0 1 235.4854 300.6211)" class="st3 st4 st7">F</text>
	</g>
	<g id="BOŞ" data-select="zone:Kapalı Tribün;zoneid:3323;subzone:BOŞ;subzoneid:3412;noTicket:#cccccc;ticket:#eba601;selected:#fecc03;" data-id="3323:::3412" style="cursor:pointer">
		<polyline class="st2 svgshp" points="230.8,310.5 230.8,282.5 202.2,282.5 202.2,310.5 		" style="fill:#fecc03;"></polyline>
		<polyline class="st2 svgshp" points="202.2,310.5 202.2,345.9 230.8,345.9 230.8,310.5 		" style="fill:#fecc03;"></polyline>
	</g>
	<g id="Kapalı A" data-select="zone:Kapalı Tribün;zoneid:3323;subzone:Kapalı A;subzoneid:3408;noTicket:#cccccc;ticket:#eba601;selected:#fecc03;" data-id="3323:::3408" style="cursor:pointer">
		<path class="st2 svgshp" d="M200.2,310.5v-28h-12.1v28C192.1,310.4,196.2,310.5,200.2,310.5z" style="fill:#fecc03;"></path>
		<text transform="matrix(1 0 0 1 190.126 301.3643)" class="st3 st4 st7">A</text>
	</g>
	<g id="Kapalı B" data-select="zone:Kapalı Tribün;zoneid:3323;subzone:Kapalı B;subzoneid:3407;noTicket:#cccccc;ticket:#eba601;selected:#fecc03;" data-id="3323:::3407" style="cursor:pointer">
		<path class="st2 svgshp" d="M186.2,310.4v-28h-12.1v27.9C178.1,310.4,182.1,310.4,186.2,310.4z" style="fill:#fecc03;"></path>
		<text transform="matrix(1 0 0 1 176.0952 301.3643)" class="st3 st4 st7">B</text>
	</g>
	<g id="Kapalı C" data-select="zone:Kapalı Tribün;zoneid:3323;subzone:Kapalı C;subzoneid:3406;noTicket:#cccccc;ticket:#eba601;selected:#fecc03;" data-id="3323:::3406" style="cursor:pointer">
		<path class="st2 svgshp" d="M172.2,310.3v-27.9h-12.1v27.8C164,310.3,168.1,310.3,172.2,310.3z" style="fill:#fecc03;"></path>
		<text transform="matrix(1 0 0 1 162.3174 301.3643)" class="st3 st4 st7">C</text>
	</g>
	<g id="Kapalı D" data-select="zone:Kapalı Tribün;zoneid:3323;subzone:Kapalı D;subzoneid:3405;noTicket:#cccccc;ticket:#eba601;selected:#fecc03;" data-id="3323:::3405" style="cursor:pointer">
		<path class="st2 svgshp" d="M158.2,310.2v-27.8h-7.6c-1.5,0-3-0.1-4.5-0.2V310C149.9,310.2,154,310.2,158.2,310.2z" style="fill:#fecc03;"></path>
		<text transform="matrix(1 0 0 1 147.3706 301.3643)" class="st3 st4 st7">D</text>
	</g>
	<g id="Kapalı E" data-select="zone:Kapalı Tribün;zoneid:3323;subzone:Kapalı E;subzoneid:3401;noTicket:#cccccc;ticket:#eba601;selected:#fecc03;" data-id="3323:::3401" style="cursor:pointer">
		<path class="st2 svgshp" d="M144.1,310.1v-27.9c-3.7-0.4-7.3-1-10.7-2l-16.7,29.3C123.1,309.7,132.6,309.9,144.1,310.1z" style="fill:#fecc03;"></path>
		<text transform="matrix(1 0 0 1 131.1475 301.3643)" class="st3 st4 st7">E</text>
	</g>
	<g id="Kapalı F" data-select="zone:Kapalı Tribün;zoneid:3323;subzone:Kapalı F;subzoneid:3398;noTicket:#cccccc;ticket:#eba601;selected:#fecc03;" data-id="3323:::3398" style="cursor:pointer">
		<path class="st2 svgshp" d="M121.6,275.6l-33.7,21.3c0.6,1.1,1.3,2.1,2.2,3.1c4.7,5.6,12.4,8.7,22.8,9.3c0.5,0,1,0.1,1.6,0.1l17-29.8
			C128.1,278.5,124.8,277.2,121.6,275.6z" style="fill:#fecc03;"></path>
		<text transform="matrix(1 0 0 1 108.7593 298.0469)" class="st3 st4 st7">F</text>
	</g>
	<g id="Kuzey A" data-select="zone:Kuzey Kale Arkası;zoneid:3325;subzone:Kuzey A;subzoneid:3353;noTicket:#cccccc;ticket:#eba601;selected:#fecc03;" data-id="3325:::3353" style="cursor:pointer">
		<path class="st2 svgshp" d="M98.7,255.2l-67.2,17.4c5.5,14.9,13.6,28.2,23.7,39.3l61.6-38.9C109.5,268.4,103.3,262.3,98.7,255.2z" style="fill:#cccccc;"></path>
		<text transform="matrix(1 0 0 1 70.1826 282.4668)" class="st3 st4 st5">A</text>
	</g>
	<g id="Kuzey B" data-select="zone:Kuzey Kale Arkası;zoneid:3325;subzone:Kuzey B;subzoneid:3352;noTicket:#cccccc;ticket:#eba601;selected:#fecc03;" data-id="3325:::3352" style="cursor:pointer">
		<path class="st2 svgshp" d="M89.8,225.7v-3.3l-66.3,4.4v0.6c0,14.9,2.5,29.2,7,42.4L97,252.6C92.4,244.6,89.8,235.5,89.8,225.7z" style="fill:#cccccc;"></path>
		<text transform="matrix(1 0 0 1 50.4648 246.1406)" class="st3 st4 st5">B</text>
	</g>
	<g id="Kuzey C" data-select="zone:Kuzey Kale Arkası;zoneid:3325;subzone:Kuzey C;subzoneid:3351;noTicket:#cccccc;ticket:#eba601;selected:#fecc03;" data-id="3325:::3351" style="cursor:pointer">
		<polygon class="st2 svgshp" points="23.5,224 89.8,219.5 89.8,187.8 23.5,178.7 		" style="fill:#cccccc;"></polygon>
		<text transform="matrix(1 0 0 1 49.667 206.9463)" class="st3 st4 st5">C</text>
	</g>
	<g id="KuzeyD" data-select="zone:Kuzey Kale Arkası;zoneid:3325;subzone:KuzeyD;subzoneid:3350;noTicket:#cccccc;ticket:#eba601;selected:#fecc03;" data-id="3325:::3350" style="cursor:pointer">
		<path class="st2 svgshp" d="M23.5,171.2v4.6l66.3,9.1v-11c0-5.8,0.9-11.4,2.7-16.7l-63.2-24.5C25.6,144.8,23.5,157.7,23.5,171.2z" style="fill:#cccccc;"></path>
		<text transform="matrix(1 0 0 1 49.8203 166.8984)" class="st3 st4 st5">D</text>
	</g>
	<g id="Kuzey E" data-select="zone:Kuzey Kale Arkası;zoneid:3325;subzone:Kuzey E;subzoneid:3349;noTicket:#cccccc;ticket:#eba601;selected:#fecc03;" data-id="3325:::3349" style="cursor:pointer">
		<path class="st2 svgshp" d="M93.5,154.5c3.6-9.3,9.8-17.5,17.7-23.8L53.3,89c-10.1,11.6-18,25.5-23.2,41L93.5,154.5z" style="fill:#cccccc;"></path>
		<text transform="matrix(1 0 0 1 65.9805 129.7129)" class="st3 st4 st5">E</text>
	</g>
	<g id="Maraton H" data-select="zone:Maraton Tribün;zoneid:3324;subzone:Maraton H;subzoneid:3397;noTicket:#cccccc;ticket:#eba601;selected:#fecc03;" data-id="3324:::3397" style="cursor:pointer">
		<path class="st2 svgshp" d="M355.6,100c-6.7-3.3-12.9-4.4-15.1-4.7l-18.1,26.4c6.8,2.5,13,6.1,18.3,10.5l30.1-19
			C367.3,107.7,362.2,103.3,355.6,100z" style="fill:#fecc03;"></path>
		<text transform="matrix(1 0 0 1 341.1113 117.1729)" class="st3 st4 st8">H</text>
	</g>
	<g id="Maraton G" data-select="zone:Maraton Tribün;zoneid:3324;subzone:Maraton G;subzoneid:3395;noTicket:#cccccc;ticket:#eba601;selected:#fecc03;" data-id="3324:::3395" style="cursor:pointer">
		<path class="st2 svgshp" d="M302.2,94.2l-5.3,22.9h3.4c6.9,0,13.6,1.1,19.8,3.1l17.2-25.7C332.1,94.5,319.3,94.4,302.2,94.2z" style="fill:#fecc03;"></path>
		<text transform="matrix(1 0 0 1 309.0303 110.0898)" class="st3 st4 st8">G</text>
	</g>
	<g id="Maraton F" data-select="zone:Maraton Tribün;zoneid:3324;subzone:Maraton F;subzoneid:3393;noTicket:#cccccc;ticket:#eba601;selected:#fecc03;" data-id="3324:::3393" style="cursor:pointer">
		<path class="st2 svgshp" d="M265.9,93.9v23.2h28.5l5.3-23C289.6,94.1,278.1,94,265.9,93.9z" style="fill:#fecc03;"></path>
		<text transform="matrix(1 0 0 1 277.751 110.0898)" class="st3 st4 st8">F</text>
	</g>
	<g id="Maraton E" data-select="zone:Maraton Tribün;zoneid:3324;subzone:Maraton E;subzoneid:3392;noTicket:#cccccc;ticket:#eba601;selected:#fecc03;" data-id="3324:::3392" style="cursor:pointer">
		<path class="st2 svgshp" d="M232.3,93.7v23.4h31.2V93.9C253.4,93.9,242.9,93.8,232.3,93.7z" style="fill:#fecc03;"></path>
		<text transform="matrix(1 0 0 1 244.2207 110.0898)" class="st3 st4 st8">E</text>
	</g>
	<g id="Maraton D" data-select="zone:Maraton Tribün;zoneid:3324;subzone:Maraton D;subzoneid:3389;noTicket:#cccccc;ticket:#eba601;selected:#fecc03;" data-id="3324:::3389" style="cursor:pointer">
		<path class="st2 svgshp" d="M198.7,93.7v23.5h31.2V93.7C219.4,93.7,208.8,93.7,198.7,93.7z" style="fill:#fecc03;"></path>
		<text transform="matrix(1 0 0 1 209.8232 110.0898)" class="st3 st4 st8">D</text>
	</g>
	<g id="Maraton C" data-select="zone:Maraton Tribün;zoneid:3324;subzone:Maraton C;subzoneid:3387;noTicket:#cccccc;ticket:#eba601;selected:#fecc03;" data-id="3324:::3387" style="cursor:pointer">
		<path class="st2 svgshp" d="M164.5,93.7l6.9,23.4h24.8V93.6C185.1,93.6,174.3,93.7,164.5,93.7z" style="fill:#fecc03;"></path>
		<text transform="matrix(1 0 0 1 178.0498 110.0898)" class="st3 st4 st8">C</text>
	</g>
	<g id="Maraton B" data-select="zone:Misafir;zoneid:3327;subzone:Maraton B;subzoneid:3386;noTicket:#cccccc;ticket:#eba601;selected:#fecc03;" data-id="3327:::3386" style="cursor:pointer">
		<path class="st2 svgshp" d="M125.1,94.4l15.7,23.5c3.2-0.5,6.5-0.7,9.8-0.7H169l-7-23.5C146.2,93.8,133.2,94.1,125.1,94.4z" style="fill:#fecc03;"></path>
		<text transform="matrix(1 0 0 1 146.2773 110.0898)" class="st3 st4 st8">B</text>
	</g>
	<g id="Maraton A" data-select="zone:Misafir;zoneid:3327;subzone:Maraton A;subzoneid:3384;noTicket:#cccccc;ticket:#eba601;selected:#fecc03;" data-id="3327:::3384" style="cursor:pointer">
		<path class="st2 svgshp" d="M121.3,94.6c-16.8,1.1-27.6,7.6-33.6,12.8c-0.1,0.1-0.2,0.2-0.3,0.3l27.8,20.1c6.7-4.5,14.5-7.7,22.9-9.4
			l-15.9-23.8C122,94.6,121.6,94.6,121.3,94.6z" style="fill:#fecc03;"></path>
		<text transform="matrix(1 0 0 1 110.1851 114.5479)" class="st3 st4 st8">A</text>
	</g>
	<g id="Maraton A1" data-select="zone:Misafir;zoneid:3327;subzone:Maraton A1;subzoneid:3383;noTicket:#cccccc;ticket:#eba601;selected:#fecc03;" data-id="3327:::3383" style="cursor:pointer">
		<path class="st2 svgshp" d="M85.4,105c6.3-5.5,17.4-12.3,34.7-13.6L98,58.2C82.3,63.6,68.2,73,56.6,85.4l28.1,20.3
			C84.9,105.4,85.1,105.2,85.4,105z" style="fill:#fecc03;"></path>
		<text transform="matrix(1 0 0 1 82.041 87.2715)" class="st3 st4 st8">A1</text>
	</g>
	<g id="Maraton B1" data-select="zone:Misafir;zoneid:3327;subzone:Maraton B1;subzoneid:3385;noTicket:#cccccc;ticket:#eba601;selected:#fecc03;" data-id="3327:::3385" style="cursor:pointer">
		<path class="st2 svgshp" d="M161.1,90.4L150,52.8h-20.3c-10.2,0-20,1.6-29.3,4.6l22.5,33.8C130.6,90.7,144.3,90.5,161.1,90.4z" style="fill:#fecc03;"></path>
		<text transform="matrix(1 0 0 1 125.083 77.9033)" class="st3 st4 st8">B1</text>
	</g>
	<g id="Maraton C1" data-select="zone:Maraton Tribün;zoneid:3324;subzone:Maraton C1;subzoneid:6718;noTicket:#cccccc;ticket:#eba601;selected:#fecc03;" data-id="3324:::6718" style="cursor:pointer">
		<path class="st2 svgshp" d="M196.3,90.3V52.8h-43.8l11.1,37.6C173.6,90.3,184.7,90.3,196.3,90.3z" style="fill:#fecc03;"></path>
		<text transform="matrix(1 0 0 1 169.6563 77.9023)" class="st3 st4 st8">C1</text>
	</g>
	<g id="Maraton D1" data-select="zone:Maraton Tribün;zoneid:3324;subzone:Maraton D1;subzoneid:3388;noTicket:#cccccc;ticket:#eba601;selected:#fecc03;" data-id="3324:::3388" style="cursor:pointer">
		<path class="st2 svgshp" d="M229.9,90.4V52.8h-31.2v37.5C208.9,90.3,219.4,90.3,229.9,90.4z" style="fill:#fecc03;"></path>
		<text transform="matrix(1 0 0 1 205.334 77.9023)" class="st3 st4 st8">D1</text>
	</g>
	<g id="Maraton E1" data-select="zone:Maraton Tribün;zoneid:3324;subzone:Maraton E1;subzoneid:3390;noTicket:#cccccc;ticket:#eba601;selected:#fecc03;" data-id="3324:::3390" style="cursor:pointer">
		<path class="st2 svgshp" d="M263.5,90.6V52.8h-31.2v37.6C242.9,90.4,253.4,90.5,263.5,90.6z" style="fill:#fecc03;"></path>
		<text transform="matrix(1 0 0 1 239.4678 77.9023)" class="st3 st4 st8">E1</text>
	</g>
	<g id="Maraton F1" data-select="zone:Maraton Tribün;zoneid:3324;subzone:Maraton F1;subzoneid:3391;noTicket:#cccccc;ticket:#eba601;selected:#fecc03;" data-id="3324:::3391" style="cursor:pointer">
		<path class="st2 svgshp" d="M300.5,90.9l8.8-38.1H266v37.8C278.4,90.7,290.2,90.8,300.5,90.9z" style="fill:#fecc03;"></path>
		<text transform="matrix(1 0 0 1 276.9961 77.9023)" class="st3 st4 st8">F1</text>
	</g>
	<g id="Maraton G1" data-select="zone:Maraton Tribün;zoneid:3324;subzone:Maraton G1;subzoneid:3394;noTicket:#cccccc;ticket:#eba601;selected:#fecc03;" data-id="3324:::3394" style="cursor:pointer">
		<path class="st2 svgshp" d="M339.6,91.2L359.9,61c-12.4-5.6-25.4-8.3-39.6-8.3h-8.5L303,90.9C323.2,91.1,337.4,91.2,339.6,91.2z" style="fill:#fecc03;"></path>
		<text transform="matrix(1 0 0 1 318.457 77.9023)" class="st3 st4 st8">G1</text>
	</g>
	<g id="Maraton H1" data-select="zone:Maraton Tribün;zoneid:3324;subzone:Maraton H1;subzoneid:3396;noTicket:#cccccc;ticket:#eba601;selected:#fecc03;" data-id="3324:::3396" style="cursor:pointer">
		<path class="st2 svgshp" d="M357,96.9c7.1,3.5,12.7,8.4,16.6,14.5l27-17c-10.3-13.4-23.3-24.1-38-31.2l-19.9,29.1
			C345.7,92.8,351.2,94,357,96.9z" style="fill:#fecc03;"></path>
		<text transform="matrix(1 0 0 1 361.9053 92.5605)" class="st3 st4 st8">H1</text>
	</g>
</g>
<g>
	<g>
		<rect x="124" y="137.7" class="st9" width="202" height="124.4"></rect>
		<rect x="124" y="137.7" class="st10" width="16.8" height="124.4"></rect>
		<rect x="161" y="137.7" class="st10" width="16.8" height="124.4"></rect>
		<rect x="198" y="137.7" class="st10" width="16.8" height="124.4"></rect>
		<rect x="235.1" y="137.7" class="st10" width="16.8" height="124.4"></rect>
		<rect x="272.2" y="137.7" class="st10" width="16.8" height="124.4"></rect>
		<rect x="309.2" y="137.7" class="st10" width="16.8" height="124.4"></rect>
	</g>
	<g>
		<circle class="st11" cx="225" cy="200" r="23.2"></circle>
		<g>
			<line class="st11" x1="225" y1="137.7" x2="225" y2="262.3"></line>
		</g>
		<g>
			<line class="st11" x1="325.6" y1="162" x2="293.9" y2="162"></line>
			<line class="st11" x1="293.9" y1="238.1" x2="293.9" y2="162"></line>
			<line class="st11" x1="293.9" y1="238.1" x2="325.6" y2="238.1"></line>
		</g>
		<g>
			<line class="st11" x1="325.6" y1="182.4" x2="314.6" y2="182.4"></line>
			<line class="st11" x1="314.6" y1="217.7" x2="314.6" y2="182.4"></line>
			<line class="st11" x1="314.6" y1="217.7" x2="325.6" y2="217.7"></line>
		</g>
		<g>
			<line class="st11" x1="124.7" y1="162" x2="156.1" y2="162"></line>
			<line class="st11" x1="156.1" y1="238.1" x2="156.1" y2="162"></line>
			<line class="st11" x1="156.1" y1="238.1" x2="124.7" y2="238.1"></line>
		</g>
		<g>
			<line class="st11" x1="124.7" y1="182.4" x2="136.8" y2="182.4"></line>
			<line class="st11" x1="136.8" y1="217.7" x2="136.8" y2="182.4"></line>
			<line class="st11" x1="136.8" y1="217.7" x2="124.7" y2="217.7"></line>
		</g>
	</g>
</g>
</svg>