<svg version="1.1" id="receptayyipkasimasa" xmlns="http://www.w3.org/2000/svg" xmlns:xlink="http://www.w3.org/1999/xlink" x="0px" y="0px" viewBox="0 0 450 400" style="width: 100%; height: 100%;" xml:space="preserve">
	
	 <defs>
      <style type="text/css">@import url('https://fonts.googleapis.com/css?family=Poppins');</style>
    </defs>

<style type="text/css">
	.st0{fill:#79B954;}
	.st1{fill:#9FCD85;}
	.st2{fill:none;stroke:#FFFFFF;stroke-width:2;stroke-linecap:round;stroke-miterlimit:10;}
	.st3{font-family:'Poppins';}
	.st4{font-size:7.7299px;}
	.st5{fill:#CDCCCC;}
	.st6{fill:#CCCCCC;}
	.st7{enable-background:new    ;}
	.st8{fill:#FFFFFF;}
	.st9{font-family:'Poppins';}
	.st10{font-size:9.1792px;}
	.st11{fill:none;stroke:#FFFFFF;stroke-miterlimit:10;}
</style>
<g>
	<g>
		<rect x="84.3" y="108.4" class="st0" width="273.3" height="168.3"></rect>
		<rect x="84.3" y="108.4" class="st1" width="22.6" height="168.3"></rect>
		<rect x="134.4" y="108.4" class="st1" width="22.6" height="168.3"></rect>
		<rect x="184.5" y="108.4" class="st1" width="22.6" height="168.3"></rect>
		<rect x="234.7" y="108.4" class="st1" width="22.6" height="168.3"></rect>
		<rect x="284.9" y="108.4" class="st1" width="22.6" height="168.3"></rect>
		<rect x="334.9" y="108.4" class="st1" width="22.6" height="168.3"></rect>
	</g>
	<g>
		<circle class="st2" cx="221" cy="192.7" r="31.3"></circle>
		<g>
			<line class="st2" x1="221" y1="108.4" x2="221" y2="276.9"></line>
		</g>
		<g>
			<line class="st2" x1="357.2" y1="141.2" x2="314.2" y2="141.2"></line>
			<line class="st2" x1="314.2" y1="244.2" x2="314.2" y2="141.2"></line>
			<line class="st2" x1="314.2" y1="244.2" x2="357.2" y2="244.2"></line>
		</g>
		<g>
			<line class="st2" x1="357.2" y1="168.9" x2="342.3" y2="168.9"></line>
			<line class="st2" x1="342.3" y1="216.6" x2="342.3" y2="168.9"></line>
			<line class="st2" x1="342.3" y1="216.6" x2="357.2" y2="216.6"></line>
		</g>
		<g>
			<line class="st2" x1="85.3" y1="141.2" x2="127.8" y2="141.2"></line>
			<line class="st2" x1="127.8" y1="244.2" x2="127.8" y2="141.2"></line>
			<line class="st2" x1="127.8" y1="244.2" x2="85.3" y2="244.2"></line>
		</g>
		<g>
			<line class="st2" x1="85.3" y1="168.9" x2="101.7" y2="168.9"></line>
			<line class="st2" x1="101.7" y1="216.6" x2="101.7" y2="168.9"></line>
			<line class="st2" x1="101.7" y1="216.6" x2="85.3" y2="216.6"></line>
		</g>
	</g>
</g>
<g>
	<g id="B_21_">
		<g id="BASIN_21_">
			<text transform="matrix(0.9999 0 0 1 360.8701 60.1328)" class="st3 st4">Engelli Tribün</text>
		</g>
	</g>
	<g id="ENGELLİ">
		<path class="st5" d="M414.2,71.8c0,4.5-3.6,8.1-8.1,8.1H368c-4.5,0-8.1-3.6-8.1-8.1l0,0c0-4.5,3.6-8.1,8.1-8.1h38.2
			C410.6,63.8,414.2,67.4,414.2,71.8L414.2,71.8z"></path>
	</g>
	<g id="Misafir" data-select="zone:Misafir Tribün;zoneid:3052;subzone:Misafir;subzoneid:5544;noTicket:#cccccc;ticket:#eba601;selected:#fecc03;" data-id="3052:::5544" style="cursor:pointer">
		<path class="st6 svgshp" d="M434.2,143.3c3.2,0,5.9-4.2,5.9-9.5V128c0-5.2-2.6-9.5-5.9-9.5c-1.5,0-2.9,0.9-4,2.5c-1.3-3.8-4.8-6.6-9-6.6
			h-36.5c-5.3,0-9.5,4.4-9.5,9.8v52.2c0,5.4,4.3,9.8,9.5,9.8h36.5c3.2,0,6.1-1.7,7.8-4.2c1,2.5,2.9,4.2,5.1,4.2
			c3.2,0,5.9-3.6,5.9-8.1v-5c0-4.5-2.6-8.1-5.9-8.1c-1.3,0-2.5,0.6-3.4,1.5v-25C431.8,142.7,433,143.3,434.2,143.3z" style="fill:#eba601;"></path>
		<text transform="matrix(0.9999 0 0 1 390.7006 136.4621)" class="st7"><tspan x="0" y="0" class="st8 st9 st10">Rakip</tspan><tspan x="-1.3" y="11" class="st8 st9 st10">Kapalı</tspan><tspan x="-2.2" y="22" class="st8 st9 st10">Tribün</tspan><tspan x="9" y="33" class="st8 st9 st10">G</tspan></text>
	</g>
	<g id="F Blok" data-select="zone:Kapalı Tribün;zoneid:3051;subzone:F Blok;subzoneid:5545;noTicket:#cccccc;ticket:#eba601;selected:#fecc03;" data-id="3051:::5545" style="cursor:pointer">
		<path class="st6 svgshp" d="M434.2,222.3c3.2,0,5.9-3.6,5.9-8.1v-5c0-4.5-2.6-8.1-5.9-8.1c-1.3,0-2.5,0.6-3.4,1.5v-2.5
			c0-5.4-4.3-9.8-9.5-9.8h-36.5c-5.3,0-9.5,4.4-9.5,9.8v52.2c0,5.4,4.3,9.8,9.5,9.8h36.5c4.1,0,7.6-2.6,8.9-6.4
			c1.1,1.4,2.5,2.2,4,2.2c3.2,0,5.9-3.6,5.9-8.1v-5c0-4.5-2.6-8.1-5.9-8.1c-1.3,0-2.5,0.6-3.4,1.5v-17.6
			C431.8,221.7,433,222.3,434.2,222.3z" style="fill:#cccccc;"></path>
		<text transform="matrix(0.9999 0 0 1 389.8672 217.6689)" class="st7"><tspan x="0" y="0" class="st8 st9 st10">Kapalı</tspan><tspan x="-0.9" y="11" class="st8 st9 st10">Tribün</tspan><tspan x="11.2" y="22" class="st8 st9 st10">F</tspan></text>
	</g>
	<g id="E Blok" data-select="zone:Kapalı Tribün;zoneid:3051;subzone:E Blok;subzoneid:5546;noTicket:#cccccc;ticket:#eba601;selected:#fecc03;" data-id="3051:::5546" style="cursor:pointer">
		<polygon class="st6 svgshp" points="429.4,315.3 443.1,302.5 438.9,297.9 438.8,298 438.8,269.2 375.2,269.2 375.2,295.9 364.2,305.7 
			345,305.7 345,358.4 375.2,358.4 377.1,356.6 381.3,360.8 394.8,347.8 390.9,343.7 393.8,340.9 398.1,345.3 411.6,332.3 
			407.6,328 410.6,325.2 414.8,329.7 428.5,316.8 424.3,312.3 425.5,311.2 		" style="fill:#cccccc;"></polygon>
		<text transform="matrix(0.9999 0 0 1 379.6357 306.7744)" class="st7"><tspan x="0" y="0" class="st8 st9 st10">Kapalı</tspan><tspan x="-0.9" y="11" class="st8 st9 st10">Tribün</tspan><tspan x="11.1" y="22" class="st8 st9 st10">E</tspan></text>
		<polyline class="st11" points="348.9,309.7 367.2,309.7 379.7,297.3 379.7,276.8 		"></polyline>
		<polyline class="st11" points="433.1,276.8 433.1,298.1 377.2,350.8 348.9,351.6 		"></polyline>
	</g>
	<g id="D Blok" data-select="zone:Kapalı Tribün;zoneid:3051;subzone:D Blok;subzoneid:5547;noTicket:#cccccc;ticket:#eba601;selected:#fecc03;" data-id="3051:::5547" style="cursor:pointer">
		<path class="st6 svgshp" d="M338.5,311.7c0-5.3-4.7-9.5-10.6-9.5h-24.4c-5.9,0-10.6,4.3-10.6,9.5v37.2c0,4.3,2.2,7.8,6.5,9
			c0.4,2.9,2.8,5.1,5.8,5.1l4.6,0.1c2.9,0,5.2-2,5.8-4.7h4.5c0.5,2.7,2.9,4.7,5.8,4.7h5.1c3.2,0,5.9-2.6,5.9-5.9
			c0-0.9-0.2-1.8-0.6-2.6c1.4-1.6,2.2-3.6,2.2-5.8L338.5,311.7L338.5,311.7z" style="fill:#cccccc;"></path>
		<text transform="matrix(0.9999 0 0 1 302.0306 322.6699)" class="st7"><tspan x="0" y="0" class="st8 st9 st10">Kapalı</tspan><tspan x="-0.9" y="11" class="st8 st9 st10">Tribün</tspan><tspan x="10.3" y="22" class="st8 st9 st10">D</tspan></text>
	</g>
	<g id="C Blok" data-select="zone:Kapalı Tribün;zoneid:3051;subzone:C Blok;subzoneid:5548;noTicket:#cccccc;ticket:#eba601;selected:#fecc03;" data-id="3051:::5548" style="cursor:pointer">
		<path class="st6 svgshp" d="M279,302.1h-24.4c-5.9,0-10.6,4.3-10.6,9.5v37.2c0,1.7,0.5,3.3,1.3,4.6c-0.8,1-1.3,2.3-1.3,3.7
			c0,3.2,2.6,5.9,5.9,5.9h3.6c2.9,0,5.2-2,5.8-4.7h4.8c0.5,2.7,2.9,4.7,5.8,4.7h3.6c2.9,0,5.2-2,5.8-4.7c5.8-0.1,10.4-4.3,10.4-9.5
			v-37.2C289.6,306.4,284.9,302.1,279,302.1z" style="fill:#cccccc;"></path>
		<text transform="matrix(0.9999 0 0 1 253.1805 322.6699)" class="st7"><tspan x="0" y="0" class="st8 st9 st10">Kapalı</tspan><tspan x="-0.9" y="11" class="st8 st9 st10">Tribün</tspan><tspan x="10.8" y="22" class="st8 st9 st10">C</tspan></text>
	</g>
	<g id="VIPUST" data-select="zone:VIP;zoneid:96190;subzone:VIPUST;subzoneid:96192;noTicket:#cccccc;ticket:#eba601;selected:#fecc03" data-id="96190:::96192" style="cursor:pointer">
		<path class="st6 svgshp" d="M240.8,355.6c0,2.6-2.1,4.8-4.8,4.8h-34.8c-2.6,0-4.8-2.1-4.8-4.8l0,0c0-2.6,2.1-4.8,4.8-4.8H236
			C238.7,350.8,240.8,353,240.8,355.6L240.8,355.6z" style="fill:#fecc03;"></path>
		<path class="st6 svgshp" d="M240.8,341c0,3.2-2.6,5.9-5.9,5.9l0,0c-3.2,0-5.9-2.6-5.9-5.9v-3.6c0-3.2,2.6-5.9,5.9-5.9l0,0
			c3.2,0,5.9,2.6,5.9,5.9V341z" style="fill:#fecc03;"></path>
		<path class="st6 svgshp" d="M207.4,341c0,3.2-2.6,5.9-5.9,5.9l0,0c-3.2,0-5.9-2.6-5.9-5.9v-3.6c0-3.2,2.6-5.9,5.9-5.9l0,0
			c3.2,0,5.9,2.6,5.9,5.9V341z" style="fill:#fecc03;"></path>
	</g>
	<g id="VIP" data-select="zone:VIP;zoneid:96190;subzone:VIP;subzoneid:96191;noTicket:#cccccc;ticket:#eba601;selected:#fecc03" data-id="96190:::96191" style="cursor:pointer">
		<path class="st6 svgshp" d="M240.8,321.3c0,3.9-3.1,7-7,7h-31.1c-3.9,0-7-3.1-7-7v-9.1c0-3.9,3.1-7,7-7h31.1c3.9,0,7,3.1,7,7V321.3z" style="fill:#fecc03;"></path>
		<text transform="matrix(0.9999 0 0 1 211.6787 319.96)" class="st8 st9 st10">VIP</text>
	</g>
	<g id="B Blok" data-select="zone:Kapalı Tribün;zoneid:3051;subzone:B Blok;subzoneid:5549;noTicket:#cccccc;ticket:#eba601;selected:#fecc03;" data-id="3051:::5549" style="cursor:pointer">
		<path class="st6 svgshp" d="M192.2,312.2c0-4.9-4.3-8.9-9.6-8.9h-36.9c-5.3,0-9.6,4-9.6,8.9v36c0,4.9,4.3,8.9,9.6,8.9h1.2
			c0,3.2,2.6,5.9,5.9,5.9h3.6c3.2,0,5.9-2.6,5.9-5.9h5.9c0,3.2,2.6,5.9,5.9,5.9h3.6c3.2,0,5.9-2.6,5.9-5.9l0,0
			c0.8-0.1,1.6-0.2,2.3-0.5c0.2,2.1,1.5,3.7,3.2,3.7c1.8,0,3.3-1.8,3.3-4.1c0,0,0-7,0-8.1L192.2,312.2L192.2,312.2z" style="fill:#eba601;"></path>
		<text transform="matrix(0.9999 0 0 1 149.3486 322.6699)" class="st7"><tspan x="0" y="0" class="st8 st9 st10">Kapalı</tspan><tspan x="-0.9" y="11" class="st8 st9 st10">Tribün</tspan><tspan x="10.6" y="22" class="st8 st9 st10">B</tspan></text>
	</g>
	<g id="A Blok" data-select="zone:Kapalı Tribün;zoneid:3051;subzone:A Blok;subzoneid:5550;noTicket:#cccccc;ticket:#eba601;selected:#fecc03;" data-id="3051:::5550" style="cursor:pointer">
		<path class="st6 svgshp" d="M133.8,312.2c0-4.9-4.7-8.9-10.6-8.9H82.6c-5.9,0-10.6,4-10.6,8.9v36c0,4.9,4.7,8.9,10.6,8.9h1.3
			c0,3.2,2.9,5.9,6.5,5.9h4c3.6,0,6.5-2.6,6.5-5.9h6.5c0,3.2,2.9,5.9,6.5,5.9h4c3.6,0,6.5-2.6,6.5-5.9l0,0c0.9-0.1,1.7-0.2,2.5-0.5
			c0.2,2.1,1.7,3.7,3.6,3.7c2,0,3.6-1.8,3.6-4.1c0,0,0-7,0-8.1L133.8,312.2L133.8,312.2z" style="fill:#cccccc;"></path>
		<text transform="matrix(0.9999 0 0 1 89.3811 322.6699)" class="st7"><tspan x="0" y="0" class="st8 st9 st10">Kapalı</tspan><tspan x="-0.9" y="11" class="st8 st9 st10">Tribün</tspan><tspan x="10.6" y="22" class="st8 st9 st10">A</tspan></text>
	</g>
	<g id="C Blok" data-select="zone:Kale Arkası;zoneid:3049;subzone:C Blok;subzoneid:5538;noTicket:#cccccc;ticket:#eba601;selected:#fecc03;" data-id="3049:::5538" style="cursor:pointer">
		<path class="st6 svgshp" d="M62.4,286.7c0,5.3-4.3,9.5-9.5,9.5H16.4c-5.3,0-9.5-4.3-9.5-9.5v-38.4c0-5.3,4.3-9.5,9.5-9.5h36.5
			c5.3,0,9.5,4.3,9.5,9.5V286.7z" style="fill:#fecc03;"></path>
		<text transform="matrix(0.9999 0 0 1 25.1358 259.1699)" class="st7"><tspan x="0" y="0" class="st8 st9 st10">Kale</tspan><tspan x="-4.3" y="11" class="st8 st9 st10">Arkası</tspan><tspan x="6.6" y="22" class="st8 st9 st10">C</tspan></text>
	</g>
	<g id="Kale Arkası B" data-select="zone:Kale Arkası;zoneid:3049;subzone:Kale Arkası B;subzoneid:3066;noTicket:#cccccc;ticket:#eba601;selected:#fecc03;" data-id="3049:::3066" style="cursor:pointer">
		<path class="st6 svgshp" d="M62.4,222.9c0,5.4-4.3,9.8-9.5,9.8H16.4c-5.3,0-9.5-4.4-9.5-9.8v-52.2c0-5.4,4.3-9.8,9.5-9.8h36.5
			c5.3,0,9.5,4.4,9.5,9.8V222.9z" style="fill:#fecc03;"></path>
		<text transform="matrix(0.9999 0 0 1 25.1358 188.4697)" class="st7"><tspan x="0" y="0" class="st8 st9 st10">Kale</tspan><tspan x="-4.3" y="11" class="st8 st9 st10">Arkası</tspan><tspan x="6.5" y="22" class="st8 st9 st10">B</tspan></text>
	</g>
	<g id="Kale Arkası A" data-select="zone:Kale Arkası;zoneid:3049;subzone:Kale Arkası A;subzoneid:3065;noTicket:#cccccc;ticket:#eba601;selected:#fecc03;" data-id="3049:::3065" style="cursor:pointer">
		<path class="st6 svgshp" d="M62.4,145c0,5.3-4.3,9.5-9.5,9.5H16.4c-5.3,0-9.5-4.3-9.5-9.5v-38.4c0-5.3,4.3-9.5,9.5-9.5h36.5
			c5.3,0,9.5,4.3,9.5,9.5V145z" style="fill:#fecc03;"></path>
		<text transform="matrix(0.9999 0 0 1 25.1358 117.4694)" class="st7"><tspan x="0" y="0" class="st8 st9 st10">Kale</tspan><tspan x="-4.3" y="11" class="st8 st9 st10">Arkası</tspan><tspan x="6.5" y="22" class="st8 st9 st10">A</tspan></text>
	</g>
	<g id="E Blok" data-select="zone:Açık Tribün;zoneid:3050;subzone:E Blok;subzoneid:5539;noTicket:#cccccc;ticket:#eba601;selected:#fecc03;" data-id="3050:::5539" style="cursor:pointer">
		<path class="st6 svgshp" d="M108.5,70.3c0,5.3-4.3,9.5-9.5,9.5H61.8c-5.3,0-9.5-4.3-9.5-9.5V48.4c0-5.3,4.3-9.5,9.5-9.5H99
			c5.3,0,9.5,4.3,9.5,9.5V70.3z" style="fill:#fecc03;"></path>
		<text transform="matrix(0.9999 0 0 1 55.4466 60.2529)" class="st7"><tspan x="0" y="0" class="st8 st9 st10">Açık Tribün</tspan><tspan x="22.4" y="11" class="st8 st9 st10">E</tspan></text>
	</g>
	<g id="D Blok" data-select="zone:Açık Tribün;zoneid:3050;subzone:D Blok;subzoneid:5540;noTicket:#cccccc;ticket:#eba601;selected:#fecc03;" data-id="3050:::5540" style="cursor:pointer">
		<path class="st6 svgshp" d="M169.8,70.3c0,5.3-4.3,9.5-9.5,9.5h-37.2c-5.3,0-9.5-4.3-9.5-9.5V48.4c0-5.3,4.3-9.5,9.5-9.5h37.2
			c5.3,0,9.5,4.3,9.5,9.5V70.3z" style="fill:#fecc03;"></path>
		<text transform="matrix(0.9999 0 0 1 116.7466 60.2529)" class="st7"><tspan x="0" y="0" class="st8 st9 st10">Açık Tribün</tspan><tspan x="21.6" y="11" class="st8 st9 st10">D</tspan></text>
	</g>
	<g id="C Blok" data-select="zone:Açık Tribün;zoneid:3050;subzone:C Blok;subzoneid:5541;noTicket:#cccccc;ticket:#eba601;selected:#fecc03;" data-id="3050:::5541" style="cursor:pointer">
		<path class="st6 svgshp" d="M231.1,70.3c0,5.3-4.3,9.5-9.5,9.5h-37.2c-5.3,0-9.5-4.3-9.5-9.5V48.4c0-5.3,4.3-9.5,9.5-9.5h37.2
			c5.3,0,9.5,4.3,9.5,9.5V70.3z" style="fill:#fecc03;"></path>
		<text transform="matrix(0.9999 0 0 1 178.0466 60.2529)" class="st7"><tspan x="0" y="0" class="st8 st9 st10">Açık Tribün</tspan><tspan x="22" y="11" class="st8 st9 st10">C</tspan></text>
	</g>
	<g id="B Blok" data-select="zone:Açık Tribün;zoneid:3050;subzone:B Blok;subzoneid:5542;noTicket:#cccccc;ticket:#eba601;selected:#fecc03;" data-id="3050:::5542" style="cursor:pointer">
		<path class="st6 svgshp" d="M292.4,70.3c0,5.3-4.3,9.5-9.5,9.5h-37.2c-5.3,0-9.5-4.3-9.5-9.5V48.4c0-5.3,4.3-9.5,9.5-9.5h37.2
			c5.3,0,9.5,4.3,9.5,9.5V70.3z" style="fill:#fecc03;"></path>
		<text transform="matrix(0.9999 0 0 1 239.3464 60.2529)" class="st7"><tspan x="0" y="0" class="st8 st9 st10">Açık Tribün</tspan><tspan x="21.9" y="11" class="st8 st9 st10">B</tspan></text>
	</g>
	<g id="A Blok" data-select="zone:Açık Tribün;zoneid:3050;subzone:A Blok;subzoneid:5543;noTicket:#cccccc;ticket:#eba601;selected:#fecc03;" data-id="3050:::5543" style="cursor:pointer">
		<path class="st6 svgshp" d="M353.7,70.3c0,5.3-4.3,9.5-9.5,9.5H307c-5.3,0-9.5-4.3-9.5-9.5V48.4c0-5.3,4.3-9.5,9.5-9.5h37.2
			c5.3,0,9.5,4.3,9.5,9.5V70.3z" style="fill:#fecc03;"></path>
		<text transform="matrix(0.9999 0 0 1 300.6464 60.2529)" class="st7"><tspan x="0" y="0" class="st8 st9 st10">Açık Tribün</tspan><tspan x="21.9" y="11" class="st8 st9 st10">A</tspan></text>
	</g>
</g>
</svg>