<svg version="1.1" id="venueMap-3913-415" xmlns:svgjs="http://svgjs.com/svgjs" xmlns="http://www.w3.org/2000/svg" xmlns:xlink="http://www.w3.org/1999/xlink" x="0px" y="0px" viewBox="-80 197 450 400" style="width: 100%; height: 100%;" xml:space="preserve">
    <defs>
        <style type="text/css">
            @import url('https://fonts.googleapis.com/css?family=Poppins');
        </style>
    </defs>
    <style type="text/css">
        .st0 {
            fill: #79b954;
        }

        .st1 {
            fill: #9fcd85;
        }

        .st2 {
            fill: none;
            stroke: #FFFFFF;
            stroke-width: 2;
            stroke-linecap: round;
        }

        .st3 {
            fill: none;
            stroke: #FFFFFF;
            stroke-width: 2;
            stroke-linecap: round;
        }

        .st4 {
            fill: none;
            stroke: #FFFFFF;
            stroke-width: 2;
            stroke-linecap: round;
        }

        .st5 {
            fill: none;
            stroke: #FFFFFF;
            stroke-width: 2;
            stroke-linecap: round;
        }

        .st6 {
            fill: none;
            stroke: #FFFFFF;
            stroke-width: 2;
            stroke-linecap: round;
        }

        .st7 {
            fill: none;
            stroke: #FFFFFF;
            stroke-width: 2;
            stroke-linecap: round;
        }

        .st8 {
            fill: none;
            stroke: #FFFFFF;
            stroke-width: 2;
            stroke-linecap: round;
        }

        .st9 {
            fill: #262626;
        }

        .st10 {
            font-family: 'Poppins';
        }

        .st11 {
            font-size: 12px;
        }

        .st12 {
            fill: #999999;
        }

        .st13 {
            fill: #CFD4D9;
        }

        .st14 {
            fill: #FFFFFF;
        }

        .st15 {
            fill: #CCCCCC;
        }

        .st16 {
            font-family: 'Poppins';
        }

        .st17 {
            font-size: 10.8649px;
        }
    </style>
    <g>
        <g>
            <rect x="34.6" y="328.7" class="st0" width="222.7" height="137.1"></rect>
            <rect x="34.6" y="328.7" class="st1" width="18.5" height="137.2"></rect>
            <rect x="75.4" y="328.7" class="st1" width="18.5" height="137.2"></rect>
            <rect x="116.2" y="328.7" class="st1" width="18.5" height="137.2"></rect>
            <rect x="157" y="328.7" class="st1" width="18.5" height="137.2"></rect>
            <rect x="197.9" y="328.7" class="st1" width="18.5" height="137.2"></rect>
            <rect x="238.8" y="328.7" class="st1" width="18.5" height="137.2"></rect>
        </g>
        <g>
            <g>
                <circle class="st2" cx="146" cy="397.3" r="25.6"></circle>
            </g>
            <g>
                <g>
                    <line class="st4" x1="146" y1="328.7" x2="146" y2="465.9"></line>
                </g>
            </g>
            <g>
                <g>
                    <line class="st5" x1="256.9" y1="355.4" x2="222" y2="355.4"></line>
                    <line class="st6" x1="222" y1="355.4" x2="222" y2="439.2"></line>
                    <line class="st5" x1="222" y1="439.2" x2="256.9" y2="439.2"></line>
                </g>
            </g>
            <g>
                <g>
                    <line class="st3" x1="256.9" y1="377.8" x2="244.8" y2="377.8"></line>
                    <line class="st7" x1="244.8" y1="377.8" x2="244.8" y2="416.7"></line>
                    <line class="st3" x1="244.8" y1="416.7" x2="256.9" y2="416.7"></line>
                </g>
            </g>
            <g>
                <g>
                    <line class="st8" x1="35.3" y1="355.4" x2="69.9" y2="355.4"></line>
                    <line class="st6" x1="69.9" y1="355.4" x2="69.9" y2="439.2"></line>
                    <line class="st8" x1="69.9" y1="439.2" x2="35.3" y2="439.2"></line>
                </g>
            </g>
            <g>
                <g>
                    <line class="st3" x1="35.3" y1="377.8" x2="48.6" y2="377.8"></line>
                    <line class="st7" x1="48.6" y1="377.8" x2="48.6" y2="416.7"></line>
                    <line class="st3" x1="48.6" y1="416.7" x2="35.3" y2="416.7"></line>
                </g>
            </g>
        </g>
    </g><text transform="matrix(1 0 0 1 91.8755 236.8009)" class="st9 st10 st11">MARATON TRİBÜN</text><text transform="matrix(4.489659e-011 1 -1 4.489659e-011 351.4473 340.262)" class="st9 st10 st11">SPOR TOTO
        TRİBÜNÜ</text><text transform="matrix(-1.346898e-010 -1 1 -1.346898e-010 -61.6471 451.0391)" class="st9 st10 st11">KUZEY TRİBÜNÜ</text><text transform="matrix(1 0 0 1 87.282 569.2995)" class="st9 st10 st11">FENERİUM TRİBÜNÜ</text>
    <polygon class="st12" points="294.5,289.7 302,283.6 302,279.7 -11.2,279.7 -11.2,285.4 -6.1,289.7 "></polygon>
    <rect x="66.8" y="497.2" class="st13" width="15.2" height="5.6"></rect>
    <rect x="85.3" y="497.2" class="st13" width="15.5" height="5.6"></rect>
    <rect x="103.9" y="497.2" class="st13" width="15.5" height="5.6"></rect>
    <rect x="122" y="536.9" class="st12" width="44.7" height="11.6"></rect>
    <g>
        <path class="st14" d="M130.3,538.9h2.2c1,0,1.7,0.1,2.3,0.4s0.6,0.8,0.6,1.4c0,0.4-0.1,0.9-0.4,1.1c-0.2,0.3-0.6,0.5-1.1,0.5l0,0c1.2,0.2,1.7,0.9,1.7,1.8c0,0.6-0.2,1.2-0.6,1.6c-0.4,0.4-1.1,0.5-1.9,0.5h-2.7L130.3,538.9L130.3,538.9z M131.3,542.3h1.5c0.6,0,1.1-0.1,1.4-0.3s0.4-0.5,0.4-1s-0.1-0.8-0.4-1c-0.3-0.2-0.8-0.3-1.5-0.3h-1.3L131.3,542.3L131.3,542.3z M131.3,543v2.9h1.6c0.6,0,1.1-0.1,1.4-0.3s0.4-0.6,0.4-1.1s-0.1-0.9-0.4-1.1s-0.9-0.3-1.5-0.3h-1.5V543z">
        </path>
        <path class="st14" d="M142.3,546.6l-1-2.5h-3.1l-1,2.5h-0.9l3-7.8h0.8l3,7.8H142.3z M141,543.4l-0.9-2.4c-0.1-0.3-0.2-0.6-0.3-1.1c-0.1,0.3-0.2,0.8-0.3,1.1l-0.9,2.4H141z">
        </path>
        <path class="st14" d="M148.5,544.5c0,0.6-0.2,1.2-0.8,1.6s-1.2,0.5-2,0.5c-0.9,0-1.6-0.1-2.2-0.3v-0.9c0.3,0.1,0.6,0.2,1.1,0.3c0.4,0.1,0.8,0.1,1.1,0.1c0.6,0,1.1-0.1,1.3-0.3c0.3-0.2,0.4-0.5,0.4-1c0-0.2,0-0.5-0.1-0.6c-0.1-0.2-0.3-0.3-0.5-0.4s-0.6-0.3-1.2-0.5c-0.8-0.2-1.2-0.5-1.5-0.9c-0.3-0.3-0.4-0.9-0.4-1.4s0.2-1.1,0.6-1.4c0.4-0.3,1.1-0.5,1.7-0.5c0.8,0,1.5,0.1,2.2,0.4l-0.3,0.8c-0.6-0.2-1.3-0.4-1.8-0.4c-0.4,0-0.9,0.1-1.1,0.3c-0.2,0.2-0.4,0.5-0.4,0.9c0,0.2,0,0.5,0.1,0.6c0.1,0.2,0.2,0.3,0.5,0.4c0.2,0.1,0.5,0.3,1.1,0.4c0.8,0.3,1.4,0.6,1.6,1C148.3,543.6,148.5,544,148.5,544.5z">
        </path>
        <path class="st14" d="M150,546.6v-7.7h0.9v7.7H150z"></path>
        <path class="st14" d="M159,546.6h-1l-4.2-6.5l0,0c0.1,0.8,0.1,1.4,0.1,2v4.4h-0.8v-7.7h1l4.2,6.5l0,0c0-0.1,0-0.4,0-0.9s0-0.9,0-1.1v-4.4h0.9v7.5h-0.1L159,546.6L159,546.6z">
        </path>
    </g>
    <g id="1907-A" data-select="zone:1907;zoneid:5119;subzone:1907-A;subzoneid:5133;noTicket:#cccccc;ticket:#eba601;selected:#fecc03;" data-id="5119:::5133" style="cursor:pointer">
        <path class="st15 svgshp" d="M292.9,506.1h-7.8v9.9h16.8v-2l-9.2-8v0.1H292.9z" style="fill:#eba601;"></path><text transform="matrix(1 0 0 1 287.615 513.6601)" class="st14 st16 st17">A</text>
    </g>
    <g id="1907-B" data-select="zone:1907;zoneid:5119;subzone:1907-B;subzoneid:5132;noTicket:#cccccc;ticket:#eba601;selected:#fecc03;" data-id="5119:::5132" style="cursor:pointer">
        <path class="st15 svgshp" d="M263.1,506.1h18.8v9.9h-18.8V506.1z" style="fill:#eba601;"></path><text transform="matrix(1 0 0 1 269.3914 513.6601)" class="st14 st16 st17">B</text>
    </g>
    <g id="1907-C" data-select="zone:1907;zoneid:5119;subzone:1907-C;subzoneid:5131;noTicket:#cccccc;ticket:#eba601;selected:#fecc03;" data-id="5119:::5131" style="cursor:pointer">
        <path class="st15 svgshp" d="M240.9,506.1h19v9.9h-19L240.9,506.1L240.9,506.1z" style="fill:#eba601;"></path><text transform="matrix(1 0 0 1 245.865 513.6601)" class="st14 st16 st17">C</text>
    </g>
    <g id="1907-D" data-select="zone:1907;zoneid:5119;subzone:1907-D;subzoneid:5130;noTicket:#cccccc;ticket:#eba601;selected:#fecc03;" data-id="5119:::5130" style="cursor:pointer">
        <path class="st15 svgshp" d="M218.3,506.1h19.4v9.9h-19.4V506.1z" style="fill:#eba601;"></path><text transform="matrix(1 0 0 1 223.7488 513.6601)" class="st14 st16 st17">D</text>
    </g>
    <g id="1907-E" data-select="zone:1907;zoneid:5119;subzone:1907-E;subzoneid:5129;noTicket:#cccccc;ticket:#eba601;selected:#fecc03;" data-id="5119:::5129" style="cursor:pointer">
        <path class="st15 svgshp" d="M195,506.1h20v9.9h-20V506.1z" style="fill:#eba601;"></path><text transform="matrix(1 0 0 1 202.0925 513.6601)" class="st14 st16 st17">E</text>
    </g>
    <g id="1907-F" data-select="zone:1907;zoneid:5119;subzone:1907-F;subzoneid:5128;noTicket:#cccccc;ticket:#eba601;selected:#fecc03;" data-id="5119:::5128" style="cursor:pointer">
        <path class="st15 svgshp" d="M170.4,506.1h21.5v9.9h-21.4v-9.9H170.4z" style="fill:#eba601;"></path><text transform="matrix(1 0 0 1 178.4402 513.6601)" class="st14 st16 st17">F</text>
    </g>
    <g id="1907-G" data-select="zone:1907;zoneid:5119;subzone:1907-G;subzoneid:5127;noTicket:#cccccc;ticket:#eba601;selected:#fecc03;" data-id="5119:::5127" style="cursor:pointer">
        <path class="st15 svgshp" d="M150.3,506.1h16.9v9.9h-16.9V506.1z" style="fill:#eba601;"></path><text transform="matrix(1 0 0 1 152.696 513.6601)" class="st14 st16 st17">G</text>
    </g>
    <g id="1907-H" data-select="zone:1907;zoneid:5119;subzone:1907-H;subzoneid:5126;noTicket:#cccccc;ticket:#eba601;selected:#fecc03;" data-id="5119:::5126" style="cursor:pointer">
        <path class="st15 svgshp" d="M125.4,506.1h21.7v9.9h-21.7V506.1z" style="fill:#eba601;"></path><text transform="matrix(1 0 0 1 132.0456 513.6601)" class="st14 st16 st17">H</text>
    </g>
    <g id="1907-I" data-select="zone:1907;zoneid:5119;subzone:1907-I;subzoneid:5125;noTicket:#cccccc;ticket:#eba601;selected:#fecc03;" data-id="5119:::5125" style="cursor:pointer">
        <path class="st15 svgshp" d="M103.4,506.1h18.8v9.9h-18.8V506.1z" style="fill:#eba601;"></path><text transform="matrix(1 0 0 1 110.9607 513.6601)" class="st14 st16 st17">I</text>
    </g>
    <g id="1907-J" data-select="zone:1907;zoneid:5119;subzone:1907-J;subzoneid:5124;noTicket:#cccccc;ticket:#eba601;selected:#fecc03;" data-id="5119:::5124" style="cursor:pointer">
        <path class="st15 svgshp" d="M81.9,506.1h18.2v9.9H81.9V506.1z" style="fill:#eba601;"></path><text transform="matrix(1 0 0 1 89.2414 513.6601)" class="st14 st16 st17">J</text>
    </g>
    <g id="1907-K" data-select="zone:1907;zoneid:5119;subzone:1907-K;subzoneid:5123;noTicket:#cccccc;ticket:#eba601;selected:#fecc03;" data-id="5119:::5123" style="cursor:pointer">
        <path class="st15 svgshp" d="M59.6,506.1h19v9.9h-19C59.7,516,59.7,506.1,59.6,506.1z" style="fill:#eba601;"></path><text transform="matrix(1 0 0 1 65.1746 513.6601)" class="st14 st16 st17">K</text>
    </g>
    <g id="1907-L" data-select="zone:1907;zoneid:5119;subzone:1907-L;subzoneid:5122;noTicket:#cccccc;ticket:#eba601;selected:#fecc03;" data-id="5119:::5122" style="cursor:pointer">
        <path class="st15 svgshp" d="M35.6,506.1h20.9v9.9H35.6V506.1z" style="fill:#eba601;"></path><text transform="matrix(1 0 0 1 42.969 513.6601)" class="st14 st16 st17">L</text>
    </g>
    <g id="1907-M" data-select="zone:1907;zoneid:5119;subzone:1907-M;subzoneid:5121;noTicket:#cccccc;ticket:#eba601;selected:#fecc03;" data-id="5119:::5121" style="cursor:pointer">
        <path class="st15 svgshp" d="M14.7,506.1h17.6v9.9H14.7V506.1z" style="fill:#eba601;"></path><text transform="matrix(1 0 0 1 18.4431 513.6601)" class="st14 st16 st17">M</text>
    </g>
    <g id="1907-N" data-select="zone:1907;zoneid:5119;subzone:1907-N;subzoneid:5120;noTicket:#cccccc;ticket:#eba601;selected:#fecc03;" data-id="5119:::5120" style="cursor:pointer">
        <path class="st15 svgshp" d="M-3.4,506.1l-7.7,6.5v3.4h22.6v-9.9H-3.4L-3.4,506.1z" style="fill:#eba601;"></path><text transform="matrix(1 0 0 1 -4.1873 513.6601)" class="st14 st16 st17">N</text>
    </g>
    <g id="AK-C" data-select="zone:Alt Kat;zoneid:157;subzone:AK-C;subzoneid:881;noTicket:#cccccc;ticket:#eba601;selected:#fecc03;" data-id="157:::881" style="cursor:pointer">
        <path class="st15 svgshp" d="M61.3,293h28.2v15.6H61.3V293z" style="fill:#fecc03;"></path><text transform="matrix(1 0 0 1 72.0027 304.5542)" class="st14 st16 st17">C</text>
    </g>
    <g id="AK-D" data-select="zone:Alt Kat;zoneid:157;subzone:AK-D;subzoneid:880;noTicket:#cccccc;ticket:#eba601;selected:#fecc03;" data-id="157:::880" style="cursor:pointer">
        <path class="st15 svgshp" d="M92.7,293h31.8v15.6H92.7V293z" style="fill:#fecc03;"></path><text transform="matrix(1 0 0 1 104.5871 304.5542)" class="st14 st16 st17">D</text>
    </g>
    <g id="AK-E" data-select="zone:Alt Kat;zoneid:157;subzone:AK-E;subzoneid:879;noTicket:#cccccc;ticket:#eba601;selected:#fecc03;" data-id="157:::879" style="cursor:pointer">
        <path class="st15 svgshp" d="M127.8,293h34.2v15.6h-34.2V293z" style="fill:#fecc03;"></path><text transform="matrix(1 0 0 1 141.7839 304.5542)" class="st14 st16 st17">E</text>
    </g>
    <g id="AK-F" data-select="zone:Alt Kat;zoneid:157;subzone:AK-F;subzoneid:878;noTicket:#cccccc;ticket:#eba601;selected:#fecc03;" data-id="157:::878" style="cursor:pointer">
        <path class="st15 svgshp" d="M165.3,293h34v15.6h-34V293z" style="fill:#fecc03;"></path><text transform="matrix(1 0 0 1 179.2468 304.5542)" class="st14 st16 st17">F</text>
    </g>
    <g id="AK-G" data-select="zone:Alt Kat;zoneid:157;subzone:AK-G;subzoneid:877;noTicket:#cccccc;ticket:#eba601;selected:#fecc03;" data-id="157:::877" style="cursor:pointer">
        <path class="st15 svgshp" d="M202.4,293h28.8v15.6h-28.8V293z" style="fill:#fecc03;"></path><text transform="matrix(1 0 0 1 212.8962 304.5542)" class="st14 st16 st17">G</text>
    </g>
    <g id="AK-C1" data-select="zone:Alt Kat;zoneid:157;subzone:AK-C1;subzoneid:886;noTicket:#cccccc;ticket:#eba601;selected:#fecc03;" data-id="157:::886" style="cursor:pointer">
        <path class="st15 svgshp" d="M198.8,487.5h26.6v15.3h-26.6V487.5z" style="fill:#fecc03;"></path><text transform="matrix(1 0 0 1 205.2507 498.5713)" class="st14 st16 st17">C1</text>
    </g>
    <g id="AK-D1" data-select="zone:Alt Kat;zoneid:157;subzone:AK-D1;subzoneid:885;noTicket:#cccccc;ticket:#eba601;selected:#fecc03;" data-id="157:::885" style="cursor:pointer">
        <path class="st15 svgshp" d="M170,487.5h25.3v15.3H170V487.5z" style="fill:#fecc03;"></path><text transform="matrix(1 0 0 1 175.4353 498.5713)" class="st14 st16 st17">D1</text>
    </g>
    <g id="AK-E1" data-select="zone:Alt Kat;zoneid:157;subzone:AK-E1;subzoneid:884;noTicket:#cccccc;ticket:#eba601;selected:#fecc03;" data-id="157:::884" style="cursor:pointer">
        <path class="st15 svgshp" d="M122.9,487.5H167v15.3h-44.1C122.9,502.8,122.9,487.5,122.9,487.5z" style="fill:#fecc03;"></path><text transform="matrix(1 0 0 1 138.8108 498.5713)" class="st14 st16 st17">E1</text>
    </g>
    <g id="AK-F1" data-select="zone:Alt Kat;zoneid:157;subzone:AK-F1;subzoneid:883;noTicket:#cccccc;ticket:#eba601;selected:#fecc03;" data-id="157:::883" style="cursor:pointer">
        <path class="st15 svgshp" d="M94.9,487.5h24.7v6.5H94.9V487.5z" style="fill:#eba601;"></path><text transform="matrix(1 0 0 1 101.1926 493.1807)" class="st14 st16 st17">F1</text>
    </g>
    <g id="AK-G1" data-select="zone:Alt Kat;zoneid:157;subzone:AK-G1;subzoneid:882;noTicket:#cccccc;ticket:#eba601;selected:#fecc03;" data-id="157:::882" style="cursor:pointer">
        <path class="st15 svgshp" d="M66.8,487.5h24.9v6.5H66.8V487.5z" style="fill:#fecc03;"></path><text transform="matrix(1 0 0 1 71.9587 493.1807)" class="st14 st16 st17">G1</text>
    </g>
    <g id="Kenar-A" data-select="zone:Kenar;zoneid:156;subzone:Kenar-A;subzoneid:869;noTicket:#cccccc;ticket:#eba601;selected:#fecc03;" data-id="156:::869" style="cursor:pointer">
        <path class="st15 svgshp" d="M30.4,293H-2.3L21,312.8c2-2,5-3.7,9.4-4.1C30.4,308.7,30.4,293,30.4,293z" style="fill:#fecc03;"></path><text transform="matrix(1 0 0 1 13.8352 304.5542)" class="st14 st16 st17">A</text>
    </g>
    <g id="Kenar-B" data-select="zone:Kenar;zoneid:156;subzone:Kenar-B;subzoneid:870;noTicket:#cccccc;ticket:#eba601;selected:#fecc03;" data-id="156:::870" style="cursor:pointer">
        <path class="st15 svgshp" d="M33.6,293h24.5v15.6H33.6V293z" style="fill:#fecc03;"></path><text transform="matrix(1 0 0 1 42.2268 304.5542)" class="st14 st16 st17">B</text>
    </g>
    <g id="Kenar-H" data-select="zone:Kenar;zoneid:156;subzone:Kenar-H;subzoneid:872;noTicket:#cccccc;ticket:#eba601;selected:#fecc03;" data-id="156:::872" style="cursor:pointer">
        <path class="st15 svgshp" d="M234.5,293h22.9v15.6h-22.9V293z" style="fill:#fecc03;"></path><text transform="matrix(1 0 0 1 238.1628 304.5542)" class="st14 st16 st17">H</text>
    </g>
    <g id="Kenar-I" data-select="zone:Kenar;zoneid:156;subzone:Kenar-I;subzoneid:871;noTicket:#cccccc;ticket:#eba601;selected:#fecc03;" data-id="156:::871" style="cursor:pointer">
        <path class="st15 svgshp" d="M260.4,308.5c1.7-0.1,5.2,0.2,8.1,2.6l22-18h-30.1V308.5z" style="fill:#fecc03;">
        </path><text transform="matrix(1 0 0 1 269.0857 304.5542)" class="st14 st16 st17">I</text>
    </g>
    <g id="Kenar-A1" data-select="zone:Kenar;zoneid:156;subzone:Kenar-A1;subzoneid:873;noTicket:#cccccc;ticket:#eba601;selected:#fecc03;" data-id="156:::873" style="cursor:pointer">
        <path class="st15 svgshp" d="M258.4,502.8h30.7l-21.4-18.5c-2.3,1.5-5.3,2.6-9.5,3v15.5H258.4z" style="fill:#fecc03;"></path><text transform="matrix(1 0 0 1 263.0789 498.5713)" class="st14 st16 st17">A1</text>
    </g>
    <g id="Kenar-B1" data-select="zone:Kenar;zoneid:156;subzone:Kenar-B1;subzoneid:874;noTicket:#cccccc;ticket:#eba601;selected:#fecc03;" data-id="156:::874" style="cursor:pointer">
        <path class="st15 svgshp" d="M255.1,502.8v-15.3c-0.2,0-0.3,0-0.5,0h-26.1v15.3H255.1z" style="fill:#fecc03;">
        </path><text transform="matrix(1 0 0 1 235.1081 498.5713)" class="st14 st16 st17">B1</text>
    </g>
    <g id="Kenar-H1" data-select="zone:Kenar;zoneid:156;subzone:Kenar-H1;subzoneid:875;noTicket:#cccccc;ticket:#eba601;selected:#fecc03;" data-id="156:::875" style="cursor:pointer">
        <path class="st15 svgshp" d="M37.6,487.5h25.9v15.3H37.6V487.5z" style="fill:#fecc03;"></path><text transform="matrix(1 0 0 1 43.342 498.5713)" class="st14 st16 st17">H1</text>
    </g>
    <g id="Kenar-I1" data-select="zone:Kenar;zoneid:156;subzone:Kenar-I1;subzoneid:876;noTicket:#cccccc;ticket:#eba601;selected:#fecc03;" data-id="156:::876" style="cursor:pointer">
        <path class="st15 svgshp" d="M34.4,487.5h-2.3c0,0-5.2,0-9.6-3.4L0.4,502.7h34.1L34.4,487.5L34.4,487.5z" style="fill:#fecc03;"></path><text transform="matrix(1 0 0 1 15.9021 498.5713)" class="st14 st16 st17">I1</text>
    </g>
    <g id="Maraton Üst C" data-select="zone:Üst Kat;zoneid:155;subzone:Maraton Üst C;subzoneid:164;noTicket:#cccccc;ticket:#eba601;selected:#fecc03;" data-id="155:::164" style="cursor:pointer">
        <path class="st15 svgshp" d="M45.4,247h34.5v29.3H45.4V247z" style="fill:#fecc03;"></path><text transform="matrix(1 0 0 1 59.177 268.5518)" class="st14 st16 st17">C</text>
    </g>
    <g id="Maraton Üst D" data-select="zone:Üst Kat;zoneid:155;subzone:Maraton Üst D;subzoneid:169;noTicket:#cccccc;ticket:#eba601;selected:#fecc03;" data-id="155:::169" style="cursor:pointer">
        <path class="st15 svgshp" d="M85.3,247h36.5v29.3H85.3V247z" style="fill:#fecc03;"></path><text transform="matrix(1 0 0 1 99.5222 268.5518)" class="st14 st16 st17">D</text>
    </g>
    <g id="Maraton Üst E" data-select="zone:Üst Kat;zoneid:155;subzone:Maraton Üst E;subzoneid:170;noTicket:#cccccc;ticket:#eba601;selected:#fecc03;" data-id="155:::170" style="cursor:pointer">
        <path class="st15 svgshp" d="M127.3,247h35.4v29.3h-35.4V247L127.3,247z" style="fill:#eba601;"></path><text transform="matrix(1 0 0 1 141.8367 268.5518)" class="st14 st16 st17">E</text>
    </g>
    <g id="Maraton Üst F" data-select="zone:Üst Kat;zoneid:155;subzone:Maraton Üst F;subzoneid:171;noTicket:#cccccc;ticket:#eba601;selected:#fecc03;" data-id="155:::171" style="cursor:pointer">
        <path class="st15 svgshp" d="M167.8,247h36.6v29.3h-36.6V247z" style="fill:#fecc03;"></path><text transform="matrix(1 0 0 1 183.1824 268.5518)" class="st14 st16 st17">F</text>
    </g>
    <g id="Maraton Üst G" data-select="zone:Üst Kat;zoneid:155;subzone:Maraton Üst G;subzoneid:172;noTicket:#cccccc;ticket:#eba601;selected:#fecc03;" data-id="155:::172" style="cursor:pointer">
        <path class="st15 svgshp" d="M209.9,247h35.8v29.3h-35.8V247z" style="fill:#fecc03;"></path><text transform="matrix(1 0 0 1 223.8357 268.5518)" class="st14 st16 st17">G</text>
    </g>
    <g id="Fenerium Üst C1" data-select="zone:Üst Kat;zoneid:155;subzone:Fenerium Üst C1;subzoneid:187;noTicket:#cccccc;ticket:#eba601;selected:#fecc03;" data-id="155:::187" style="cursor:pointer">
        <path class="st15 svgshp" d="M210,519.2h35.6v29.3H210V519.2z" style="fill:#fecc03;"></path><text transform="matrix(1 0 0 1 221.0408 540.7148)" class="st14 st16 st17">C1</text>
    </g>
    <g id="Fenerium Üst D1" data-select="zone:Üst Kat;zoneid:155;subzone:Fenerium Üst D1;subzoneid:186;noTicket:#cccccc;ticket:#eba601;selected:#fecc03;" data-id="155:::186" style="cursor:pointer">
        <path class="st15 svgshp" d="M170,519.2h36.6v29.3H170V519.2L170,519.2z" style="fill:#fecc03;"></path><text transform="matrix(1 0 0 1 181.0964 540.7148)" class="st14 st16 st17">D1</text>
    </g>
    <g id="Fenerium Üst E1" data-select="zone:Üst Kat;zoneid:155;subzone:Fenerium Üst E1;subzoneid:190;noTicket:#cccccc;ticket:#eba601;selected:#fecc03;" data-id="155:::190" style="cursor:pointer">
        <path class="st15 svgshp" d="M122,519.2h44.8v14.4h-44.7L122,519.2L122,519.2z" style="fill:#eba601;"></path><text transform="matrix(1 0 0 1 138.3796 529.8271)" class="st14 st16 st17">E1</text>
    </g>
    <g id="Fenerium Üst F1" data-select="zone:Üst Kat;zoneid:155;subzone:Fenerium Üst F1;subzoneid:183;noTicket:#cccccc;ticket:#eba601;selected:#fecc03;" data-id="155:::183" style="cursor:pointer">
        <path class="st15 svgshp" d="M82.4,519.2H119v29.3H82.4V519.2z" style="fill:#eba601;"></path><text transform="matrix(1 0 0 1 94.5637 540.7148)" class="st14 st16 st17">F1</text>
    </g>
    <g id="Fenerium Üst G1" data-select="zone:Üst Kat;zoneid:155;subzone:Fenerium Üst G1;subzoneid:184;noTicket:#cccccc;ticket:#eba601;selected:#fecc03;" data-id="155:::184" style="cursor:pointer">
        <path class="st15 svgshp" d="M43.3,519.2h35.8v29.3H43.3V519.2z" style="fill:#fecc03;"></path><text transform="matrix(1 0 0 1 53.9045 540.7148)" class="st14 st16 st17">G1</text>
    </g>
    <g id="Maraton Üst A" data-select="zone:Üst Kenar;zoneid:154;subzone:Maraton Üst A;subzoneid:833;noTicket:#cccccc;ticket:#eba601;selected:#fecc03;" data-id="154:::833" style="cursor:pointer">
        <path class="st15 svgshp" d="M-14.3,276.5h11.2v-29.4H-17c0,0-14.3,1.1-24.4,12.6l27.1,23.1C-14.3,282.8-14.3,276.5-14.3,276.5z" style="fill:#fecc03;"></path><text transform="matrix(1 0 0 1 -21.7341 268.5518)" class="st14 st16 st17">A</text>
    </g>
    <g id="Maraton Üst B" data-select="zone:Üst Kenar;zoneid:154;subzone:Maraton Üst B;subzoneid:167;noTicket:#cccccc;ticket:#eba601;selected:#fecc03;" data-id="154:::167" style="cursor:pointer">
        <path class="st15 svgshp" d="M2.3,247H40v29.3H2.3V247z" style="fill:#fecc03;"></path><text transform="matrix(1 0 0 1 17.49 268.5518)" class="st14 st16 st17">B</text>
    </g>
    <g id="Maraton Üst H" data-select="zone:Üst Kenar;zoneid:154;subzone:Maraton Üst H;subzoneid:166;noTicket:#cccccc;ticket:#eba601;selected:#fecc03;" data-id="154:::166" style="cursor:pointer">
        <path class="st15 svgshp" d="M251.3,247h36.9v29.3h-36.9V247L251.3,247z" style="fill:#fecc03;"></path><text transform="matrix(1 0 0 1 265.4343 268.5518)" class="st14 st16 st17">H</text>
    </g>
    <g id="Maraton Üst I" data-select="zone:Üst Kenar;zoneid:154;subzone:Maraton Üst I;subzoneid:162;noTicket:#cccccc;ticket:#eba601;selected:#fecc03;" data-id="154:::162" style="cursor:pointer">
        <path class="st15 svgshp" d="M305.3,276.5v4.5l26.8-22.1c-5.4-6-13.5-10.8-25.8-11.9h-12.9v29.3h11.9V276.5z" style="fill:#fecc03;"></path><text transform="matrix(1 0 0 1 306.8113 268.5518)" class="st14 st16 st17">I</text>
    </g>
    <g id="Fenerium Üst A1" data-select="zone:Üst Kenar;zoneid:154;subzone:Fenerium Üst A1;subzoneid:163;noTicket:#cccccc;ticket:#eba601;selected:#fecc03;" data-id="154:::163" style="cursor:pointer">
        <path class="st15 svgshp" d="M305.3,519.2h-11.7v29.3h9.2c0,0,16.1,1,27.8-10l-25.4-21.9v2.6L305.3,519.2L305.3,519.2z" style="fill:#eba601;"></path><text transform="matrix(1 0 0 1 300.8054 540.7148)" class="st14 st16 st17">A1</text>
    </g>
    <g id="Fenerium Üst B1" data-select="zone:Üst Kenar;zoneid:154;subzone:Fenerium Üst B1;subzoneid:188;noTicket:#cccccc;ticket:#eba601;selected:#fecc03;" data-id="154:::188" style="cursor:pointer">
        <path class="st15 svgshp" d="M248.8,519.2h41.5v29.3h-41.5V519.2z" style="fill:#fecc03;"></path><text transform="matrix(1 0 0 1 262.8093 540.7148)" class="st14 st16 st17">B1</text>
    </g>
    <g id="Fenerium Üst H1" data-select="zone:Üst Kenar;zoneid:154;subzone:Fenerium Üst H1;subzoneid:185;noTicket:#cccccc;ticket:#eba601;selected:#fecc03;" data-id="154:::185" style="cursor:pointer">
        <path class="st15 svgshp" d="M-1.1,519.2H40v29.3H-1.1V519.2z" style="fill:#eba601;"></path><text transform="matrix(1 0 0 1 12.2444 540.7148)" class="st14 st16 st17">H1</text>
    </g>
    <g id="Fenerium Üst I1" data-select="zone:Üst Kenar;zoneid:154;subzone:Fenerium Üst I1;subzoneid:189;noTicket:#cccccc;ticket:#eba601;selected:#fecc03;" data-id="154:::189" style="cursor:pointer">
        <path class="st15 svgshp" d="M-14.3,519.2v-4l-26.4,22.2c5.3,5.6,13.2,10.2,25.1,11.2h11.4v-29.3h-10.1C-14.3,519.3-14.3,519.2-14.3,519.2z" style="fill:#fecc03;"></path><text transform="matrix(1 0 0 1 -25.0564 540.7148)" class="st14 st16 st17">I1</text>
    </g>
    <g id="OKUL-A1" data-select="zone:Kale Arkası Spor Toto;zoneid:801;subzone:OKUL-A1;subzoneid:835;noTicket:#cccccc;ticket:#eba601;selected:#fecc03;" data-id="801:::835" style="cursor:pointer">
        <path class="st15 svgshp" d="M305.3,303l37.1-14.4c-0.1-5.8-1.3-17.5-8.2-26.9l-28.9,23.6V303z" style="fill:#fecc03;"></path><text transform="matrix(1 0 0 1 317.0808 289.1397)" class="st14 st16 st17">A1</text>
    </g>
    <g id="OKUL-B1" data-select="zone:Kale Arkası Spor Toto;zoneid:801;subzone:OKUL-B1;subzoneid:839;noTicket:#cccccc;ticket:#eba601;selected:#fecc03;" data-id="801:::839" style="cursor:pointer">
        <path class="st15 svgshp" d="M305.3,321.7h37v-29.6c0,0,0,0,0-0.1l-37,14.4V321.7z" style="fill:#fecc03;"></path>
        <text transform="matrix(1 0 0 1 317.0271 313.7154)" class="st14 st16 st17">B1</text>
    </g>
    <g id="OKUL-C1" data-select="zone:Kale Arkası Spor Toto;zoneid:801;subzone:OKUL-C1;subzoneid:838;noTicket:#cccccc;ticket:#eba601;selected:#fecc03;" data-id="801:::838" style="cursor:pointer">
        <path class="st15 svgshp" d="M305.3,325h37v35.6h-37V325z" style="fill:#fecc03;"></path><text transform="matrix(1 0 0 1 317.0271 349.6084)" class="st14 st16 st17">C1</text>
    </g>
    <g id="OKUL-D1" data-select="zone:Kale Arkası Spor Toto;zoneid:801;subzone:OKUL-D1;subzoneid:841;noTicket:#cccccc;ticket:#eba601;selected:#fecc03;" data-id="801:::841" style="cursor:pointer">
        <path class="st15 svgshp" d="M305.3,363.8h37v33.1h-37V363.8z" style="fill:#fecc03;"></path><text transform="matrix(1 0 0 1 316.4216 387.1724)" class="st14 st16 st17">D1</text>
    </g>
    <g id="OKUL-E1" data-select="zone:Kale Arkası Spor Toto;zoneid:801;subzone:OKUL-E1;subzoneid:843;noTicket:#cccccc;ticket:#eba601;selected:#fecc03;" data-id="801:::843" style="cursor:pointer">
        <path class="st15 svgshp" d="M305.3,400h37v33.7h-37V400z" style="fill:#fecc03;"></path><text transform="matrix(1 0 0 1 317.6326 423.7119)" class="st14 st16 st17">E1</text>
    </g>
    <g id="OKUL-F1" data-select="zone:Kale Arkası Spor Toto;zoneid:801;subzone:OKUL-F1;subzoneid:846;noTicket:#cccccc;ticket:#eba601;selected:#fecc03;" data-id="801:::846" style="cursor:pointer">
        <path class="st15 svgshp" d="M305.3,437.1h37v34.7h-37V437.1z" style="fill:#fecc03;"></path><text transform="matrix(1 0 0 1 317.6326 461.2754)" class="st14 st16 st17">F1</text>
    </g>
    <g id="OKUL-G1" data-select="zone:Kale Arkası Spor Toto;zoneid:801;subzone:OKUL-G1;subzoneid:847;noTicket:#cccccc;ticket:#eba601;selected:#fecc03;" data-id="801:::847" style="cursor:pointer">
        <path class="st15 svgshp" d="M305.3,493.4l37,16.6v-35.1h-37V493.4z" style="fill:#fecc03;"></path><text transform="matrix(1 0 0 1 316.4216 493.1807)" class="st14 st16 st17">G1</text>
    </g>
    <g id="OKUL-H1" data-select="zone:Kale Arkası Spor Toto;zoneid:801;subzone:OKUL-H1;subzoneid:850;noTicket:#cccccc;ticket:#eba601;selected:#fecc03;" data-id="801:::850" style="cursor:pointer">
        <path class="st15 svgshp" d="M305.3,512.4l27.6,23.8c4.5-5.2,8.1-12.5,9.3-22.7L305.4,497v15.4H305.3L305.3,512.4z" style="fill:#fecc03;"></path><text transform="matrix(1 0 0 1 316.366 520.128)" class="st14 st16 st17">H1</text>
    </g>
    <g id="OKUL-I1" data-select="zone:Kale Arkası Spor Toto;zoneid:801;subzone:OKUL-I1;subzoneid:836;noTicket:#cccccc;ticket:#eba601;selected:#fecc03;" data-id="801:::836" style="cursor:pointer">
        <path class="st15 svgshp" d="M272.1,315.9l30-11.7v-16.5l-31.4,25.7C271.1,314.1,271.6,315,272.1,315.9z" style="fill:#eba601;"></path><text transform="matrix(0.866 0.3 -0.6 0.866 281.2927 307.5064)" class="st14 st16 st17">I1</text>
    </g>
    <g id="OKUL-J1" data-select="zone:Kale Arkası Spor Toto;zoneid:801;subzone:OKUL-J1;subzoneid:840;noTicket:#cccccc;ticket:#eba601;selected:#fecc03;" data-id="801:::840" style="cursor:pointer">
        <path class="st15 svgshp" d="M273.5,321.7h28.6v-14l-29,11.3C273.3,319.9,273.4,320.8,273.5,321.7z" style="fill:#fecc03;"></path><text transform="matrix(1 0 0 1 284.2927 320.5064)" class="st14 st16 st17">J1</text>
    </g>
    <g id="OKUL-K1" data-select="zone:Kale Arkası Spor Toto;zoneid:801;subzone:OKUL-K1;subzoneid:837;noTicket:#cccccc;ticket:#eba601;selected:#fecc03;" data-id="801:::837" style="cursor:pointer">
        <path class="st15 svgshp" d="M273.6,325.1v35.4h28.3v-35.6h-28.3C273.6,325,273.6,325.1,273.6,325.1z" style="fill:#fecc03;"></path><text transform="matrix(1 0 0 1 281.1336 349.5005)" class="st14 st16 st17">K1</text>
    </g>
    <g id="OKUL-L1" data-select="zone:Kale Arkası Spor Toto;zoneid:801;subzone:OKUL-L1;subzoneid:842;noTicket:#cccccc;ticket:#eba601;selected:#fecc03;" data-id="801:::842" style="cursor:pointer">
        <path class="st15 svgshp" d="M273.6,363.8h28.3v33.1h-28.3V363.8z" style="fill:#eba601;"></path><text transform="matrix(1 0 0 1 281.7371 387.1724)" class="st14 st16 st17">L1</text>
    </g>
    <g id="OKUL-M1" data-select="zone:Kale Arkası Spor Toto;zoneid:801;subzone:OKUL-M1;subzoneid:844;noTicket:#cccccc;ticket:#eba601;selected:#fecc03;" data-id="801:::844" style="cursor:pointer">
        <path class="st15 svgshp" d="M273.6,400h28.3v33.7h-28.3V400z" style="fill:#eba601;"></path><text transform="matrix(1 0 0 1 279.9226 423.7119)" class="st14 st16 st17">M1</text>
    </g>
    <g id="OKUL-N1" data-select="zone:Kale Arkası Spor Toto;zoneid:801;subzone:OKUL-N1;subzoneid:845;noTicket:#cccccc;ticket:#eba601;selected:#fecc03;" data-id="801:::845" style="cursor:pointer">
        <path class="st15 svgshp" d="M273.6,437.1h28.3v34.7h-28.3V437.1z" style="fill:#fecc03;"></path><text transform="matrix(1 0 0 1 280.5281 461.2754)" class="st14 st16 st17">N1</text>
    </g>
    <g id="OKUL-O1" data-select="zone:Kale Arkası Spor Toto;zoneid:801;subzone:OKUL-O1;subzoneid:849;noTicket:#cccccc;ticket:#eba601;selected:#fecc03;" data-id="801:::849" style="cursor:pointer">
        <path class="st15 svgshp" d="M272.5,478.8l29.5,13.3v-17h-28.5C273.5,476,273.1,477.4,272.5,478.8z" style="fill:#eba601;"></path><text transform="matrix(1 0 0 1 284.031 483.4785)" class="st14 st16 st17">O1</text>
    </g>
    <g id="OKUL-P1" data-select="zone:Kale Arkası Spor Toto;zoneid:801;subzone:OKUL-P1;subzoneid:848;noTicket:#cccccc;ticket:#eba601;selected:#fecc03;" data-id="801:::848" style="cursor:pointer">
        <path class="st15 svgshp" d="M270.3,482.2l31.7,27.5v-14.1l-31.1-14C270.6,481.8,270.5,482,270.3,482.2z" style="fill:#fecc03;"></path><text transform="matrix(0.866 0.3 -0.6 0.866 284.031 495.4785)" class="st14 st16 st17">P1</text>
    </g>
    <g id="Kuzey A" data-select="zone:Kale Arkası Kuzey;zoneid:800;subzone:Kuzey A;subzoneid:829;noTicket:#cccccc;ticket:#eba601;selected:#fecc03" data-id="800:::829" style="cursor:pointer">
        <path class="st15 svgshp" d="M-14.3,496.2l-36.6,17.1c0.4,4.5,2,13.7,8,21.6l28.5-23.9L-14.3,496.2L-14.3,496.2z" style="fill:#fecc03;"></path><text transform="matrix(1 0 0 1 -36.3396 517.9717)" class="st14 st16 st17">A</text>
    </g>
    <g id="Kuzey B" data-select="zone:Kale Arkası Kuzey;zoneid:800;subzone:Kuzey B;subzoneid:826;noTicket:#cccccc;ticket:#eba601;selected:#fecc03" data-id="800:::826" style="cursor:pointer">
        <path class="st15 svgshp" d="M-14.3,475.1h-36.6v34.8l36.6-17.2C-14.4,492.7-14.4,475.1-14.3,475.1z" style="fill:#fecc03;"></path><text transform="matrix(1 0 0 1 -36.2961 494.2588)" class="st14 st16 st17">B</text>
    </g>
    <g id="Kuzey C" data-select="zone:Kale Arkası Kuzey;zoneid:800;subzone:Kuzey C;subzoneid:825;noTicket:#cccccc;ticket:#eba601;selected:#fecc03" data-id="800:::825" style="cursor:pointer">
        <path class="st15 svgshp" d="M-51.1,438.5h36.6v33.4h-36.6V438.5z" style="fill:#fecc03;"></path><text transform="matrix(1 0 0 1 -36.1072 462.0303)" class="st14 st16 st17">C</text>
    </g>
    <g id="Kuzey D" data-select="zone:Kale Arkası Kuzey;zoneid:800;subzone:Kuzey D;subzoneid:823;noTicket:#cccccc;ticket:#eba601;selected:#fecc03" data-id="800:::823" style="cursor:pointer">
        <path class="st15 svgshp" d="M-51.1,399.7h36.6v35.7h-36.6V399.7z" style="fill:#eba601;"></path><text transform="matrix(1 0 0 1 -36.6677 424.3594)" class="st14 st16 st17">D</text>
    </g>
    <g id="Kuzey E" data-select="zone:Kale Arkası Kuzey;zoneid:800;subzone:Kuzey E;subzoneid:821;noTicket:#cccccc;ticket:#eba601;selected:#fecc03" data-id="800:::821" style="cursor:pointer">
        <path class="st15 svgshp" d="M-51.1,361.4h36.6v34.9h-36.6V361.4z" style="fill:#eba601;"></path><text transform="matrix(1 0 0 1 -35.6892 385.7178)" class="st14 st16 st17">E</text>
    </g>
    <g id="Kuzey F" data-select="zone:Kale Arkası Kuzey;zoneid:800;subzone:Kuzey F;subzoneid:819;noTicket:#cccccc;ticket:#eba601;selected:#fecc03" data-id="800:::819" style="cursor:pointer">
        <path class="st15 svgshp" d="M-51.1,341.5h36.6v16.7h-36.6V341.5z" style="fill:#fecc03;"></path><text transform="matrix(1 0 0 1 -35.6272 353.0572)" class="st14 st16 st17">F</text>
    </g>
    <g id="Kuzey I" data-select="zone:Kale Arkası Kuzey;zoneid:800;subzone:Kuzey I;subzoneid:828;noTicket:#cccccc;ticket:#eba601;selected:#fecc03" data-id="800:::828" style="cursor:pointer">
        <path class="st15 svgshp" d="M19.2,480.5l-30.4,14.2v13.5l31.4-26.4C20,481.4,19.6,480.9,19.2,480.5z" style="fill:#eba601;"></path><text transform="matrix(0.9272 -0.3746 0.3746 0.9272 -1.4409 497.6655)" class="st14 st16 st17">I</text>
    </g>
    <g id="Kuzey J" data-select="zone:Kale Arkası Kuzey;zoneid:800;subzone:Kuzey J;subzoneid:827;noTicket:#cccccc;ticket:#eba601;selected:#fecc03" data-id="800:::827" style="cursor:pointer">
        <path class="st15 svgshp" d="M17.2,475.1h-28.4v16.1l29-13.6C17.6,476.8,17.5,476,17.2,475.1z" style="fill:#fecc03;"></path><text transform="matrix(1 0 0 1 -4.1555 484.5575)" class="st14 st16 st17">J</text>
    </g>
    <g id="Kuzey K" data-select="zone:Kale Arkası Kuzey;zoneid:800;subzone:Kuzey K;subzoneid:824;noTicket:#cccccc;ticket:#eba601;selected:#fecc03" data-id="800:::824" style="cursor:pointer">
        <path class="st15 svgshp" d="M16.6,470.3v-31.8h-27.8v33.4h27.9C16.7,471.4,16.6,470.8,16.6,470.3z" style="fill:#fecc03;"></path><text transform="matrix(1 0 0 1 -0.7376 462.0303)" class="st14 st16 st17">K</text>
    </g>
    <g id="Kuzey L" data-select="zone:Kale Arkası Kuzey;zoneid:800;subzone:Kuzey L;subzoneid:822;noTicket:#cccccc;ticket:#eba601;selected:#fecc03" data-id="800:::822" style="cursor:pointer">
        <path class="st15 svgshp" d="M-11.2,399.7h27.8v35.7h-27.8C-11.2,435.4-11.2,399.7-11.2,399.7z" style="fill:#eba601;"></path><text transform="matrix(1 0 0 1 -0.2517 424.3594)" class="st14 st16 st17">L</text>
    </g>
    <g id="Kuzey M" data-select="zone:Kale Arkası Kuzey;zoneid:800;subzone:Kuzey M;subzoneid:820;noTicket:#cccccc;ticket:#eba601;selected:#fecc03" data-id="800:::820" style="cursor:pointer">
        <path class="st15 svgshp" d="M-11.2,361.4h27.8v34.9h-27.8C-11.2,396.3-11.2,361.4-11.2,361.4z" style="fill:#eba601;"></path><text transform="matrix(1 0 0 1 -2.3064 385.7178)" class="st14 st16 st17">M</text>
    </g>
    <g id="Kuzey N" data-select="zone:Kale Arkası Kuzey;zoneid:800;subzone:Kuzey N;subzoneid:818;noTicket:#cccccc;ticket:#eba601;selected:#fecc03" data-id="800:::818" style="cursor:pointer">
        <path class="st15 svgshp" d="M-11.2,341.5h27.8v16.7h-27.8C-11.2,358.2-11.2,341.5-11.2,341.5z" style="fill:#eba601;"></path><text transform="matrix(1 0 0 1 -1.6008 353.0572)" class="st14 st16 st17">N</text>
    </g>
    <g id="Misafir-F" data-select="zone:Misafir;zoneid:158;subzone:Misafir-F;subzoneid:855;noTicket:#cccccc;ticket:#eba601;selected:#fecc03;" data-id="158:::855" style="cursor:pointer">
        <path class="st15 svgshp" d="M-51.1,323.4h36.6v14.9h-36.6V323.4z" style="fill:#eba601;"></path><text transform="matrix(1 0 0 1 -35.6272 334.7338)" class="st14 st16 st17">F</text>
    </g>
    <g id="Misafir-G" data-select="zone:Misafir;zoneid:158;subzone:Misafir-G;subzoneid:854;noTicket:#cccccc;ticket:#eba601;selected:#fecc03;" data-id="158:::854" style="cursor:pointer">
        <path class="st15 svgshp" d="M-14.3,305.6l-36.6-16.8v31.4h36.6C-14.4,320.2-14.4,305.6-14.3,305.6z" style="fill:#eba601;"></path><text transform="matrix(1 0 0 1 -36.5798 312.3677)" class="st14 st16 st17">G</text>
    </g>
    <g id="Misafir-H" data-select="zone:Misafir;zoneid:158;subzone:Misafir-H;subzoneid:851;noTicket:#cccccc;ticket:#eba601;selected:#fecc03;" data-id="158:::851" style="cursor:pointer">
        <path class="st15 svgshp" d="M-14.3,286.9l-29.1-24.7c-4,5.5-6.9,12.9-7.5,23l36.6,16.8C-14.4,302-14.4,286.9-14.3,286.9z" style="fill:#eba601;"></path><text transform="matrix(1 0 0 1 -38.9583 286.8218)" class="st14 st16 st17">H</text>
    </g>
    <g id="Misafir-N" data-select="zone:Misafir;zoneid:158;subzone:Misafir-N;subzoneid:856;noTicket:#cccccc;ticket:#eba601;selected:#fecc03;" data-id="158:::856" style="cursor:pointer">
        <path class="st15 svgshp" d="M-11.2,323.4h27.8v14.9h-27.8C-11.2,338.3-11.2,323.4-11.2,323.4z" style="fill:#eba601;"></path><text transform="matrix(1 0 0 1 -1.6008 334.7338)" class="st14 st16 st17">N</text>
    </g>
    <g id="Misafir-O" data-select="zone:Misafir;zoneid:158;subzone:Misafir-O;subzoneid:853;noTicket:#cccccc;ticket:#eba601;selected:#fecc03;" data-id="158:::853" style="cursor:pointer">
        <path class="st15 svgshp" d="M17.1,320l-28.3-12.9v13h28.3C17.1,320,17.1,320,17.1,320z" style="fill:#eba601;">
        </path><text transform="matrix(1 0 0 1 -9.3767 317.4868)" class="st14 st16 st17">O</text>
    </g>
    <g id="Misafir-P" data-select="zone:Misafir;zoneid:158;subzone:Misafir-P;subzoneid:852;noTicket:#cccccc;ticket:#eba601;selected:#fecc03;" data-id="158:::852" style="cursor:pointer">
        <path class="st15 svgshp" d="M19.1,315.4l-30.2-25.7v13.8L18.1,317C18.4,316.4,18.7,315.8,19.1,315.4z" style="fill:#eba601;"></path><text transform="matrix(0.866 0.5 -0.5 0.866 -7.1435 302.7861)" class="st14 st16 st17">P</text>
    </g>
</svg>
