<svg version="1.1" id="ulker" xmlns="http://www.w3.org/2000/svg" xmlns:xlink="http://www.w3.org/1999/xlink" x="0px" y="0px" viewBox="0 0 450 400" style="width: 100%; height: 100%;" xml:space="preserve">
    <defs>
 <style type="text/css">@import url('https://fonts.googleapis.com/css?family=Poppins');</style>
</defs>
<style type="text/css">
   .st0{fill:#CCCCCC;}
   .st1{fill:#FFFFFF;}
   .st2{font-family:'Poppins';}
   .st3{font-size:10px;}
   .st4{font-size:11.407px;}
</style>
<g id="_x31_01_1_">
   <path class="st0 svgshp" d="M151.3,281.4l16.3-36.1c-3.3-2.2-6.4-4.6-9.2-7.4l-28.9,27.3C136.1,271.6,143.4,277.2,151.3,281.4z"></path>
   <text transform="matrix(1 0 0 1 141.4408 262.9528)" class="st1 st2 st3">101</text>
</g>
<g id="_x31_02">
   <path class="st0 svgshp" d="M181.1,251.5c-4.4-1.1-8.7-3.2-12.6-5.5l-16.3,36c8.9,4.8,18.5,8,28.9,9.6L181.1,251.5L181.1,251.5z"></path>
   <text transform="matrix(1 0 0 1 161.4408 274.6195)" class="st1 st2 st3">102</text>
</g>
<g id="103" data-select="zone:1. Kategori;zoneid:1672196;subzone:103;subzoneid:1672612;noTicket:#8CA1DA;ticket:#3452A2;selected:#8CA1DA;" data-id="1672196:::1672612" style="cursor:pointer">
   <path class="st0 svgshp" d="M195.5,253.6c-4.4,0-9.1-0.6-13.1-1.8v39.8c4.2,0.6,8.7,0.8,13.1,0.8h25.1v-39.2L195.5,253.6L195.5,253.6z" style="fill: rgb(204, 204, 204);"></path>
   <text transform="matrix(1 0 0 1 193.1075 277.6195)" class="st1 st2 st3">103</text>
</g>
<g id="104" data-select="zone:1. Kategori;zoneid:1672196;subzone:104;subzoneid:1672613;noTicket:#8CA1DA;ticket:#3452A2;selected:#8CA1DA;" data-id="1672196:::1672613" style="cursor:pointer">
   <path class="st0 svgshp" d="M260.5,292.5l-0.1-39.3c-2,0.2-3.9,0.3-6,0.3h-32.7v39.2h32.6C256.5,292.6,258.5,292.6,260.5,292.5z" style="fill: rgb(204, 204, 204);"></path>
   <text transform="matrix(1 0 0 1 231.7741 277.6195)" class="st1 st2 st3">104</text>
</g>
<g id="105" data-select="zone:2. Kategori;zoneid:1672197;subzone:105;subzoneid:1672618;noTicket:#A3C4E3;ticket:#3776B2;selected:#A3C4E3" data-id="1672197:::1672618" style="cursor:pointer">
   <path class="st0 svgshp" d="M276.5,248.6c-4.6,2.3-9.6,3.7-14.9,4.4l0.1,39.3c11-0.8,21.3-3.6,30.7-7.9L276.5,248.6z" style="fill: rgb(204, 204, 204);"></path>
   <text transform="matrix(1 0 0 1 265.1074 275.9528)" class="st1 st2 st3">105</text>
</g>
<g id="106" data-select="zone:2. Kategori;zoneid:1672197;subzone:106;subzoneid:1672618;noTicket:#A3C4E3;ticket:#3776B2;selected:#A3C4E3" data-id="1672197:::1672618" style="cursor:pointer">
   <path class="st0 svgshp" d="M287.7,241.3c-3.2,2.6-6.6,5-10.2,6.7l15.9,36c8.6-4,16.5-9.3,23.3-15.6L287.7,241.3z" style="fill: rgb(204, 204, 204);"></path>
   <text transform="matrix(1 0 0 1 287.7741 267.9528)" class="st1 st2 st3">106</text>
</g>
<g id="107" data-select="zone:3. Kategori;zoneid:1672198;subzone:107;subzoneid:1672618;noTicket:#D99FE2;ticket:#9130CB;selected:#D99FE2" data-id="1672198:::1672618" style="cursor:pointer">
   <path class="st0 svgshp" d="M298.7,228.7c-2.7,4.3-6.1,8.4-10,11.8l29.1,27.1c6.9-6.6,12.9-14.1,17.5-22.6L298.7,228.7z" style="fill: rgb(254, 204, 3);"></path>
   <text transform="matrix(1 0 0 1 305.1075 251.6195)" class="st1 st2 st3">107</text>
</g>
<g id="108" data-select="zone:3. Kategori;zoneid:1672198;subzone:108;subzoneid:1672618;noTicket:#D99FE2;ticket:#9130CB;selected:#D99FE2" data-id="1672198:::1672618" style="cursor:pointer">
   <path class="st0 svgshp" d="M306.3,197.8v3.9c0,9.5-2.6,18.3-7,26l36.6,16.3c7-13.1,11.1-28.1,11.1-44.1v-0.2c0-0.7,0-1.8-0.1-2.5
       l-40.8,0.2C306.3,197.5,306.3,197.7,306.3,197.8z" style="fill: rgb(254, 204, 3);"></path>
   <text transform="matrix(1 0 0 1 315.4408 220.2862)" class="st1 st2 st3">108</text>
</g>
<g id="109" data-select="zone:3. Kategori;zoneid:1672198;subzone:109;subzoneid:1672618;noTicket:#D99FE2;ticket:#9130CB;selected:#D99FE2" data-id="1672198:::1672618" style="cursor:pointer">
   <path class="st0 svgshp" d="M297.1,168.5c5.5,8,8.8,17.4,9.2,27.6l40.8-0.1c-0.7-16.3-5.5-31.6-13.6-44.6L297.1,168.5z" style="fill: rgb(254, 204, 3);"></path>
   <text transform="matrix(1 0 0 1 313.7741 181.6195)" class="st1 st2 st3">109</text>
</g>
<g id="110" data-select="zone:3. Kategori;zoneid:1672198;subzone:110;subzoneid:1672618;noTicket:#D99FE2;ticket:#9130CB;selected:#D99FE2" data-id="1672198:::1672618" style="cursor:pointer">
   <path class="st0 svgshp" d="M287.8,158.3c3.3,2.7,6.1,5.9,8.6,9.3l36.3-17.1c-5.3-8.2-11.6-15.6-19-21.7L287.8,158.3z" style="fill: rgb(254, 204, 3);"></path>
   <text transform="matrix(1 0 0 1 301.7741 153.9528)" class="st1 st2 st3">110</text>
</g>
<g id="111" data-select="zone:2. Kategori;zoneid:1672197;subzone:111;subzoneid:1672618;noTicket:#A3C4E3;ticket:#3776B2;selected:#A3C4E3" data-id="1672197:::1672618" style="cursor:pointer">
   <path class="st0 svgshp" d="M276.1,150.8c3.9,1.9,7.6,4,11,6.7l26-29.7c-6.6-5.3-13.8-9.7-21.5-13.1L276.1,150.8z" style="fill: rgb(204, 204, 204);"></path>
   <text transform="matrix(1 0 0 1 283.7741 141.2861)" class="st1 st2 st3">111</text>
</g>
<g id="112" data-select="zone:2. Kategori;zoneid:1672197;subzone:112;subzoneid:1672618;noTicket:#A3C4E3;ticket:#3776B2;selected:#A3C4E3" data-id="1672197:::1672618" style="cursor:pointer">
   <path class="st0 svgshp" d="M263.6,146.8c4,0.7,7.9,2,11.4,3.5l15.4-36.1c-8.3-3.5-17.3-5.9-26.7-6.7L263.6,146.8L263.6,146.8z" style="fill: rgb(204, 204, 204);"></path>
   <text transform="matrix(1 0 0 1 264.1074 133.6194)" class="st1 st2 st3">112</text>
</g>
<g id="113" data-select="zone:1. Kategori;zoneid:1672196;subzone:113;subzoneid:1672614;noTicket:#8CA1DA;ticket:#3452A2;selected:#8CA1DA;" data-id="1672196:::1672614" style="cursor:pointer">
   <path class="st0 svgshp" d="M221.8,107.2v38.9h32.7c2.7,0,5.4,0.2,8,0.7v-39.3c-2.7-0.2-5.4-0.3-8.1-0.3H221.8L221.8,107.2z" style="fill: rgb(204, 204, 204);"></path>
   <text transform="matrix(1 0 0 1 233.1075 132.2861)" class="st1 st2 st3">113</text>
</g>
<g id="114" data-select="zone:1. Kategori;zoneid:1672196;subzone:114;subzoneid:1672615;noTicket:#8CA1DA;ticket:#3452A2;selected:#8CA1DA;" data-id="1672196:::1672615" style="cursor:pointer">
   <path class="st0 svgshp" d="M182.1,147.9c4.2-1,8.8-1.9,13.5-1.9h25.1v-38.9h-25.1c-4.4,0-9.1,0.3-13.5,0.9V147.9L182.1,147.9z" style="fill: rgb(204, 204, 204);"></path>
   <text transform="matrix(1 0 0 1 193.7741 132.2861)" class="st1 st2 st3">114</text>
</g>
<g id="_x31_15">
   <path class="st0 svgshp" d="M171.2,152.1c3.1-1.8,6.3-2.9,9.6-3.9v-39.8c-9.1,1.4-17.5,4.1-25.5,8L171.2,152.1z"></path>
   <text transform="matrix(1 0 0 1 163.1075 135.2862)" class="st1 st2 st3">115</text>
</g>
<g id="_x31_16_1_">
   <path class="st0 svgshp" d="M159.8,160.5c3.2-3.1,6.6-5.7,10.4-7.8l-15.7-36.1c-7.8,3.7-14.8,8.7-21.2,14.4L159.8,160.5z"></path>
   <text transform="matrix(1 0 0 1 146.1075 144.9528)" class="st1 st2 st3">116</text>
</g>
<g id="_x31_17_1_">
   <path class="st0 svgshp" d="M115.5,152.9l36.6,16.7c2.1-3.1,4.2-5.9,6.8-8.4l-26.5-29.3C125.9,138.1,120.2,145.2,115.5,152.9z"></path>
   <text transform="matrix(1 0 0 1 130.7741 158.6195)" class="st1 st2 st3">117</text>
</g>
<g id="_x31_18_1_">
   <path class="st0 svgshp" d="M143.7,196.4c0.2-9.5,3.1-18.2,7.8-25.9L115,153.8c-7.1,12.6-11.4,27.1-12.1,42.3h40.8V196.4L143.7,196.4
       L143.7,196.4z"></path>
   <text transform="matrix(1 0 0 1 119.1075 183.9528)" class="st1 st2 st3">118</text>
</g>
<g id="_x31_19_1_">
   <path class="st0 svgshp" d="M149.2,224.8c-3.5-6.9-5.4-14.7-5.4-23.1v-3.9c0-0.1,0-0.2,0-0.3H103c0,0.7-0.1,1.4-0.1,2.3v0.2
       c0,14.7,3.5,28.6,9.6,41L149.2,224.8z"></path>
   <text transform="matrix(1 0 0 1 116.4408 220.2862)" class="st1 st2 st3">119</text>
</g>
<g id="_x31_20_1_">
   <path class="st0 svgshp" d="M157.7,237.1c-3.2-3.4-6-7.1-8.1-11.3L112.9,242c4.2,8.3,9.6,15.9,16.1,22.6L157.7,237.1z"></path>
   <text transform="matrix(1 0 0 1 127.1075 246.6195)" class="st1 st2 st3">120</text>
</g>
<g id="_x32_01">
   <path class="st0 svgshp" d="M132.2,269.1l-24.8,28.1c8.6,7.7,18.1,14.1,28.5,19.1l17.8-32.6C145.8,279.9,138.6,274.9,132.2,269.1z"></path>
   <text transform="matrix(1 0 0 1 123.7742 296.6195)" class="st1 st2 st3">201</text>
</g>
<g id="_x32_02">
   <path class="st0 svgshp" d="M182.3,292.8c-9.7-1.3-19.1-4.2-27.6-8.4L136.8,317c14,6.6,29.3,10.9,45.4,11.8L182.3,292.8L182.3,292.8z"></path>
   <text transform="matrix(1 0 0 1 154.7742 312.2862)" class="st1 st2 st3">202</text>
</g>
<g id="203" data-select="zone:2. Kategori;zoneid:1672197;subzone:203;subzoneid:1672618;noTicket:#A3C4E3;ticket:#3776B2;selected:#A3C4E3" data-id="1672197:::1672618" style="cursor:pointer">
   <path class="st0 svgshp" d="M195.5,293.7c-4,0-8.1-0.3-12.1-0.7v35.8c2.4,0.1,4.6,0.2,6.9,0.2h35.9v-35.2L195.5,293.7L195.5,293.7
       L195.5,293.7z" style="fill: rgb(204, 204, 204);"></path>
   <text transform="matrix(1 0 0 1 196.4409 315.9528)" class="st1 st2 st3">203</text>
</g>
<g id="204" data-select="zone:2. Kategori;zoneid:1672197;subzone:204;subzoneid:1672618;noTicket:#A3C4E3;ticket:#3776B2;selected:#A3C4E3" data-id="1672197:::1672618" style="cursor:pointer">
   <path class="st0 svgshp" d="M268,292.7c-4.4,0.7-9.1,0.9-13.7,0.9h-27.1v35.2h32.2c2.8,0,5.7-0.1,8.4-0.3v-35.9L268,292.7L268,292.7z" style="fill: rgb(204, 204, 204);"></path>
   <text transform="matrix(1 0 0 1 239.1075 315.2862)" class="st1 st2 st3">204</text>
</g>
<g id="205" data-select="zone:3. Kategori;zoneid:1672198;subzone:205;subzoneid:1672618;noTicket:#D99FE2;ticket:#9130CB;selected:#D99FE2" data-id="1672198:::1672618" style="cursor:pointer">
   <path class="st0 svgshp" d="M303.7,279.7c-10.3,6.4-22,11-34.6,12.9v36.1c19.8-1.4,38.3-7.7,54.3-17.2L303.7,279.7z" style="fill: rgb(254, 204, 3);"></path>
   <text transform="matrix(1 0 0 1 284.1075 308.9528)" class="st1 st2 st3">205</text>
</g>
<g id="206" data-select="zone:3. Kategori;zoneid:1672198;subzone:206;subzoneid:1672618;noTicket:#D99FE2;ticket:#9130CB;selected:#D99FE2" data-id="1672198:::1672618" style="cursor:pointer">
   <path class="st0 svgshp" d="M353.9,285.9L325,261.7c-5.9,6.7-12.7,12.6-20.3,17.4l19.9,31.8C335.5,304.1,345.3,295.7,353.9,285.9z" style="fill: rgb(254, 204, 3);"></path>
   <text transform="matrix(1 0 0 1 321.1075 290.2862)" class="st1 st2 st3">206</text>
</g>
<g id="207" data-select="zone:4. Kategori;zoneid:1672199;subzone:207;subzoneid:1672618;noTicket:#92DDA8;ticket:#35A757;selected:#92DDA8" data-id="1672199:::1672618" style="cursor:pointer">
   <path class="st0 svgshp" d="M339.9,238.3c-3.7,8.2-8.6,15.9-14.3,22.7l28.9,24.2c7.8-9.2,14.3-19.5,19.2-30.5L339.9,238.3z" style="fill: rgb(204, 204, 204);"></path>
   <text transform="matrix(1 0 0 1 341.4409 263.9528)" class="st1 st2 st3">207</text>
</g>
<g id="208" data-select="zone:4. Kategori;zoneid:1672199;subzone:208;subzoneid:1672618;noTicket:#92DDA8;ticket:#35A757;selected:#92DDA8" data-id="1672199:::1672618" style="cursor:pointer">
   <path class="st0 svgshp" d="M348.2,199.8v0.2c0,13.1-2.8,25.9-7.8,37.2l33.9,16.3c6.6-15.2,10.2-31.9,10.2-49.7v-8.1c0-0.7,0-1.3,0-2.1
       l-36.5,1C348.2,196.6,348.2,198.1,348.2,199.8z" style="fill: rgb(204, 204, 204);"></path>
   <text transform="matrix(1 0 0 1 355.7742 224.6195)" class="st1 st2 st3">208</text>
</g>
<g id="209" data-select="zone:4. Kategori;zoneid:1672199;subzone:209;subzoneid:1672618;noTicket:#92DDA8;ticket:#35A757;selected:#92DDA8" data-id="1672199:::1672618" style="cursor:pointer">
   <path class="st0 svgshp" d="M372.5,142.6l-34.9,14.1c5.9,11.2,9.5,23.9,10.3,37.1l36.5-1C384,175,379.7,158,372.5,142.6z" style="fill: rgb(204, 204, 204);"></path>
   <text transform="matrix(1 0 0 1 355.4409 175.6195)" class="st1 st2 st3">209</text>
</g>
<g id="210" data-select="zone:4. Kategori;zoneid:1672199;subzone:210;subzoneid:1672618;noTicket:#92DDA8;ticket:#35A757;selected:#92DDA8" data-id="1672199:::1672618" style="cursor:pointer">
   <path class="st0 svgshp" d="M347.4,107.2L320,132.9c6.8,6.6,12.6,14.4,17.2,23l34.9-14.1C365.8,128.7,357.5,117.1,347.4,107.2z" style="fill: rgb(204, 204, 204);"></path>
   <text transform="matrix(1 0 0 1 336.1075 138.2861)" class="st1 st2 st3">210</text>
</g>
<g id="211" data-select="zone:3. Kategori;zoneid:1672198;subzone:211;subzoneid:1672618;noTicket:#D99FE2;ticket:#9130CB;selected:#D99FE2" data-id="1672198:::1672618" style="cursor:pointer">
   <path class="st0 svgshp" d="M300.4,118.2c6.8,3.7,13,8.6,18.6,14l27.4-25.8c-8.2-8-17.5-14.9-27.7-20.5L300.4,118.2z" style="fill: rgb(254, 204, 3);"></path>
   <text transform="matrix(1 0 0 1 313.1075 113.6195)" class="st1 st2 st3">211</text>
</g>
<g id="212" data-select="zone:3. Kategori;zoneid:1672198;subzone:212;subzoneid:1672618;noTicket:#D99FE2;ticket:#9130CB;selected:#D99FE2" data-id="1672198:::1672618" style="cursor:pointer">
   <path class="st0 svgshp" d="M270.6,107.5c10.2,1.9,20,5.3,28.7,10.1l18.4-32.1c-14.3-7.6-30.2-12.4-47.2-14v35.9L270.6,107.5L270.6,107.5z
       " style="fill: rgb(254, 204, 3);"></path>
   <text transform="matrix(1 0 0 1 280.4409 99.2861)" class="st1 st2 st3">212</text>
</g>
<g id="213" data-select="zone:2. Kategori;zoneid:1672197;subzone:213;subzoneid:1672618;noTicket:#A3C4E3;ticket:#3776B2;selected:#A3C4E3" data-id="1672197:::1672618" style="cursor:pointer">
   <path class="st0 svgshp" d="M226.9,71v35h27.5c5.3,0,10.2,0.5,15.2,1.1V71.4c-3.3-0.2-6.6-0.5-10-0.5C259.5,71,226.9,71,226.9,71z" style="fill: rgb(204, 204, 204);"></path>
   <text transform="matrix(1 0 0 1 239.1075 92.9528)" class="st1 st2 st3">213</text>
</g>
<g id="214" data-select="zone:2. Kategori;zoneid:1672197;subzone:214;subzoneid:1672618;noTicket:#A3C4E3;ticket:#3776B2;selected:#A3C4E3" data-id="1672197:::1672618" style="cursor:pointer">
   <path class="st0 svgshp" d="M195.5,106h30.2V71h-35.2c-1.9,0-3.6,0-5.4,0.1v35.4C188.4,106.2,192,106,195.5,106z" style="fill: rgb(204, 204, 204);"></path>
   <text transform="matrix(1 0 0 1 197.1075 92.9528)" class="st1 st2 st3">214</text>
</g>
<g id="_x32_15">
   <path class="st0 svgshp" d="M162.7,112c6.7-2.5,13.9-4.2,21.2-5.3V71.2c-13,0.7-25.5,3.4-37.1,7.8L162.7,112z"></path>
   <text transform="matrix(1 0 0 1 161.7742 95.6195)" class="st1 st2 st3">215</text>
</g>
<g id="_x32_16">
   <path class="st0 svgshp" d="M140.4,123.9c6.6-4.8,13.7-8.7,21.2-11.6l-15.9-33c-11.1,4.2-21.4,10-30.7,17.1L140.4,123.9z"></path>
   <text transform="matrix(1 0 0 1 130.5309 106.2862)" class="st1 st2 st3">216</text>
</g>
<g id="_x32_17">
   <path class="st0 svgshp" d="M80.3,136.9l34.2,15.6c6.4-11,14.8-20.4,24.9-27.9L114,97.2C100.2,107.7,88.6,121.4,80.3,136.9z"></path>
   <text transform="matrix(1 0 0 1 102.1075 130.6195)" class="st1 st2 st3">217</text>
</g>
<g id="_x32_18">
   <path class="st0 svgshp" d="M101.8,194.8c0.7-14.9,5.2-29.1,12.2-41.3l-34.2-15.6c-9.1,17.1-14.2,36.3-14.3,57L101.8,194.8L101.8,194.8
       L101.8,194.8z"></path>
   <text transform="matrix(1 0 0 1 79.4409 173.9528)" class="st1 st2 st3">218</text>
</g>
<g id="_x32_19">
   <path class="st0 svgshp" d="M111.4,241.4c-6.2-12.6-9.6-26.6-9.6-41.4v-0.2c0-1.1,0-2.6,0.1-3.7H65.5v8.1c0,18.6,4.1,36.5,11.6,52.5
       L111.4,241.4z"></path>
   <text transform="matrix(1 0 0 1 78.4409 227.2862)" class="st1 st2 st3">219</text>
</g>
<g id="_x32_20">
   <path class="st0 svgshp" d="M106.5,296.6l24.8-28.1c-7.9-7.4-14.5-16.2-19.7-26l-34.4,15.1C84.6,272.3,94.5,285.7,106.5,296.6z"></path>
   <text transform="matrix(1 0 0 1 96.4409 270.6195)" class="st1 st2 st3">220</text>
</g>
<g id="_x34_01_1_">
   <path class="st0 svgshp" d="M130.6,326.4c-13.8-6.5-26.3-15.2-36.9-25.8l-48.7,48c17.5,17.2,39.3,29.9,63.5,36.6L130.6,326.4z"></path>
   <text transform="matrix(1 0 0 1 82.4408 347.6195)" class="st1 st2 st3">401</text>
</g>
<g id="402" data-select="zone:5. Kategori;zoneid:1672200;subzone:402;subzoneid:1672618;noTicket:#E29FC6;ticket:#B1357D;selected:#E29FC6" data-id="1672200:::1672618" style="cursor:pointer">
   <path class="st0 svgshp" d="M177.1,338.7c-16-1.2-31.2-5.5-45.2-11.8l-22,58.7c12,3.1,24.3,4.8,37,4.8h30.3v-51.6h-0.1V338.7z" style="fill: rgb(204, 204, 204);"></path>
   <text transform="matrix(1 0 0 1 140.1075 366.6195)" class="st1 st2 st3">402</text>
</g>
<g id="403" data-select="zone:5. Kategori;zoneid:1672200;subzone:403;subzoneid:1672618;noTicket:#E29FC6;ticket:#B1357D;selected:#E29FC6" data-id="1672200:::1672618" style="cursor:pointer">
   <path class="st0 svgshp" d="M219.1,390.5v-51.2h-31c-3.3,0-6.5-0.1-9.8-0.3v51.5H219.1z" style="fill: rgb(204, 204, 204);"></path>
   <text transform="matrix(1 0 0 1 189.7742 370.6195)" class="st1 st2 st3">403</text>
</g>
<g id="404" data-select="zone:5. Kategori;zoneid:1672200;subzone:404;subzoneid:1672618;noTicket:#E29FC6;ticket:#B1357D;selected:#E29FC6" data-id="1672200:::1672618" style="cursor:pointer">
   <path class="st0 svgshp" d="M264.3,339.3c-0.7,0-1.6,0-2.3,0h-41.6v51.2h44L264.3,339.3L264.3,339.3z" style="fill: rgb(204, 204, 204);"></path>
   <text transform="matrix(1 0 0 1 234.4408 369.9528)" class="st1 st2 st3">404</text>
</g>
<g id="405" data-select="zone:5. Kategori;zoneid:1672200;subzone:405;subzoneid:1672618;noTicket:#E29FC6;ticket:#B1357D;selected:#E29FC6" data-id="1672200:::1672618" style="cursor:pointer">
   <path class="st0 svgshp" d="M314.2,328.6c-15,6.4-31.5,10.1-48.7,10.4v51.3h37.8c12.3,0,24.3-1.6,35.7-4.4L314.2,328.6z" style="fill: rgb(204, 204, 204);"></path>
   <text transform="matrix(1 0 0 1 287.4409 368.9528)" class="st1 st2 st3">405</text>
</g>
<g id="406" data-select="zone:1. Kategori;zoneid:1672196;subzone:406;subzoneid:1672617;noTicket:#8CA1DA;ticket:#3452A2;selected:#8CA1DA;" data-id="1672196:::1672617" style="cursor:pointer">
   <path class="st0 svgshp" d="M402.9,350.7l-47.6-49.1c-11.6,11.1-24.9,20.2-39.8,26.5l24.7,57.5C364,379.3,385.4,367.1,402.9,350.7z" style="fill: rgb(204, 204, 204);"></path>
   <text transform="matrix(1 0 0 1 347.1075 348.6195)" class="st1 st2 st3">406</text>
</g>
<g id="407" data-select="zone:4. Kategori;zoneid:1672199;subzone:407;subzoneid:1672618;noTicket:#92DDA8;ticket:#35A757;selected:#92DDA8" data-id="1672199:::1672618" style="cursor:pointer">
   <path class="st0 svgshp" d="M382.5,264.9c-6.7,13.5-15.7,25.5-26.4,36l47.6,49.1c16.7-15.9,29.6-35.6,37.4-57.8L382.5,264.9z" style="fill: rgb(204, 204, 204);"></path>
   <text transform="matrix(1 0 0 1 389.1075 308.2862)" class="st1 st2 st3">407</text>
</g>
<g id="408" data-select="zone:5. Kategori;zoneid:1672200;subzone:408;subzoneid:1672618;noTicket:#E29FC6;ticket:#B1357D;selected:#E29FC6" data-id="1672200:::1672618" style="cursor:pointer">
   <path class="st0 svgshp" d="M396.4,214.2c-1.2,17.7-6.1,34.5-13.6,49.6l58.4,27.2c4.9-14.6,7.6-30.1,7.6-46.5v-30.4L396.4,214.2
       L396.4,214.2L396.4,214.2z" style="fill: rgb(204, 204, 204);"></path>
   <text transform="matrix(1 0 0 1 412.7742 250.6195)" class="st1 st2 st3">408</text>
</g>
<g id="409" data-select="zone:5. Kategori;zoneid:1672200;subzone:409;subzoneid:1672618;noTicket:#E29FC6;ticket:#B1357D;selected:#E29FC6" data-id="1672200:::1672618" style="cursor:pointer">
   <path class="st0 svgshp" d="M396.5,213h52.4v-37.2h-53.6c0.9,6.5,1.4,13.1,1.4,20v8.7C396.8,207.2,396.6,210.1,396.5,213z" style="fill: rgb(204, 204, 204);"></path>
   <text transform="matrix(1 0 0 1 414.4409 199.9528)" class="st1 st2 st3">409</text>
</g>
<g id="410" data-select="zone:5. Kategori;zoneid:1672200;subzone:410;subzoneid:1672618;noTicket:#E29FC6;ticket:#B1357D;selected:#E29FC6" data-id="1672200:::1672618" style="cursor:pointer">
   <path class="st0 svgshp" d="M380.1,130.7c7.4,13.6,12.7,28.2,15,44H449v-19.3c0-18.4-3.5-36.1-9.9-52.5L380.1,130.7z" style="fill: rgb(204, 204, 204);"></path>
   <text transform="matrix(1 0 0 1 409.4409 151.2861)" class="st1 st2 st3">410</text>
</g>
<g id="411" data-select="zone:4. Kategori;zoneid:1672199;subzone:411;subzoneid:1672618;noTicket:#92DDA8;ticket:#35A757;selected:#92DDA8" data-id="1672199:::1672618" style="cursor:pointer">
   <path class="st0 svgshp" d="M350.8,94.5c11.4,10,21.1,21.8,28.6,35.1l59.3-27.7c-8.9-21.9-22.9-41.4-40.5-56.8L350.8,94.5z" style="fill: rgb(204, 204, 204);"></path>
   <text transform="matrix(1 0 0 1 384.4409 97.9528)" class="st1 st2 st3">411</text>
</g>
<g id="412" data-select="zone:1. Kategori;zoneid:1672196;subzone:412;subzoneid:1672616;noTicket:#8CA1DA;ticket:#3452A2;selected:#8CA1DA;" data-id="1672196:::1672616" style="cursor:pointer">
   <path class="st0 svgshp" d="M332,12.5l-21.8,57.2c14.7,5.7,28.1,13.8,39.8,23.8l47.4-49.2C378.7,28.7,356.5,17.4,332,12.5z" style="fill: rgb(204, 204, 204);"></path>
   <text transform="matrix(1 0 0 1 338.7742 59.2861)" class="st1 st2 st3">412</text>
</g>
<g id="413" data-select="zone:5. Kategori;zoneid:1672200;subzone:413;subzoneid:1672618;noTicket:#E29FC6;ticket:#B1357D;selected:#E29FC6" data-id="1672200:::1672618" style="cursor:pointer">
   <path class="st0 svgshp" d="M267.9,60.8c14.5,0.6,28.2,3.5,41.2,8.3l21.7-57c-9-1.7-18.2-2.6-27.5-2.6h-35.4L267.9,60.8L267.9,60.8z" style="fill: rgb(204, 204, 204);"></path>
   <text transform="matrix(1 0 0 1 285.7742 43.2861)" class="st1 st2 st3">413</text>
</g>
<g id="414" data-select="zone:5. Kategori;zoneid:1672200;subzone:414;subzoneid:1672618;noTicket:#E29FC6;ticket:#B1357D;selected:#E29FC6" data-id="1672200:::1672618" style="cursor:pointer">
   <path class="st0 svgshp" d="M224.2,9.6v51.2H262c1.6,0,3.1,0,4.7,0.1V9.6H224.2z" style="fill: rgb(204, 204, 204);"></path>
   <text transform="matrix(1 0 0 1 236.8731 40.175)" class="st1 st2 st3">414</text>
</g>
<g id="415" data-select="zone:5. Kategori;zoneid:1672200;subzone:415;subzoneid:1672618;noTicket:#E29FC6;ticket:#B1357D;selected:#E29FC6" data-id="1672200:::1672618" style="cursor:pointer">
   <path class="st0 svgshp" d="M177.2,61.3c3.6-0.2,7.2-0.5,10.9-0.5H223V9.5h-45.7v51.8H177.2z" style="fill: rgb(204, 204, 204);"></path>
   <text transform="matrix(1 0 0 1 191.7742 39.9528)" class="st1 st2 st3">415</text>
</g>
<g id="416" data-select="zone:5. Kategori;zoneid:1672200;subzone:416;subzoneid:1672618;noTicket:#E29FC6;ticket:#B1357D;selected:#E29FC6" data-id="1672200:::1672618" style="cursor:pointer">
   <path class="st0 svgshp" d="M133.2,72.4c13.2-5.9,27.6-9.8,42.8-11.1V9.6h-29.3c-13,0-25.7,1.8-37.6,4.9L133.2,72.4z" style="fill: rgb(204, 204, 204);"></path>
   <text transform="matrix(1 0 0 1 139.7742 41.9528)" class="st1 st2 st3">416</text>
</g>
<g id="_x34_17_1_">
   <path class="st0 svgshp" d="M50,46.7l47.7,48.9c10.2-9.3,21.7-16.9,34.5-22.8l-24.2-58C86.2,20.9,66.3,32.1,50,46.7z"></path>
   <text transform="matrix(1 0 0 1 86.7742 62.2861)" class="st1 st2 st3">417</text>
</g>
<g id="_x34_18_1_">
   <path class="st0 svgshp" d="M69.1,132c7.2-13.5,16.6-25.3,27.5-35.5L49,47.6C31.6,63.2,18.2,83,10,105.1L69.1,132z"></path>
   <text transform="matrix(1 0 0 1 47.4408 98.9528)" class="st1 st2 st3">418</text>
</g>
<g id="_x34_19_1_">
   <path class="st0 svgshp" d="M54.7,175.1c2.3-14.9,7.1-29.1,13.9-41.9l-59-26.8C4,121.9,1,138.2,1,155.5v19.7L54.7,175.1L54.7,175.1z"></path>
   <text transform="matrix(1 0 0 1 20.7742 152.6195)" class="st1 st2 st3">419</text>
</g>
<g id="_x34_20_1_">
   <path class="st0 svgshp" d="M53.2,204.3v-8.6c0-6.6,0.5-13.1,1.4-19.6H1v36.7h52.4C53.4,210.1,53.2,207.2,53.2,204.3z"></path>
   <text transform="matrix(1 0 0 1 17.4408 198.6195)" class="st1 st2 st3">420</text>
</g>
<g id="_x34_21_1_">
   <path class="st0 svgshp" d="M65.6,260.9c-6.7-14.5-11-30.2-12.1-46.9H1v30.6c0,14.6,2.2,28.5,6.2,41.9L65.6,260.9z"></path>
   <text transform="matrix(1 0 0 1 18.7742 248.9528)" class="st1 st2 st3">421</text>
</g>
<g id="_x34_22_1_">
   <path class="st0 svgshp" d="M66.2,262.1L7.6,287.7c7.1,23,20,43.5,36.6,60.2L93,300C81.9,288.9,72.7,276,66.2,262.1z"></path>
   <text transform="matrix(1 0 0 1 40.7742 305.9528)" class="st1 st2 st3">422</text>
</g>
<g id="Sahne">
   <path class="st0" d="M202.4,245.8h-5.6c-25.2,0-45.8-20.6-45.8-45.8l0,0c0-25.2,20.6-45.8,45.8-45.8h5.6c4.2,0,7.6,3.4,7.6,7.6
       v76.5C210,242.4,206.6,245.8,202.4,245.8z"></path>
   <text transform="matrix(2.244830e-10 -1 1 2.244830e-10 186.8364 218.6201)" class="st1 st2 st4">SAHNE</text>
</g>
<g id="Sahne Önü Ayakta" data-select="zone:Sahne Önü Ayakta;zoneid:1672194;subzone:Sahne Önü Ayakta;subzoneid:1672610;noTicket:#9FA4E2;ticket:#353DB1;selected:#9FA4E2;" data-id="1672194:::1672610" style="cursor:pointer">
   <path class="st0 svgshp" d="M242.9,239.3h-24.5c-2.3,0-4.3-1.9-4.3-4.3v-70c0-2.3,1.9-4.3,4.3-4.3h24.5c2.3,0,4.3,1.9,4.3,4.3v70
       C247.2,237.3,245.3,239.3,242.9,239.3z" style="fill: rgb(204, 204, 204);"></path>
   <text transform="matrix(2.244830e-10 -1 1 2.244830e-10 228.8564 229.0527)" class="st1 st2 st3">SAHNE ÖNÜ</text>
   <text transform="matrix(2.244830e-10 -1 1 2.244830e-10 240.8564 218.4531)" class="st1 st2 st3">AYAKTA</text>
</g>
<g id="Saha İçi Ayakta" data-select="zone:Saha İçi Ayakta;zoneid:1672195;subzone:Saha İçi Ayakta;subzoneid:1672611;noTicket:#E3DDA3;ticket:#B2A637;selected:#E3DDA3;" data-id="1672195:::1672611" style="cursor:pointer">
   <path class="st0 svgshp" d="M279.9,239.3h-24.5c-2.3,0-4.3-1.9-4.3-4.3v-70c0-2.3,1.9-4.3,4.3-4.3h24.5c2.3,0,4.3,1.9,4.3,4.3v70
       C284.2,237.3,282.3,239.3,279.9,239.3z" style="fill: rgb(204, 204, 204);"></path>
   <text transform="matrix(2.244830e-10 -1 1 2.244830e-10 265.8564 220.3174)" class="st1 st2 st3">SAHA İÇİ</text>
   <text transform="matrix(2.244830e-10 -1 1 2.244830e-10 277.8564 218.5176)" class="st1 st2 st3">AYAKTA</text>
</g>
<path class="st0" d="M103.4,303.5c-3.2-2.3-13.1-9.6-22.9-23.7c-11-15.8-24-43.5-24-85.5c0-64.6,47.2-99.2,54.2-104.1l3.6,3.2
   c-13,9.1-52.9,41.8-52.9,101.5c0,64,34.2,96.2,45.6,105.2L103.4,303.5z"></path>
</svg>