<svg version="1.1" id="kocaeli" xmlns="http://www.w3.org/2000/svg" xmlns:xlink="http://www.w3.org/1999/xlink" x="0px" y="0px" viewBox="0 0 450 400" style="width: 100%; height: 100%;" xml:space="preserve">
<defs>
  <style type="text/css">@import url('https://fonts.googleapis.com/css?family=Poppins');</style>
</defs>
<style type="text/css">
	.st0{fill:#79B954;}
	.st1{fill:#9FCD85;}
	.st2{fill:none;stroke:#FFFFFF;stroke-width:2;stroke-linecap:round;stroke-miterlimit:10;}
	.st3{font-family:'Poppins';}
	.st4{font-size:10.5552px;}
	.st5{fill:#CCCCCC;}
	.st6{fill:#FFFFFF;}
	.st7{font-family:'Poppins';}
	.st8{font-size:10.5853px;}
	.st9{font-size:7.6449px;}
</style>
<g>
	<g>
		<rect x="111.5" y="129.7" class="st0" width="227.2" height="139.9"></rect>
		<rect x="111.5" y="129.7" class="st1" width="18.8" height="139.9"></rect>
		<rect x="153" y="129.7" class="st1" width="18.8" height="139.9"></rect>
		<rect x="194.7" y="129.7" class="st1" width="18.8" height="139.9"></rect>
		<rect x="236.5" y="129.7" class="st1" width="18.8" height="139.9"></rect>
		<rect x="278.1" y="129.7" class="st1" width="18.8" height="139.9"></rect>
		<rect x="319.9" y="129.7" class="st1" width="18.8" height="139.9"></rect>
	</g>
	<g>
		<ellipse transform="matrix(0.1602 -0.9871 0.9871 0.1602 -8.0773 389.8453)" class="st2" cx="225.1" cy="199.7" rx="26" ry="26"></ellipse>
		<g>
			<line class="st2" x1="225.1" y1="129.7" x2="225.1" y2="269.7"></line>
		</g>
		<g>
			<line class="st2" x1="338.2" y1="157" x2="302.6" y2="157"></line>
			<line class="st2" x1="302.6" y1="242.5" x2="302.6" y2="157"></line>
			<line class="st2" x1="302.6" y1="242.5" x2="338.2" y2="242.5"></line>
		</g>
		<g>
			<line class="st2" x1="338.2" y1="179.9" x2="325.9" y2="179.9"></line>
			<line class="st2" x1="325.9" y1="219.6" x2="325.9" y2="179.9"></line>
			<line class="st2" x1="325.9" y1="219.6" x2="338.2" y2="219.6"></line>
		</g>
		<g>
			<line class="st2" x1="112.4" y1="157" x2="147.6" y2="157"></line>
			<line class="st2" x1="147.6" y1="242.5" x2="147.6" y2="157"></line>
			<line class="st2" x1="147.6" y1="242.5" x2="112.4" y2="242.5"></line>
		</g>
		<g>
			<line class="st2" x1="112.4" y1="179.9" x2="126.1" y2="179.9"></line>
			<line class="st2" x1="126.1" y1="219.6" x2="126.1" y2="179.9"></line>
			<line class="st2" x1="126.1" y1="219.6" x2="112.4" y2="219.6"></line>
		</g>
	</g>
</g>
<g>
	<g>
		<text transform="matrix(-1.836970e-16 -1 1 -1.836970e-16 11.0527 300.7529)" class="st3 st4">KUZEY KALE ARKASI TRİBÜNÜ (NORTH)</text>
	</g>
	<g>
		<text transform="matrix(1 0 0 1 168.6772 381.126)" class="st3 st4">BATI TRİBÜNÜ (WEST)</text>
	</g>
	<g>
		<text transform="matrix(1 0 0 1 166.2109 27.4028)" class="st3 st4">DOĞU TRİBÜNÜ (EAST)</text>
	</g>
	<g>
		<text transform="matrix(-8.979301e-11 1 -1 -8.979301e-11 438.7979 98.002)" class="st3 st4">GÜNEY KALE ARKASI TRİBÜNÜ (SOUTH)</text>
	</g>
</g>
<g id="101" data-select="zone:Doğu Tribünü;zoneid:5672;subzone:101;subzoneid:5677;noTicket:#cccccc;ticket:#eba601;selected:#fecc03" data-id="5672:::5677" style="cursor:pointer">
	<polygon class="st5 svgshp" points="259.7,74.1 226.3,73.8 226.8,109.8 259.3,110.5 	" style="fill:#cccccc;"></polygon>
	<text transform="matrix(1 0 0 1 233.6289 97.1011)" class="st6 st7 st8">101</text>
</g>
<g id="102" data-select="zone:Doğu Tribünü;zoneid:5672;subzone:102;subzoneid:5677;noTicket:#cccccc;ticket:#eba601;selected:#fecc03" data-id="5672:::5677" style="cursor:pointer">
	<polygon class="st5 svgshp" points="295.6,75.2 294.6,111.9 261.4,110.6 261.8,74 	" style="fill:#cccccc;"></polygon>
	<text transform="matrix(1 0 0 1 268.915 97.689)" class="st6 st7 st8">102</text>
</g>
<g id="103" data-select="zone:Doğu Tribünü;zoneid:5672;subzone:103;subzoneid:5677;noTicket:#cccccc;ticket:#eba601;selected:#fecc03" data-id="5672:::5677" style="cursor:pointer">
	<polygon class="st5 svgshp" points="343.5,78.1 298.1,75.2 297.1,111.9 335,113.8 	" style="fill:#cccccc;"></polygon>
	<text transform="matrix(1 0 0 1 308.9033 98.8652)" class="st6 st7 st8">103</text>
</g>
<g id="111" data-select="zone:Batı Tribünü;zoneid:5673;subzone:111;subzoneid:5681;noTicket:#cccccc;ticket:#eba601;selected:#fecc03" data-id="5673:::5681" style="cursor:pointer">
	<path class="st5 svgshp" d="M297.9,325.5l-2.4-36.1c0,0,31.2-1.7,34.6-1.9c3.4-0.2,5.4-0.2,6.6-1.1s2.2-1.8,2.2-1.8l24.5,28.2
		c0,0-6.8,3.8-9.8,5.3c-3,1.5-10.6,4.5-10.6,4.5L297.9,325.5z" style="fill:#cccccc;"></path>
	<text transform="matrix(1 0 0 1 315.3721 310.8516)" class="st6 st7 st8">111</text>
</g>
<g id="112" data-select="zone:Batı Tribünü;zoneid:5673;subzone:112;subzoneid:5681;noTicket:#cccccc;ticket:#eba601;selected:#fecc03" data-id="5673:::5681" style="cursor:pointer">
	<polygon class="st5 svgshp" points="262.7,326.7 295.9,325.7 293.5,289.4 268.8,290.1 268.9,293.5 262.8,293.6 	" style="fill:#cccccc;"></polygon>
	<text transform="matrix(1 0 0 1 270.0908 313.5654)" class="st6 st7 st8">112</text>
</g>
<g id="113" data-select="zone:Batı Tribünü;zoneid:5673;subzone:113;subzoneid:5681;noTicket:#cccccc;ticket:#eba601;selected:#fecc03" data-id="5673:::5681" style="cursor:pointer">
	<polygon class="st5 svgshp" points="226.5,327.2 226.5,307.5 229.5,307.5 229.5,294.5 260.3,294.5 260.3,326.8 	" style="fill:#cccccc;"></polygon>
	<text transform="matrix(1 0 0 1 234.8066 315.3301)" class="st6 st7 st8">113</text>
</g>
<g id="114" data-select="zone:Batı Tribünü;zoneid:5673;subzone:114;subzoneid:5681;noTicket:#cccccc;ticket:#eba601;selected:#fecc03" data-id="5673:::5681" style="cursor:pointer">
	<polygon class="st5 svgshp" points="224.5,327.2 224.5,307.5 221.5,307.5 221.5,294.5 190.7,294.5 190.7,326.8 	" style="fill:#cccccc;"></polygon>
	<text transform="matrix(1 0 0 1 198.0518 315.3301)" class="st6 st7 st8">114</text>
</g>
<g id="115" data-select="zone:Batı Tribünü;zoneid:5673;subzone:115;subzoneid:5681;noTicket:#cccccc;ticket:#eba601;selected:#fecc03" data-id="5673:::5681" style="cursor:pointer">
	<polygon class="st5 svgshp" points="188.3,326.7 154.3,325.7 156.4,289.4 182.2,290.1 182.1,293.5 188.4,293.6 	" style="fill:#cccccc;"></polygon>
	<text transform="matrix(1 0 0 1 162.7686 313.5654)" class="st6 st7 st8">115</text>
</g>
<g id="116" data-select="zone:Batı Tribünü;zoneid:5673;subzone:116;subzoneid:5681;noTicket:#cccccc;ticket:#eba601;selected:#fecc03" data-id="5673:::5681" style="cursor:pointer">
	<path class="st5 svgshp" d="M152,325.5l2.3-36.1c0,0-30.9-1.7-34.3-1.9c-3.4-0.2-5.4-0.2-6.6-1.1c-1.2-0.9-2.2-1.8-2.2-1.8l-24.5,28.2
		c0,0,8.1,4.3,10.2,5.4c2.1,1,10.2,4.4,10.2,4.4L152,325.5z" style="fill:#cccccc;"></path>
	<text transform="matrix(1 0 0 1 117.1929 310.8516)" class="st6 st7 st8">116</text>
</g>
<g id="126" data-select="zone:Doğu Tribünü;zoneid:5672;subzone:126;subzoneid:5677;noTicket:#cccccc;ticket:#eba601;selected:#fecc03" data-id="5672:::5677" style="cursor:pointer">
	<polygon class="st5 svgshp" points="190.4,74.1 223.9,73.8 224.2,109.8 191.5,110.5 	" style="fill:#cccccc;"></polygon>
	<text transform="matrix(1 0 0 1 197.4648 97.1011)" class="st6 st7 st8">126</text>
</g>
<g id="125" data-select="zone:Doğu Tribünü;zoneid:5672;subzone:125;subzoneid:5677;noTicket:#cccccc;ticket:#eba601;selected:#fecc03" data-id="5672:::5677" style="cursor:pointer">
	<polygon class="st5 svgshp" points="154,75.3 156.4,111.9 189.3,110.6 188.1,74.1 	" style="fill:#cccccc;"></polygon>
	<text transform="matrix(1 0 0 1 163.356 97.1011)" class="st6 st7 st8">125</text>
</g>
<g id="124" data-select="zone:Doğu Tribünü;zoneid:5672;subzone:124;subzoneid:5677;noTicket:#cccccc;ticket:#eba601;selected:#fecc03" data-id="5672:::5677" style="cursor:pointer">
	<polygon class="st5 svgshp" points="107.5,78.1 151.7,75.3 154,111.9 116,113.8 	" style="fill:#cccccc;"></polygon>
	<text transform="matrix(1 0 0 1 123.2695 98.8652)" class="st6 st7 st8">124</text>
</g>
<g id="223" data-select="zone:Kale Arkası;zoneid:5674;subzone:223;subzoneid:5678;noTicket:#cccccc;ticket:#eba601;selected:#fecc03" data-id="5674:::5678" style="cursor:pointer">
	<path class="st5 svgshp" d="M105,78.5c0,0-6.2,1.5-13.9,6.5c-4,2.6-10.6,8.3-10.6,8.3l7.6,7.7l4.3-4.3l18,18.4l3.5-0.6L105,78.5z" style="fill:#cccccc;"></path>
	<text transform="matrix(1 0 0 1 90.7295 93.5679)" class="st6 st7 st9">223</text>
</g>
<g id="222" data-select="zone:Kale Arkası;zoneid:5674;subzone:222;subzoneid:5678;noTicket:#cccccc;ticket:#eba601;selected:#fecc03" data-id="5674:::5678" style="cursor:pointer">
	<path class="st5 svgshp" d="M64.1,118.2c0,0,1.3-4.3,6.3-12.6c2.5-4.1,8.3-10.5,8.3-10.5l7.7,7.6l-4.3,4.3l17.6,18.4l-1.2,3.2L64.1,118.2z
		" style="fill:#cccccc;"></path>
	<text transform="matrix(1 0 0 1 69.5591 117.2354)" class="st6 st7 st9">222</text>
</g>
<g id="221" data-select="zone:Kale Arkası;zoneid:5674;subzone:221;subzoneid:5678;noTicket:#cccccc;ticket:#eba601;selected:#fecc03" data-id="5674:::5678" style="cursor:pointer">
	<path class="st5 svgshp" d="M59.8,153.3c0,0,0.5-9.6,1.6-18.1c0.7-5.6,2.3-14.8,2.3-14.8l34.4,10.3l-2,25.1L59.8,153.3z" style="fill:#cccccc;"></path>
	<text transform="matrix(1 0 0 1 69.7603 145.3076)" class="st6 st7 st8">221</text>
</g>
<g id="220" data-select="zone:Kale Arkası;zoneid:5674;subzone:220;subzoneid:5678;noTicket:#cccccc;ticket:#eba601;selected:#fecc03" data-id="5674:::5678" style="cursor:pointer">
	<polygon class="st5 svgshp" points="58.9,184.7 95,185.5 96.1,157.4 59.5,155.2 	" style="fill:#cccccc;"></polygon>
	<text transform="matrix(1 0 0 1 67.4082 175.8877)" class="st6 st7 st8">220</text>
</g>
<g id="219" data-select="zone:Kale Arkası;zoneid:5674;subzone:219;subzoneid:5678;noTicket:#cccccc;ticket:#eba601;selected:#fecc03" data-id="5674:::5678" style="cursor:pointer">
	<polygon class="st5 svgshp" points="58.9,218.7 58.9,186.9 95,187.7 95,217.7 	" style="fill:#cccccc;"></polygon>
	<text transform="matrix(1 0 0 1 67.4082 207.6426)" class="st6 st7 st8">219</text>
</g>
<g id="218" data-select="zone:Kale Arkası;zoneid:5674;subzone:218;subzoneid:5678;noTicket:#cccccc;ticket:#eba601;selected:#fecc03" data-id="5674:::5678" style="cursor:pointer">
	<polygon class="st5 svgshp" points="59.5,247.3 95.7,244.5 94.9,220 58.9,220.7 	" style="fill:#cccccc;"></polygon>
	<text transform="matrix(1 0 0 1 67.4082 237.4385)" class="st6 st7 st8">218</text>
</g>
<g id="217" data-select="zone:Kale Arkası;zoneid:5674;subzone:217;subzoneid:5678;noTicket:#cccccc;ticket:#eba601;selected:#fecc03" data-id="5674:::5678" style="cursor:pointer">
	<path class="st5 svgshp" d="M72.9,300c0,0-4.4-6.9-5.2-8.4c-0.8-1.5-4-9.7-4-9.7s-2.4-11-3-19.5c-0.5-6.8-0.7-12.7-0.7-12.7l35.9-2.7
		c0,0,0.7,11.1,1.3,16.2s1.3,9.3,1.8,10.3c0.5,1,1.1,1.8,1.1,1.8L72.9,300z" style="fill:#cccccc;"></path>
	<text transform="matrix(1 0 0 1 69.7603 270.7168)" class="st6 st7 st8">217</text>
</g>
<g id="210" data-select="zone:Kale Arkası;zoneid:5674;subzone:210;subzoneid:5678;noTicket:#cccccc;ticket:#eba601;selected:#fecc03" data-id="5674:::5678" style="cursor:pointer">
	<path class="st5 svgshp" d="M376.8,299.7c2-3,3.7-5.8,6-10.2c2.2-4.3,3.2-7.7,3.2-7.7s2.5-11.2,3.1-19.7c0.5-6.8,0.7-12.7,0.7-12.7
		l-35.9-2.7c0,0-0.7,11.1-1.3,16.2s-1.3,9.3-1.8,10.3s-1.1,1.8-1.1,1.8L376.8,299.7z" style="fill:#cccccc;"></path>
	<text transform="matrix(1 0 0 1 361.6387 270.7168)" class="st6 st7 st8">210</text>
</g>
<g id="209" data-select="zone:Kale Arkası;zoneid:5674;subzone:209;subzoneid:5678;noTicket:#cccccc;ticket:#eba601;selected:#fecc03" data-id="5674:::5678" style="cursor:pointer">
	<polygon class="st5 svgshp" points="390.4,247 354.3,244.3 355.2,220 391.2,220.7 	" style="fill:#cccccc;"></polygon>
	<text transform="matrix(1 0 0 1 363.9922 237.4385)" class="st6 st7 st8">209</text>
</g>
<g id="208" data-select="zone:Kale Arkası;zoneid:5674;subzone:208;subzoneid:5678;noTicket:#cccccc;ticket:#eba601;selected:#fecc03" data-id="5674:::5678" style="cursor:pointer">
	<polygon class="st5 svgshp" points="391.1,218.9 391.2,186.4 355,187.2 355,217.9 	" style="fill:#cccccc;"></polygon>
	<text transform="matrix(1 0 0 1 363.9922 207.6426)" class="st6 st7 st8">208</text>
</g>
<g id="207" data-select="zone:Kale Arkası;zoneid:5674;subzone:207;subzoneid:5678;noTicket:#cccccc;ticket:#eba601;selected:#fecc03" data-id="5674:::5678" style="cursor:pointer">
	<polygon class="st5 svgshp" points="391.2,184.4 355,185.3 354,157.5 390.6,155.3 	" style="fill:#cccccc;"></polygon>
	<text transform="matrix(1 0 0 1 363.9922 175.8877)" class="st6 st7 st8">207</text>
</g>
<g id="206" data-select="zone:Kale Arkası;zoneid:5674;subzone:206;subzoneid:5678;noTicket:#cccccc;ticket:#eba601;selected:#fecc03" data-id="5674:::5678" style="cursor:pointer">
	<path class="st5 svgshp" d="M390.3,153.2c0,0-0.5-8.8-1.6-17.3c-0.7-5.6-2.3-14.8-2.3-14.8L352,131.3l2,24.3L390.3,153.2z" style="fill:#cccccc;"></path>
	<text transform="matrix(1 0 0 1 362.8154 145.3076)" class="st6 st7 st8">206</text>
</g>
<g id="205" data-select="zone:Kale Arkası;zoneid:5674;subzone:205;subzoneid:5678;noTicket:#cccccc;ticket:#eba601;selected:#fecc03" data-id="5674:::5678" style="cursor:pointer">
	<path class="st5 svgshp" d="M386.1,118.9c0,0-0.9-4.5-5.9-12.7c-2.5-4.1-8.5-11.2-8.5-11.2l-7.9,7.7l4,4.6l-17.6,18.4l1.5,3.7L386.1,118.9
		z" style="fill:#cccccc;"></path>
	<text transform="matrix(1 0 0 1 367.5205 117.8242)" class="st6 st7 st9">205</text>
</g>
<g id="204" data-select="zone:Kale Arkası;zoneid:5674;subzone:204;subzoneid:5678;noTicket:#cccccc;ticket:#eba601;selected:#fecc03" data-id="5674:::5678" style="cursor:pointer">
	<path class="st5 svgshp" d="M345.3,78.3c0,0,6.2,1.5,13.9,6.5c4,2.6,10.6,8.3,10.6,8.3l-7.6,7.7l-4.3-4.3l-18,18.4l-3.5-0.6L345.3,78.3z" style="fill:#cccccc;"></path>
	<text transform="matrix(1 0 0 1 345.5 93.5679)" class="st6 st7 st9">204</text>
</g>
<g id="301" data-select="zone:Doğu Tribünü;zoneid:5672;subzone:301;subzoneid:5677;noTicket:#cccccc;ticket:#eba601;selected:#fecc03" data-id="5672:::5677" style="cursor:pointer">
	<polygon class="st5 svgshp" points="260,35.4 226.4,35.3 226.3,71.8 259.7,71.8 	" style="fill:#cccccc;"></polygon>
	<text transform="matrix(1 0 0 1 234.2178 58.8647)" class="st6 st7 st8">301</text>
</g>
<g id="302" data-select="zone:Doğu Tribünü;zoneid:5672;subzone:302;subzoneid:5677;noTicket:#cccccc;ticket:#eba601;selected:#fecc03" data-id="5672:::5677" style="cursor:pointer">
	<polygon class="st5 svgshp" points="297.2,35.5 262.1,35.4 261.7,71.8 295.6,72.6 	" style="fill:#cccccc;"></polygon>
	<text transform="matrix(1 0 0 1 270.0908 58.8647)" class="st6 st7 st8">302</text>
</g>
<g id="303" data-select="zone:Doğu Tribünü;zoneid:5672;subzone:303;subzoneid:5677;noTicket:#cccccc;ticket:#eba601;selected:#fecc03" data-id="5672:::5677" style="cursor:pointer">
	<path class="st5 svgshp" d="M298.1,73.1l10,0.4l13.1,0.7c9.5,0.4,18.7,1,22.6,1.3l8.9-35.8c-2.6-0.8-15.3-2-27.7-2.5l-25.3-0.8L298.1,73.1
		z" style="fill:#cccccc;"></path>
	<text transform="matrix(1 0 0 1 314.1963 60.6284)" class="st6 st7 st8">303</text>
</g>
<g id="304" data-select="zone:Kale Arkası;zoneid:5674;subzone:304;subzoneid:5678;noTicket:#cccccc;ticket:#eba601;selected:#fecc03" data-id="5674:::5678" style="cursor:pointer">
	<path class="st5 svgshp" d="M346.1,76.1c3.9,1.4,7,2.9,10.5,4.9c5.2,3,10.4,6.6,14.7,10.7l25-26.9c-5.2-4.9-11.3-9.8-17.3-13.6
		c-2.8-1.8-6.1-3.4-9.1-4.9c-4.8-2.5-9.4-3.8-14.6-5.5L346.1,76.1z" style="fill:#cccccc;"></path>
	<text transform="matrix(1 0 0 1 359.085 70.626)" class="st6 st7 st8">304</text>
</g>
<g id="305" data-select="zone:Kale Arkası;zoneid:5674;subzone:305;subzoneid:5678;noTicket:#cccccc;ticket:#eba601;selected:#fecc03" data-id="5674:::5678" style="cursor:pointer">
	<path class="st5 svgshp" d="M372.8,93.4c6.6,6.8,11.9,14.9,15.4,23.8c0.1,0.3,0.1,0.3,0.2,0.5l35.3-11.5c-3.2-9.3-8.4-18.7-13.9-26.5
		c-3.4-4.8-7.5-9-11.5-13.2L372.8,93.4z" style="fill:#cccccc;"></path>
	<text transform="matrix(1 0 0 1 387.7305 98.8652)" class="st6 st7 st8">305</text>
</g>
<g id="306" data-select="zone:Kale Arkası;zoneid:5674;subzone:306;subzoneid:5678;noTicket:#cccccc;ticket:#eba601;selected:#fecc03" data-id="5674:::5678" style="cursor:pointer">
	<path class="st5 svgshp" d="M389,119.6c1.8,10.9,2.1,15.3,2.6,20c0.8,8.1,1.4,13.3,1.4,13.3l35.8-2.2l-0.8-12.8c-0.3-4.7-1.1-12.2-2-19.1
		c-0.3-2.5-0.8-7.6-1.6-10.5L389,119.6z" style="fill:#cccccc;"></path>
	<text transform="matrix(1 0 0 1 400.0527 138.0698)" class="st6 st7 st8">306</text>
</g>
<g id="307" data-select="zone:Kale Arkası;zoneid:5674;subzone:307;subzoneid:5678;noTicket:#cccccc;ticket:#eba601;selected:#fecc03" data-id="5674:::5678" style="cursor:pointer">
	<polygon class="st5 svgshp" points="392.9,154.9 393.4,184.4 430,184.2 428.8,152.6 	" style="fill:#cccccc;"></polygon>
	<text transform="matrix(1 0 0 1 402.6025 173.5356)" class="st6 st7 st8">307</text>
</g>
<g id="308" data-select="zone:Kale Arkası;zoneid:5674;subzone:308;subzoneid:5678;noTicket:#cccccc;ticket:#eba601;selected:#fecc03" data-id="5674:::5678" style="cursor:pointer">
	<polygon class="st5 svgshp" points="430,219.7 430,186 393.4,186.4 393.4,218.8 	" style="fill:#cccccc;"></polygon>
	<text transform="matrix(1 0 0 1 402.6025 207.6426)" class="st6 st7 st8">308</text>
</g>
<g id="309" data-select="zone:Kale Arkası;zoneid:5674;subzone:309;subzoneid:5678;noTicket:#cccccc;ticket:#eba601;selected:#fecc03" data-id="5674:::5678" style="cursor:pointer">
	<polygon class="st5 svgshp" points="393.4,220.7 392.8,247.4 428.7,249.7 430,221.6 	" style="fill:#cccccc;"></polygon>
	<text transform="matrix(1 0 0 1 402.6025 239.1045)" class="st6 st7 st8">309</text>
</g>
<g id="310" data-select="zone:Kale Arkası;zoneid:5674;subzone:310;subzoneid:5678;noTicket:#cccccc;ticket:#eba601;selected:#fecc03" data-id="5674:::5678" style="cursor:pointer">
	<path class="st5 svgshp" d="M424.4,291.6c2-9.8,2.6-14.3,3-20.5c0.3-4.7,1.1-10.6,1.3-19l-36.3-2.3c0,0-0.3,7.1-1,14.2
		c-0.6,6-0.7,8.7-2.5,17.1L424.4,291.6z" style="fill:#cccccc;"></path>
	<text transform="matrix(1 0 0 1 400.0527 273.2129)" class="st6 st7 st8">310</text>
</g>
<g id="311" data-select="zone:Kale Arkası;zoneid:5674;subzone:311;subzoneid:5678;noTicket:#cccccc;ticket:#eba601;selected:#fecc03" data-id="5674:::5678" style="cursor:pointer">
	<path class="st5 svgshp" d="M388.2,283c-3.6,9.3-6.6,17.1-15.6,24.8l27.9,24.4c4.9-5.1,9.6-12,13.4-18.1c4.2-6.8,7.4-12.7,10-20.4
		L388.2,283z" style="fill:#cccccc;"></path>
	<text transform="matrix(1 0 0 1 388.9609 309.1719)" class="st6 st7 st8">311</text>
</g>
<g id="312" data-select="zone:Kale Arkası;zoneid:5674;subzone:312;subzoneid:5678;noTicket:#cccccc;ticket:#eba601;selected:#fecc03" data-id="5674:::5678" style="cursor:pointer">
	<path class="st5 svgshp" d="M354.6,361c8.7-2.5,16.9-6.1,24.5-10.6c7.4-4.4,13.6-10.1,19.6-16.1l-27.6-25.1c-7.2,6.9-16.3,11.5-26,14.9
		L354.6,361z" style="fill:#cccccc;"></path>
	<text transform="matrix(1 0 0 1 361.3223 337.9033)" class="st6 st7 st8">312</text>
</g>
<g id="313" data-select="zone:Batı Tribünü;zoneid:5673;subzone:313;subzoneid:5681;noTicket:#cccccc;ticket:#eba601;selected:#fecc03" data-id="5673:::5681" style="cursor:pointer">
	<path class="st5 svgshp" d="M300.2,365h26c8.9,0,17.6-1.1,25.9-3.3l-9-37.1c-5.5,0.6-14.4,1.4-21.9,1.8c-4.8,0.2-23.2,1-23.2,1L300.2,365z
		" style="fill:#cccccc;"></path>
	<text transform="matrix(1 0 0 1 315.3721 349.959)" class="st6 st7 st8">313</text>
</g>
<g id="314" data-select="zone:Batı Tribünü;zoneid:5673;subzone:314;subzoneid:5681;noTicket:#cccccc;ticket:#eba601;selected:#fecc03" data-id="5673:::5681" style="cursor:pointer">
	<polygon class="st5 svgshp" points="296,327.6 280.1,328.8 282,365 298,365 	" style="fill:#cccccc;"></polygon>
	<text transform="matrix(1 0 0 1 282.251 349.959)" class="st6 st7 st9">314</text>
</g>
<g id="315" data-select="zone:Batı Tribünü;zoneid:5673;subzone:315;subzoneid:5681;noTicket:#cccccc;ticket:#eba601;selected:#fecc03" data-id="5673:::5681" style="cursor:pointer">
	<path class="st5 svgshp" d="M151.9,327.3c0,0-18.3-0.7-23.2-1c-7.5-0.4-16.4-1.2-21.9-1.8l-9,37.1c8.3,2.1,17,3.3,25.9,3.3h26L151.9,327.3
		z" style="fill:#cccccc;"></path>
	<text transform="matrix(1 0 0 1 117.1929 349.959)" class="st6 st7 st8">315</text>
</g>
<g id="316" data-select="zone:Misafir;zoneid:5676;subzone:316;subzoneid:5679;noTicket:#cccccc;ticket:#eba601;selected:#fecc03" data-id="5676:::5679" style="cursor:pointer">
	<path class="st5 svgshp" d="M104.6,324.1c-9.6-3.4-18.7-8-26-14.9l-27.6,25.1c6,6,12.3,11.7,19.6,16.1c7.6,4.5,15.8,8.1,24.5,10.6
		L104.6,324.1z" style="fill:#cccccc;"></path>
	<text transform="matrix(1 0 0 1 71.3232 337.9033)" class="st6 st7 st8">316</text>
</g>
<g id="317" data-select="zone:Misafir;zoneid:5676;subzone:317;subzoneid:5679;noTicket:#cccccc;ticket:#eba601;selected:#fecc03" data-id="5676:::5679" style="cursor:pointer">
	<path class="st5 svgshp" d="M25.9,293.7c2.6,7.7,5.8,13.7,10,20.4c3.8,6.1,8.5,12.9,13.4,18.1l27.9-24.4c-8.9-7.7-12-15.6-15.6-24.8
		L25.9,293.7z" style="fill:#cccccc;"></path>
	<text transform="matrix(1 0 0 1 42.5073 309.1719)" class="st6 st7 st8">317</text>
</g>
<g id="318" data-select="zone:Kale Arkası;zoneid:5674;subzone:318;subzoneid:5678;noTicket:#cccccc;ticket:#eba601;selected:#fecc03" data-id="5674:::5678" style="cursor:pointer">
	<path class="st5 svgshp" d="M60.9,281.2c-1.7-8.5-1.9-11.1-2.5-17.1c-0.7-7-1-14.2-1-14.2l-36.2,2.3c0.2,8.3,1,14.3,1.3,19
		c0.4,6.2,1,10.7,3,20.5L60.9,281.2z" style="fill:#cccccc;"></path>
	<text transform="matrix(1 0 0 1 31.6279 273.2129)" class="st6 st7 st8">318</text>
</g>
<g id="319" data-select="zone:Kale Arkası;zoneid:5674;subzone:319;subzoneid:5678;noTicket:#cccccc;ticket:#eba601;selected:#fecc03" data-id="5674:::5678" style="cursor:pointer">
	<polygon class="st5 svgshp" points="19.9,221.6 21.2,249.7 57,247.4 56.4,220.7 	" style="fill:#cccccc;"></polygon>
	<text transform="matrix(1 0 0 1 30.1587 239.1045)" class="st6 st7 st8">319</text>
</g>
<g id="320" data-select="zone:Kale Arkası;zoneid:5674;subzone:320;subzoneid:5678;noTicket:#cccccc;ticket:#eba601;selected:#fecc03" data-id="5674:::5678" style="cursor:pointer">
	<polygon class="st5 svgshp" points="56.4,218.8 56.4,186.4 19.9,186 19.9,219.7 	" style="fill:#cccccc;"></polygon>
	<text transform="matrix(1 0 0 1 30.1587 207.6426)" class="st6 st7 st8">320</text>
</g>
<g id="321" data-select="zone:Kale Arkası;zoneid:5674;subzone:321;subzoneid:5678;noTicket:#cccccc;ticket:#eba601;selected:#fecc03" data-id="5674:::5678" style="cursor:pointer">
	<polygon class="st5 svgshp" points="21,152.6 19.9,184.2 56.4,184.4 56.9,154.9 	" style="fill:#cccccc;"></polygon>
	<text transform="matrix(1 0 0 1 30.1587 173.5356)" class="st6 st7 st8">321</text>
</g>
<g id="322" data-select="zone:Kale Arkası;zoneid:5674;subzone:322;subzoneid:5678;noTicket:#cccccc;ticket:#eba601;selected:#fecc03" data-id="5674:::5678" style="cursor:pointer">
	<path class="st5 svgshp" d="M25.5,108.4c-0.9,2.8-1.3,8-1.6,10.5c-0.8,6.9-1.7,14.4-2,19.1l-0.8,12.8l35.8,2.2c0,0,0.6-5.3,1.4-13.3
		c0.5-4.7,0.8-9.1,2.6-20L25.5,108.4z" style="fill:#cccccc;"></path>
	<text transform="matrix(1 0 0 1 31.3345 138.0698)" class="st6 st7 st8">322</text>
</g>
<g id="323" data-select="zone:Kale Arkası;zoneid:5674;subzone:323;subzoneid:5678;noTicket:#cccccc;ticket:#eba601;selected:#fecc03" data-id="5674:::5678" style="cursor:pointer">
	<path class="st5 svgshp" d="M51.7,66.6c-4.1,4.1-8.2,8.4-11.5,13.2c-5.5,7.8-10.7,17.3-13.9,26.5l35.3,11.5c0.1-0.3,0.1-0.3,0.2-0.5
		c3.5-9,8.8-17,15.4-23.8L51.7,66.6z" style="fill:#cccccc;"></path>
	<text transform="matrix(1 0 0 1 42.5073 98.8652)" class="st6 st7 st8">323</text>
</g>
<g id="324" data-select="zone:Kale Arkası;zoneid:5674;subzone:324;subzoneid:5678;noTicket:#cccccc;ticket:#eba601;selected:#fecc03" data-id="5674:::5678" style="cursor:pointer">
	<path class="st5 svgshp" d="M95.1,40.6c-5.3,1.6-10.4,3.2-15.2,5.7c-3,1.5-6.2,3.1-9.1,4.9c-6,3.8-12.2,8.7-17.3,13.6l25.4,26.9
		c4.3-4.1,9.1-7.7,14.4-10.7c3.5-2,7.2-3.7,11.1-5.1L95.1,40.6z" style="fill:#cccccc;"></path>
	<text transform="matrix(1 0 0 1 72.4995 70.626)" class="st6 st7 st8">324</text>
</g>
<g id="325" data-select="zone:Doğu Tribünü;zoneid:5672;subzone:325;subzoneid:5677;noTicket:#cccccc;ticket:#eba601;selected:#fecc03" data-id="5672:::5677" style="cursor:pointer">
	<path class="st5 svgshp" d="M150.1,36.4l-25.3,0.8c-12.4,0.5-24.6,1.7-27.2,2.5l9.1,35.7c2.5-0.2,13.1-0.6,21.9-1.1l13.1-0.7l10-0.4
		L150.1,36.4z" style="fill:#cccccc;"></path>
	<text transform="matrix(1 0 0 1 118.3687 60.6284)" class="st6 st7 st8">325</text>
</g>
<g id="326" data-select="zone:Doğu Tribünü;zoneid:5672;subzone:326;subzoneid:5677;noTicket:#cccccc;ticket:#eba601;selected:#fecc03" data-id="5672:::5677" style="cursor:pointer">
	<polygon class="st5 svgshp" points="187.3,35.2 152.3,36.4 153.9,73.2 188.1,71.8 	" style="fill:#cccccc;"></polygon>
	<text transform="matrix(1 0 0 1 161.4937 58.8647)" class="st6 st7 st8">326</text>
</g>
<g id="327" data-select="zone:Doğu Tribünü;zoneid:5672;subzone:327;subzoneid:5677;noTicket:#cccccc;ticket:#eba601;selected:#fecc03" data-id="5672:::5677" style="cursor:pointer">
	<polygon class="st5 svgshp" points="224.2,35.3 189.3,35.2 190,71.8 223.9,71.8 	" style="fill:#cccccc;"></polygon>
	<text transform="matrix(1 0 0 1 198.0518 58.8647)" class="st6 st7 st8">327</text>
</g>
<g id="PROTOKOL" data-select="zone:Protocol;zoneid:5675;subzone:PROTOKOL;subzoneid:5680;noTicket:#cccccc;ticket:#eba601;selected:#fecc03" data-id="5675:::5680" style="cursor:pointer">
	<rect x="155.3" y="330.1" class="st5 svgshp" width="121.1" height="32.7" style="fill:#cccccc;"></rect>
	<text transform="matrix(1 0 0 1 189.3115 351.7246)" class="st6 st7 st8">PROTOKOL</text>
</g>
</svg>